<svg width="376" height="370" viewBox="0 0 376 370" fill="none" xmlns="http://www.w3.org/2000/svg">
<g opacity="0.5" clip-path="url(#clip0_289_32997)">
<path d="M394.463 99.2935H307.885C286.602 99.2935 269.348 116.561 269.348 137.861C269.348 159.161 286.602 176.428 307.885 176.428H394.463C415.747 176.428 433 159.161 433 137.861C433 116.561 415.747 99.2935 394.463 99.2935Z" fill="url(#paint0_linear_289_32997)"/>
<path d="M394.436 193.545H218.148C196.864 193.545 179.611 210.812 179.611 232.112C179.611 253.412 196.864 270.679 218.148 270.679H394.436C415.719 270.679 432.973 253.412 432.973 232.112C432.973 210.812 415.719 193.545 394.436 193.545Z" fill="url(#paint1_linear_289_32997)"/>
<path d="M301.567 2.53467H218.148C196.864 2.53467 179.611 19.8018 179.611 41.1019C179.611 62.402 196.864 79.6691 218.148 79.6691H301.567C322.85 79.6691 340.103 62.402 340.103 41.1019C340.103 19.8018 322.85 2.53467 301.567 2.53467Z" fill="url(#paint2_linear_289_32997)"/>
<path d="M391.931 82.204C414.613 82.204 433 63.802 433 41.102C433 18.402 414.613 0 391.931 0C369.249 0 350.861 18.402 350.861 41.102C350.861 63.802 369.249 82.204 391.931 82.204Z" fill="url(#paint3_linear_289_32997)"/>
<path d="M125.115 193.545H38.5367C17.2535 193.545 0 210.812 0 232.112C0 253.412 17.2535 270.679 38.5367 270.679H125.115C146.398 270.679 163.652 253.412 163.652 232.112C163.652 210.812 146.398 193.545 125.115 193.545Z" fill="url(#paint4_linear_289_32997)"/>
<path d="M214.825 99.2935H38.5367C17.2535 99.2935 0 116.561 0 137.861C0 159.161 17.2535 176.428 38.5367 176.428H214.825C236.108 176.428 253.362 159.161 253.362 137.861C253.362 116.561 236.108 99.2935 214.825 99.2935Z" fill="url(#paint5_linear_289_32997)"/>
<path d="M214.852 290.331H131.433C110.15 290.331 92.8965 307.598 92.8965 328.898C92.8965 350.198 110.15 367.465 131.433 367.465H214.852C236.135 367.465 253.389 350.198 253.389 328.898C253.389 307.598 236.135 290.331 214.852 290.331Z" fill="url(#paint6_linear_289_32997)"/>
<path d="M41.0695 370C63.7516 370 82.139 351.598 82.139 328.898C82.139 306.198 63.7516 287.796 41.0695 287.796C18.3874 287.796 0 306.198 0 328.898C0 351.598 18.3874 370 41.0695 370Z" fill="url(#paint7_linear_289_32997)"/>
</g>
<defs>
<linearGradient id="paint0_linear_289_32997" x1="302.275" y1="186.785" x2="400.124" y2="89.0137" gradientUnits="userSpaceOnUse">
<stop offset="0.17" stop-color="#1F2334"/>
<stop offset="1" stop-color="#30364A"/>
</linearGradient>
<linearGradient id="paint1_linear_289_32997" x1="234.978" y1="303.496" x2="377.745" y2="160.842" gradientUnits="userSpaceOnUse">
<stop offset="0.17" stop-color="#1F2334"/>
<stop offset="1" stop-color="#30364A"/>
</linearGradient>
<linearGradient id="paint2_linear_289_32997" x1="211.747" y1="89.236" x2="308.016" y2="-6.98324" gradientUnits="userSpaceOnUse">
<stop offset="0.17" stop-color="#1F2334"/>
<stop offset="1" stop-color="#30364A"/>
</linearGradient>
<linearGradient id="paint3_linear_289_32997" x1="362.871" y1="70.1569" x2="421.008" y2="12.0659" gradientUnits="userSpaceOnUse">
<stop offset="0.17" stop-color="#1F2334"/>
<stop offset="1" stop-color="#30364A"/>
</linearGradient>
<linearGradient id="paint4_linear_289_32997" x1="32.9264" y1="281.037" x2="130.775" y2="183.265" gradientUnits="userSpaceOnUse">
<stop offset="0.17" stop-color="#1F2334"/>
<stop offset="1" stop-color="#30364A"/>
</linearGradient>
<linearGradient id="paint5_linear_289_32997" x1="55.3676" y1="209.244" x2="198.134" y2="66.5903" gradientUnits="userSpaceOnUse">
<stop offset="0.17" stop-color="#1F2334"/>
<stop offset="1" stop-color="#30364A"/>
</linearGradient>
<linearGradient id="paint6_linear_289_32997" x1="125.033" y1="377.032" x2="221.301" y2="280.813" gradientUnits="userSpaceOnUse">
<stop offset="0.17" stop-color="#1F2334"/>
<stop offset="1" stop-color="#30364A"/>
</linearGradient>
<linearGradient id="paint7_linear_289_32997" x1="12.0376" y1="357.953" x2="70.1474" y2="299.862" gradientUnits="userSpaceOnUse">
<stop offset="0.17" stop-color="#1F2334"/>
<stop offset="1" stop-color="#30364A"/>
</linearGradient>
<clipPath id="clip0_289_32997">
<rect width="433" height="370" fill="white"/>
</clipPath>
</defs>
</svg>
