<svg width="57" height="56" viewBox="0 0 57 56" fill="none" xmlns="http://www.w3.org/2000/svg">
<rect x="0.333008" width="56" height="56" rx="12" fill="#ECFDFF"/>
<g clip-path="url(#clip0_54_61247)">
<path d="M34.7003 20.5638L33.0336 21.186C32.6836 20.9371 32.3169 20.7349 31.9169 20.5793L31.6669 18.9305C31.6336 18.7749 31.5003 18.666 31.3336 18.666H28.6669C28.5003 18.666 28.3669 18.7749 28.3503 18.9305L28.1003 20.5793C27.7003 20.7349 27.3169 20.9371 26.9836 21.186L25.3169 20.5638C25.1669 20.5171 24.9836 20.5638 24.9169 20.7038L23.5836 22.8505C23.5002 22.9905 23.5336 23.1616 23.6669 23.2549L25.0836 24.2816C25.0336 24.4683 25.0003 24.686 25.0003 24.8883C25.0003 25.0904 25.0169 25.2927 25.0503 25.4949L23.6502 26.5216C23.5169 26.6149 23.4836 26.786 23.5669 26.9104L24.9003 29.0727C24.9836 29.2127 25.1503 29.2593 25.3169 29.2127L26.9669 28.5904C27.3169 28.8393 27.6836 29.0416 28.1003 29.1971L28.3336 30.846C28.3669 31.0016 28.5003 31.1104 28.6669 31.1104H31.3336C31.5003 31.1104 31.6336 31.0016 31.6669 30.846L31.9169 29.1971C32.3169 29.0416 32.7003 28.8393 33.0336 28.5904L34.6836 29.2127C34.8336 29.2749 35.0169 29.2127 35.0836 29.0727L36.4169 26.9104C36.5003 26.7704 36.4669 26.6149 36.3336 26.5216L34.9503 25.4949C34.9836 25.2927 35.0003 25.0904 35.0003 24.8883C35.0003 24.6704 34.9836 24.4683 34.9503 24.2816L36.3669 23.2549C36.5003 23.1616 36.5336 22.9905 36.4503 22.8505L35.1169 20.7038C35.0336 20.5638 34.8503 20.5171 34.7003 20.5638ZM30.0003 27.1127C28.6836 27.1127 27.6169 26.1171 27.6169 24.8883C27.6169 23.6593 28.6836 22.6638 30.0003 22.6638C31.3169 22.6638 32.3836 23.6593 32.3836 24.8883C32.3836 26.1171 31.3169 27.1127 30.0003 27.1127Z" fill="#51BAEA"/>
<path d="M41.5664 23.4267C40.8497 18.34 36.1831 14.3111 30.6831 14.0156C30.4497 14 30.2331 14 29.9997 14C24.1164 14 19.2831 18.06 18.4664 23.3333L15.2497 28.7467C14.5664 29.7733 15.3664 31.1111 16.6664 31.1111H18.3331V34.2223C18.3331 35.9333 19.8331 37.3333 21.6664 37.3333H23.3331V42H34.9997V34.72C39.3664 32.7756 42.2497 28.3733 41.5664 23.4267ZM33.1497 32.0911L31.6664 32.7444V38.8889H26.6664V34.2223H21.6664V28H19.4997L21.7164 24.3756C22.0164 20.3156 25.5831 17.1111 29.9997 17.1111C34.5997 17.1111 38.3331 20.5956 38.3331 24.8889C38.3331 28.14 36.1831 30.9244 33.1497 32.0911Z" fill="#51BAEA"/>
</g>
<defs>
<clipPath id="clip0_54_61247">
<rect width="28" height="28" fill="white" transform="translate(14.333 14)"/>
</clipPath>
</defs>
</svg>
