<svg width="596" height="20" viewBox="0 0 596 20" fill="none" xmlns="http://www.w3.org/2000/svg">
<mask id="mask0_1_31861" style="mask-type:alpha" maskUnits="userSpaceOnUse" x="0" y="0" width="596" height="20">
<path d="M0 0L596 -1.01102e-05L596 7.99999C596 14.6274 590.627 20 584 20L12 20C5.37257 20 2.37497e-07 14.6274 1.29891e-07 8.00001L0 0Z" fill="#93D500"/>
</mask>
<g mask="url(#mask0_1_31861)">
<path d="M-107.579 -3.2321C-342.761 50.5589 -73.8724 173.601 118.624 214.508C436.905 282.145 739.303 -72.0054 736.222 -346.591C617.994 -151.128 310.427 -73.449 13.7235 -174.576C-64.5034 -201.238 -134.859 -237.961 -194.44 -281.48C-196.975 -245.023 -195.488 -204.92 -190.089 -163.483C-122.055 -136.198 -57.1518 -105.43 3.6602 -70.5937C53.7447 -41.6898 -122.477 -47.9064 -107.579 -3.2321Z" fill="#3CB4E5"/>
<mask id="mask1_1_31861" style="mask-type:alpha" maskUnits="userSpaceOnUse" x="-634" y="-418" width="1438" height="738">
<path d="M-632.989 227.636C-596.554 327.799 -217.487 268.962 38.0902 315.425C455.43 362.504 819.521 -58.7835 803.243 -417.874C654.124 -164.455 247.105 -68.5029 -153.338 -206.149C-258.917 -242.44 -354.437 -291.742 -435.878 -349.734C-437.646 -302.111 -433.884 -249.646 -424.843 -195.367C-332.84 -158.449 -362.119 -99.1543 -279.419 -52.4939C-211.299 -13.7859 -654.85 168.95 -632.989 227.636Z" fill="#3CB4E5"/>
</mask>
<g mask="url(#mask1_1_31861)">
<path d="M632.027 -431.337C738.456 -275.203 1106.56 -11.6396 1112.83 75.4106C1119.1 162.461 910.171 410.349 541.238 257.494C173.106 104.879 378.084 -400.895 632.027 -431.337Z" fill="#93D500"/>
<path d="M-44.0422 -672.224C62.3864 -516.089 430.492 -252.526 436.761 -165.476C443.031 -78.4259 234.101 169.462 -134.831 16.6068C-502.963 -136.008 -297.986 -641.782 -44.0422 -672.224Z" fill="#1F2334E5
"/>
</g>
</g>
</svg>
