<svg width="57" height="56" viewBox="0 0 57 56" fill="none" xmlns="http://www.w3.org/2000/svg">
<rect x="0.666992" width="56" height="56" rx="12" fill="#ECFDFF"/>
<g clip-path="url(#clip0_54_61257)">
<path d="M39.5559 17.0205H38.0003V14.2754H34.8892V17.0205H22.4448V14.2754H19.3337V17.0205H17.7781C16.0514 17.0205 14.6825 18.2558 14.6825 19.7656L14.667 38.9813C14.667 40.4911 16.0514 41.7264 17.7781 41.7264H39.5559C41.267 41.7264 42.667 40.4911 42.667 38.9813V19.7656C42.667 18.2558 41.267 17.0205 39.5559 17.0205ZM39.5559 38.9813H17.7781V25.2558H39.5559V38.9813ZM39.5559 22.5107H17.7781V19.7656H39.5559V22.5107ZM28.667 29.3734H36.4447V36.2362H28.667V29.3734Z" fill="#51BAEA"/>
</g>
<defs>
<clipPath id="clip0_54_61257">
<rect width="28" height="28" fill="white" transform="translate(14.667 14)"/>
</clipPath>
</defs>
</svg>
