<svg width="56" height="56" viewBox="0 0 56 56" fill="none" xmlns="http://www.w3.org/2000/svg">
<rect width="56" height="56" rx="12" fill="#ECFDFF"/>
<path d="M28.0004 27.4713C29.1204 27.4713 30.147 27.0046 30.8937 26.258C31.6404 25.5113 32.0759 24.4846 32.0759 23.3646C32.0759 21.1246 30.2404 19.2891 28.0004 19.2891C25.7604 19.2891 23.9248 21.1246 23.9248 23.3646C23.9248 24.4846 24.3915 25.5113 25.107 26.258C25.8537 27.0046 26.8804 27.4713 28.0004 27.4713Z" fill="#51BAEA"/>
<path d="M38.7021 26.5684C37.9865 27.3772 36.9288 27.875 35.7465 27.875C35.0621 27.875 34.4399 27.6884 33.8799 27.4084C35.3421 29.0884 36.1821 31.2972 36.1821 33.6928C36.1821 34.0039 36.151 34.315 36.1199 34.595C39.0132 34.6261 41.3154 34.8128 41.3154 31.8572C41.3154 29.6484 40.2577 27.6884 38.7021 26.5684Z" fill="#51BAEA"/>
<path d="M35.7469 27.0657C36.618 27.0657 37.3957 26.7235 37.9869 26.1324C38.5469 25.5724 38.9202 24.7635 38.9202 23.9235C38.9202 22.1813 37.5202 20.7812 35.778 20.7812C34.0357 20.7812 32.6357 22.1813 32.6357 23.9235C32.6357 24.7946 32.978 25.5724 33.5691 26.1324C34.098 26.7235 34.8757 27.0657 35.7469 27.0657Z" fill="#51BAEA"/>
<path d="M22.1201 27.4084C21.5601 27.7195 20.9379 27.875 20.2535 27.875C19.0712 27.875 18.0135 27.3772 17.2979 26.5684C15.7423 27.6884 14.6846 29.6484 14.6846 31.8572C14.6846 34.5328 16.9868 34.595 19.9112 34.595C19.8801 34.315 19.849 34.035 19.849 33.6928C19.849 31.3284 20.6579 29.0884 22.1201 27.4084Z" fill="#51BAEA"/>
<path d="M20.2536 27.0657C21.1247 27.0657 21.9024 26.7235 22.4935 26.1324C23.0535 25.5724 23.4269 24.7635 23.4269 23.9235C23.4269 22.1813 22.0269 20.7812 20.2847 20.7812C18.5424 20.7812 17.1113 22.1813 17.1113 23.9235C17.1113 24.7946 17.4536 25.5724 18.0447 26.1324C18.6047 26.7235 19.3824 27.0657 20.2536 27.0657Z" fill="#51BAEA"/>
<path d="M32.1689 27.0672C32.0756 26.9739 31.9511 26.9117 31.8267 26.8184C30.8933 27.8761 29.4933 28.5295 28 28.5295C26.5067 28.5295 25.1067 27.8761 24.1733 26.8184C24.0489 26.9117 23.9556 26.9739 23.8311 27.0672C21.9956 28.5295 20.7822 30.9561 20.7822 33.6939C20.7822 34.005 20.8133 34.3161 20.8444 34.5961C21.3422 37.1784 24.08 37.2406 27.4711 37.2406C27.6578 37.2406 27.8133 37.2406 28 37.2406C28.7156 37.2406 29.3689 37.2406 30.0222 37.2406C32.7289 37.2406 34.7822 36.9917 35.1556 34.565C35.1867 34.285 35.2178 34.005 35.2178 33.6628C35.2178 30.9872 34.0356 28.5606 32.1689 27.0672Z" fill="#51BAEA"/>
</svg>
