<svg width="50" height="50" viewBox="0 0 50 50" fill="none" xmlns="http://www.w3.org/2000/svg">
<mask id="path-2-outside-1_441_35860" maskUnits="userSpaceOnUse" x="10.897" y="10.8984" width="28" height="28" fill="black">
<rect fill="white" x="10.897" y="10.8984" width="28" height="28"/>
<path d="M38.1013 23.84V26.1663C38.1013 26.9094 37.5694 27.5376 36.837 27.6604L34.9096 27.9836C34.7103 28.6463 34.4437 29.2883 34.1141 29.8998L35.2479 31.4962C35.6774 32.1007 35.6082 32.9202 35.084 33.4443L33.4389 35.0894C32.9138 35.6145 32.0933 35.6831 31.4885 35.2517L29.8962 34.1167C29.2844 34.446 28.6425 34.7123 27.9798 34.9116L27.6527 36.8409C27.5288 37.5722 26.9007 38.1027 26.1592 38.1027H23.8329C23.0899 38.1027 22.4616 37.5708 22.3388 36.8384L22.0156 34.911C21.3737 34.7178 20.7509 34.4618 20.1571 34.1466L18.5449 35.2912C17.9404 35.7204 17.1209 35.6516 16.5968 35.1274L14.9517 33.4823C14.4263 32.9572 14.358 32.1367 14.7894 31.5319L15.9135 29.9549C15.581 29.3459 15.3109 28.7059 15.1075 28.0435L13.1587 27.7133C12.4275 27.5895 11.897 26.9613 11.897 26.2199V23.8935C11.897 23.1505 12.4288 22.5223 13.1612 22.3995L15.0707 22.0795C15.2659 21.4148 15.528 20.7713 15.8531 20.1585L14.7084 18.5464C14.2789 17.9416 14.3481 17.1224 14.8723 16.5982L16.5174 14.9531C17.0425 14.428 17.863 14.3595 18.4678 14.7908L20.0448 15.915C20.6537 15.5822 21.2941 15.3121 21.9561 15.1089L22.2863 13.1602C22.4102 12.4289 23.0383 11.8984 23.7798 11.8984H26.1061C26.8491 11.8984 27.4774 12.4303 27.6002 13.1627C27.6005 13.1656 27.6011 13.1681 27.6014 13.171L28.4719 18.8305C30.7055 20.086 32.082 22.4188 32.082 25.0001C32.082 28.9057 28.9047 32.083 24.9991 32.083C21.0935 32.083 17.9161 28.9057 17.9161 25.0001C17.9161 21.0945 21.0935 17.9172 24.9991 17.9172C25.3444 17.9172 25.6247 18.1972 25.6247 18.5428C25.6247 18.8881 25.3447 19.1681 24.9991 19.1681C21.7833 19.1681 19.1671 21.7845 19.1671 25.0001C19.1671 28.2158 21.7833 30.8321 24.9991 30.8321C28.2148 30.8321 30.8311 28.2159 30.8311 25.0001C30.8311 22.7834 29.6003 20.7862 27.6191 19.7881C27.6085 19.7827 27.5999 19.7753 27.5896 19.7693C27.5659 19.7558 27.5425 19.7421 27.5211 19.7257C27.5068 19.7149 27.4946 19.7024 27.4815 19.6905C27.4648 19.6752 27.4475 19.6604 27.4325 19.6434C27.42 19.6294 27.4098 19.6139 27.3985 19.5989C27.3857 19.5813 27.3726 19.5644 27.3615 19.5455C27.3516 19.5285 27.3442 19.5109 27.3358 19.493C27.3269 19.4741 27.3176 19.4559 27.3105 19.4357C27.3028 19.4136 27.298 19.3906 27.2929 19.3679C27.2897 19.3535 27.2843 19.3401 27.2817 19.325L26.3652 13.366C26.3428 13.24 26.2337 13.1488 26.1054 13.1488H23.7791C23.6498 13.1488 23.5403 13.2413 23.5189 13.3685L23.1227 15.7058C23.0818 15.9477 22.9033 16.1432 22.6661 16.206C21.8452 16.423 21.059 16.7552 20.3288 17.1926C20.1157 17.3206 19.8469 17.3097 19.6443 17.1654L17.7413 15.809C17.6357 15.7338 17.493 15.7456 17.4015 15.8371L15.7564 17.4822C15.6649 17.5737 15.6531 17.7165 15.728 17.8216L17.1008 19.7551C17.2429 19.9551 17.2547 20.2198 17.1315 20.4319C16.7034 21.1672 16.3817 21.9579 16.1754 22.782C16.1149 23.0232 15.9175 23.2056 15.672 23.247L13.3681 23.6332C13.2404 23.6547 13.1479 23.7641 13.1479 23.8937V26.2201C13.1479 26.3494 13.2404 26.4588 13.3677 26.4803L15.705 26.8764C15.9468 26.9174 16.1423 27.0959 16.2052 27.3331C16.4225 28.1539 16.7543 28.9405 17.192 29.6704C17.3201 29.8838 17.3091 30.1527 17.1649 30.3549L15.8081 32.2579C15.7329 32.3632 15.7448 32.5062 15.8362 32.5977L17.4813 34.2428C17.5726 34.3343 17.7156 34.3461 17.8208 34.2712L19.7542 32.8984C19.9542 32.7563 20.2189 32.7444 20.431 32.8677C21.1501 33.2862 21.9212 33.603 22.7232 33.8097C22.9626 33.8715 23.143 34.0683 23.184 34.3121L23.5727 36.6315C23.5942 36.7592 23.7036 36.852 23.8333 36.852H26.1596C26.2889 36.852 26.3984 36.7595 26.4198 36.6323L26.8131 34.3119C26.8543 34.0687 27.0348 33.8723 27.2739 33.8108C28.0947 33.5995 28.8834 33.2725 29.6178 32.8386C29.8306 32.7129 30.0975 32.7243 30.2988 32.8678L32.2149 34.2338C32.3202 34.309 32.4632 34.2972 32.5547 34.2057L34.1998 32.5606C34.2913 32.469 34.3031 32.3263 34.2282 32.2211L32.8647 30.3008C32.7216 30.0996 32.7104 29.833 32.8362 29.6205C33.2702 28.8861 33.5975 28.0976 33.8087 27.2768C33.8705 27.0375 34.0673 26.8571 34.3111 26.816L36.6305 26.4273C36.7582 26.4058 36.851 26.2964 36.851 26.1667V23.8404C36.851 23.7111 36.7585 23.6017 36.6312 23.5802L34.3109 23.187C34.0677 23.1457 33.8712 22.9652 33.8098 22.7261C33.5985 21.9053 33.2715 21.1169 32.8376 20.3822C32.7119 20.1694 32.7233 19.9025 32.8668 19.7013L34.2328 17.7851C34.308 17.6798 34.2961 17.5368 34.2047 17.4453L32.5596 15.8002C32.468 15.7087 32.3253 15.6969 32.2201 15.7718L30.3001 17.1354C30.0186 17.3354 29.6282 17.2691 29.4282 16.9875C29.2282 16.706 29.2944 16.3156 29.576 16.1156L31.4963 14.752C32.1008 14.3228 32.9202 14.3917 33.4444 14.9159L35.0895 16.561C35.6149 17.0861 35.6832 17.9066 35.2518 18.5114L34.1165 20.1037C34.4458 20.7156 34.712 21.3574 34.9114 22.0201L36.8404 22.3472C37.5709 22.4706 38.1014 23.0987 38.1014 23.8401L38.1013 23.84Z"/>
</mask>
<path d="M38.1013 23.84V26.1663C38.1013 26.9094 37.5694 27.5376 36.837 27.6604L34.9096 27.9836C34.7103 28.6463 34.4437 29.2883 34.1141 29.8998L35.2479 31.4962C35.6774 32.1007 35.6082 32.9202 35.084 33.4443L33.4389 35.0894C32.9138 35.6145 32.0933 35.6831 31.4885 35.2517L29.8962 34.1167C29.2844 34.446 28.6425 34.7123 27.9798 34.9116L27.6527 36.8409C27.5288 37.5722 26.9007 38.1027 26.1592 38.1027H23.8329C23.0899 38.1027 22.4616 37.5708 22.3388 36.8384L22.0156 34.911C21.3737 34.7178 20.7509 34.4618 20.1571 34.1466L18.5449 35.2912C17.9404 35.7204 17.1209 35.6516 16.5968 35.1274L14.9517 33.4823C14.4263 32.9572 14.358 32.1367 14.7894 31.5319L15.9135 29.9549C15.581 29.3459 15.3109 28.7059 15.1075 28.0435L13.1587 27.7133C12.4275 27.5895 11.897 26.9613 11.897 26.2199V23.8935C11.897 23.1505 12.4288 22.5223 13.1612 22.3995L15.0707 22.0795C15.2659 21.4148 15.528 20.7713 15.8531 20.1585L14.7084 18.5464C14.2789 17.9416 14.3481 17.1224 14.8723 16.5982L16.5174 14.9531C17.0425 14.428 17.863 14.3595 18.4678 14.7908L20.0448 15.915C20.6537 15.5822 21.2941 15.3121 21.9561 15.1089L22.2863 13.1602C22.4102 12.4289 23.0383 11.8984 23.7798 11.8984H26.1061C26.8491 11.8984 27.4774 12.4303 27.6002 13.1627C27.6005 13.1656 27.6011 13.1681 27.6014 13.171L28.4719 18.8305C30.7055 20.086 32.082 22.4188 32.082 25.0001C32.082 28.9057 28.9047 32.083 24.9991 32.083C21.0935 32.083 17.9161 28.9057 17.9161 25.0001C17.9161 21.0945 21.0935 17.9172 24.9991 17.9172C25.3444 17.9172 25.6247 18.1972 25.6247 18.5428C25.6247 18.8881 25.3447 19.1681 24.9991 19.1681C21.7833 19.1681 19.1671 21.7845 19.1671 25.0001C19.1671 28.2158 21.7833 30.8321 24.9991 30.8321C28.2148 30.8321 30.8311 28.2159 30.8311 25.0001C30.8311 22.7834 29.6003 20.7862 27.6191 19.7881C27.6085 19.7827 27.5999 19.7753 27.5896 19.7693C27.5659 19.7558 27.5425 19.7421 27.5211 19.7257C27.5068 19.7149 27.4946 19.7024 27.4815 19.6905C27.4648 19.6752 27.4475 19.6604 27.4325 19.6434C27.42 19.6294 27.4098 19.6139 27.3985 19.5989C27.3857 19.5813 27.3726 19.5644 27.3615 19.5455C27.3516 19.5285 27.3442 19.5109 27.3358 19.493C27.3269 19.4741 27.3176 19.4559 27.3105 19.4357C27.3028 19.4136 27.298 19.3906 27.2929 19.3679C27.2897 19.3535 27.2843 19.3401 27.2817 19.325L26.3652 13.366C26.3428 13.24 26.2337 13.1488 26.1054 13.1488H23.7791C23.6498 13.1488 23.5403 13.2413 23.5189 13.3685L23.1227 15.7058C23.0818 15.9477 22.9033 16.1432 22.6661 16.206C21.8452 16.423 21.059 16.7552 20.3288 17.1926C20.1157 17.3206 19.8469 17.3097 19.6443 17.1654L17.7413 15.809C17.6357 15.7338 17.493 15.7456 17.4015 15.8371L15.7564 17.4822C15.6649 17.5737 15.6531 17.7165 15.728 17.8216L17.1008 19.7551C17.2429 19.9551 17.2547 20.2198 17.1315 20.4319C16.7034 21.1672 16.3817 21.9579 16.1754 22.782C16.1149 23.0232 15.9175 23.2056 15.672 23.247L13.3681 23.6332C13.2404 23.6547 13.1479 23.7641 13.1479 23.8937V26.2201C13.1479 26.3494 13.2404 26.4588 13.3677 26.4803L15.705 26.8764C15.9468 26.9174 16.1423 27.0959 16.2052 27.3331C16.4225 28.1539 16.7543 28.9405 17.192 29.6704C17.3201 29.8838 17.3091 30.1527 17.1649 30.3549L15.8081 32.2579C15.7329 32.3632 15.7448 32.5062 15.8362 32.5977L17.4813 34.2428C17.5726 34.3343 17.7156 34.3461 17.8208 34.2712L19.7542 32.8984C19.9542 32.7563 20.2189 32.7444 20.431 32.8677C21.1501 33.2862 21.9212 33.603 22.7232 33.8097C22.9626 33.8715 23.143 34.0683 23.184 34.3121L23.5727 36.6315C23.5942 36.7592 23.7036 36.852 23.8333 36.852H26.1596C26.2889 36.852 26.3984 36.7595 26.4198 36.6323L26.8131 34.3119C26.8543 34.0687 27.0348 33.8723 27.2739 33.8108C28.0947 33.5995 28.8834 33.2725 29.6178 32.8386C29.8306 32.7129 30.0975 32.7243 30.2988 32.8678L32.2149 34.2338C32.3202 34.309 32.4632 34.2972 32.5547 34.2057L34.1998 32.5606C34.2913 32.469 34.3031 32.3263 34.2282 32.2211L32.8647 30.3008C32.7216 30.0996 32.7104 29.833 32.8362 29.6205C33.2702 28.8861 33.5975 28.0976 33.8087 27.2768C33.8705 27.0375 34.0673 26.8571 34.3111 26.816L36.6305 26.4273C36.7582 26.4058 36.851 26.2964 36.851 26.1667V23.8404C36.851 23.7111 36.7585 23.6017 36.6312 23.5802L34.3109 23.187C34.0677 23.1457 33.8712 22.9652 33.8098 22.7261C33.5985 21.9053 33.2715 21.1169 32.8376 20.3822C32.7119 20.1694 32.7233 19.9025 32.8668 19.7013L34.2328 17.7851C34.308 17.6798 34.2961 17.5368 34.2047 17.4453L32.5596 15.8002C32.468 15.7087 32.3253 15.6969 32.2201 15.7718L30.3001 17.1354C30.0186 17.3354 29.6282 17.2691 29.4282 16.9875C29.2282 16.706 29.2944 16.3156 29.576 16.1156L31.4963 14.752C32.1008 14.3228 32.9202 14.3917 33.4444 14.9159L35.0895 16.561C35.6149 17.0861 35.6832 17.9066 35.2518 18.5114L34.1165 20.1037C34.4458 20.7156 34.712 21.3574 34.9114 22.0201L36.8404 22.3472C37.5709 22.4706 38.1014 23.0987 38.1014 23.8401L38.1013 23.84Z" fill="#ED4D53"/>
<path d="M38.1013 23.84V26.1663C38.1013 26.9094 37.5694 27.5376 36.837 27.6604L34.9096 27.9836C34.7103 28.6463 34.4437 29.2883 34.1141 29.8998L35.2479 31.4962C35.6774 32.1007 35.6082 32.9202 35.084 33.4443L33.4389 35.0894C32.9138 35.6145 32.0933 35.6831 31.4885 35.2517L29.8962 34.1167C29.2844 34.446 28.6425 34.7123 27.9798 34.9116L27.6527 36.8409C27.5288 37.5722 26.9007 38.1027 26.1592 38.1027H23.8329C23.0899 38.1027 22.4616 37.5708 22.3388 36.8384L22.0156 34.911C21.3737 34.7178 20.7509 34.4618 20.1571 34.1466L18.5449 35.2912C17.9404 35.7204 17.1209 35.6516 16.5968 35.1274L14.9517 33.4823C14.4263 32.9572 14.358 32.1367 14.7894 31.5319L15.9135 29.9549C15.581 29.3459 15.3109 28.7059 15.1075 28.0435L13.1587 27.7133C12.4275 27.5895 11.897 26.9613 11.897 26.2199V23.8935C11.897 23.1505 12.4288 22.5223 13.1612 22.3995L15.0707 22.0795C15.2659 21.4148 15.528 20.7713 15.8531 20.1585L14.7084 18.5464C14.2789 17.9416 14.3481 17.1224 14.8723 16.5982L16.5174 14.9531C17.0425 14.428 17.863 14.3595 18.4678 14.7908L20.0448 15.915C20.6537 15.5822 21.2941 15.3121 21.9561 15.1089L22.2863 13.1602C22.4102 12.4289 23.0383 11.8984 23.7798 11.8984H26.1061C26.8491 11.8984 27.4774 12.4303 27.6002 13.1627C27.6005 13.1656 27.6011 13.1681 27.6014 13.171L28.4719 18.8305C30.7055 20.086 32.082 22.4188 32.082 25.0001C32.082 28.9057 28.9047 32.083 24.9991 32.083C21.0935 32.083 17.9161 28.9057 17.9161 25.0001C17.9161 21.0945 21.0935 17.9172 24.9991 17.9172C25.3444 17.9172 25.6247 18.1972 25.6247 18.5428C25.6247 18.8881 25.3447 19.1681 24.9991 19.1681C21.7833 19.1681 19.1671 21.7845 19.1671 25.0001C19.1671 28.2158 21.7833 30.8321 24.9991 30.8321C28.2148 30.8321 30.8311 28.2159 30.8311 25.0001C30.8311 22.7834 29.6003 20.7862 27.6191 19.7881C27.6085 19.7827 27.5999 19.7753 27.5896 19.7693C27.5659 19.7558 27.5425 19.7421 27.5211 19.7257C27.5068 19.7149 27.4946 19.7024 27.4815 19.6905C27.4648 19.6752 27.4475 19.6604 27.4325 19.6434C27.42 19.6294 27.4098 19.6139 27.3985 19.5989C27.3857 19.5813 27.3726 19.5644 27.3615 19.5455C27.3516 19.5285 27.3442 19.5109 27.3358 19.493C27.3269 19.4741 27.3176 19.4559 27.3105 19.4357C27.3028 19.4136 27.298 19.3906 27.2929 19.3679C27.2897 19.3535 27.2843 19.3401 27.2817 19.325L26.3652 13.366C26.3428 13.24 26.2337 13.1488 26.1054 13.1488H23.7791C23.6498 13.1488 23.5403 13.2413 23.5189 13.3685L23.1227 15.7058C23.0818 15.9477 22.9033 16.1432 22.6661 16.206C21.8452 16.423 21.059 16.7552 20.3288 17.1926C20.1157 17.3206 19.8469 17.3097 19.6443 17.1654L17.7413 15.809C17.6357 15.7338 17.493 15.7456 17.4015 15.8371L15.7564 17.4822C15.6649 17.5737 15.6531 17.7165 15.728 17.8216L17.1008 19.7551C17.2429 19.9551 17.2547 20.2198 17.1315 20.4319C16.7034 21.1672 16.3817 21.9579 16.1754 22.782C16.1149 23.0232 15.9175 23.2056 15.672 23.247L13.3681 23.6332C13.2404 23.6547 13.1479 23.7641 13.1479 23.8937V26.2201C13.1479 26.3494 13.2404 26.4588 13.3677 26.4803L15.705 26.8764C15.9468 26.9174 16.1423 27.0959 16.2052 27.3331C16.4225 28.1539 16.7543 28.9405 17.192 29.6704C17.3201 29.8838 17.3091 30.1527 17.1649 30.3549L15.8081 32.2579C15.7329 32.3632 15.7448 32.5062 15.8362 32.5977L17.4813 34.2428C17.5726 34.3343 17.7156 34.3461 17.8208 34.2712L19.7542 32.8984C19.9542 32.7563 20.2189 32.7444 20.431 32.8677C21.1501 33.2862 21.9212 33.603 22.7232 33.8097C22.9626 33.8715 23.143 34.0683 23.184 34.3121L23.5727 36.6315C23.5942 36.7592 23.7036 36.852 23.8333 36.852H26.1596C26.2889 36.852 26.3984 36.7595 26.4198 36.6323L26.8131 34.3119C26.8543 34.0687 27.0348 33.8723 27.2739 33.8108C28.0947 33.5995 28.8834 33.2725 29.6178 32.8386C29.8306 32.7129 30.0975 32.7243 30.2988 32.8678L32.2149 34.2338C32.3202 34.309 32.4632 34.2972 32.5547 34.2057L34.1998 32.5606C34.2913 32.469 34.3031 32.3263 34.2282 32.2211L32.8647 30.3008C32.7216 30.0996 32.7104 29.833 32.8362 29.6205C33.2702 28.8861 33.5975 28.0976 33.8087 27.2768C33.8705 27.0375 34.0673 26.8571 34.3111 26.816L36.6305 26.4273C36.7582 26.4058 36.851 26.2964 36.851 26.1667V23.8404C36.851 23.7111 36.7585 23.6017 36.6312 23.5802L34.3109 23.187C34.0677 23.1457 33.8712 22.9652 33.8098 22.7261C33.5985 21.9053 33.2715 21.1169 32.8376 20.3822C32.7119 20.1694 32.7233 19.9025 32.8668 19.7013L34.2328 17.7851C34.308 17.6798 34.2961 17.5368 34.2047 17.4453L32.5596 15.8002C32.468 15.7087 32.3253 15.6969 32.2201 15.7718L30.3001 17.1354C30.0186 17.3354 29.6282 17.2691 29.4282 16.9875C29.2282 16.706 29.2944 16.3156 29.576 16.1156L31.4963 14.752C32.1008 14.3228 32.9202 14.3917 33.4444 14.9159L35.0895 16.561C35.6149 17.0861 35.6832 17.9066 35.2518 18.5114L34.1165 20.1037C34.4458 20.7156 34.712 21.3574 34.9114 22.0201L36.8404 22.3472C37.5709 22.4706 38.1014 23.0987 38.1014 23.8401L38.1013 23.84Z" stroke="#EE4E54" stroke-width="0.5" mask="url(#path-2-outside-1_441_35860)"/>
<rect x="1" y="1" width="48" height="48" rx="24" stroke="#EE4E54" stroke-width="2"/>
</svg>
