<svg width="50" height="50" viewBox="0 0 50 50" fill="none" xmlns="http://www.w3.org/2000/svg">
<path d="M35.6493 23.7681C34.6414 23.7681 33.7547 24.3002 33.26 25.1028L30.4227 24.3561C30.4414 24.2068 30.4414 24.0481 30.4414 23.8894C30.4414 22.8254 30.096 21.8361 29.5173 21.0241L33.148 17.3934C33.54 17.6081 33.9973 17.7294 34.4733 17.7294C36.0226 17.7294 37.2733 16.4694 37.2733 14.9294C37.2733 13.3801 36.0133 12.1294 34.4733 12.1294C32.9333 12.1294 31.6733 13.3894 31.6733 14.9294C31.6733 15.4053 31.7946 15.8627 32.0093 16.2548L28.3786 19.8854C27.576 19.3067 26.5866 18.9614 25.5133 18.9614C24.02 18.9614 22.676 19.6334 21.7706 20.688L17.0666 17.8414C17.1226 17.6173 17.1507 17.384 17.1507 17.1414C17.1507 15.5921 15.8907 14.3414 14.3507 14.3414C12.8107 14.3414 11.5507 15.6014 11.5507 17.1414C11.5507 18.6907 12.8107 19.9414 14.3507 19.9414C15.0786 19.9414 15.732 19.6614 16.236 19.2134L20.9587 22.0601C20.7346 22.6201 20.6133 23.236 20.6133 23.8801C20.6133 24.9441 20.9587 25.9334 21.5374 26.7454L15.6854 32.5974C15.2933 32.3827 14.8361 32.2614 14.36 32.2614C12.8107 32.2614 11.56 33.5214 11.56 35.0614C11.56 36.6014 12.82 37.8614 14.36 37.8614C15.9 37.8614 17.16 36.6014 17.16 35.0614C17.16 34.5855 17.0387 34.1281 16.8241 33.7361L22.6667 27.8934C23.376 28.3975 24.2254 28.7241 25.1401 28.7988L25.3827 31.6641C24.3467 32.0748 23.6094 33.0921 23.6094 34.2681C23.6094 35.8174 24.8693 37.0681 26.4093 37.0681C27.9586 37.0681 29.2094 35.8081 29.2094 34.2681C29.2094 32.9148 28.248 31.7854 26.9786 31.5241L26.736 28.6681C28.192 28.2948 29.396 27.2681 30.0027 25.9241L32.84 26.6708C32.8867 28.1734 34.128 29.3774 35.64 29.3774C37.1893 29.3774 38.44 28.1174 38.44 26.5774C38.4587 25.0281 37.1987 23.7681 35.6493 23.7681L35.6493 23.7681ZM14.3507 18.3361C13.6973 18.3361 13.1653 17.8041 13.1653 17.1508C13.1653 16.4974 13.6973 15.9654 14.3507 15.9654C15.004 15.9654 15.536 16.4974 15.536 17.1508C15.5359 17.8042 15.004 18.3361 14.3507 18.3361ZM34.492 13.7441C35.1453 13.7441 35.6774 14.2762 35.6774 14.9295C35.6774 15.5828 35.1453 16.1148 34.492 16.1148C33.8387 16.1148 33.3067 15.5828 33.3067 14.9295C33.3067 14.2761 33.8387 13.7441 34.492 13.7441ZM14.3507 36.2561C13.6973 36.2561 13.1653 35.7241 13.1653 35.0708C13.1653 34.4174 13.6973 33.8854 14.3507 33.8854C15.004 33.8854 15.536 34.4174 15.536 35.0708C15.5359 35.7242 15.004 36.2561 14.3507 36.2561ZM27.6133 34.2682C27.6133 34.9215 27.0813 35.4535 26.428 35.4535C25.7747 35.4535 25.2426 34.9215 25.2426 34.2682C25.2426 33.6148 25.7747 33.0828 26.428 33.0828C27.0813 33.0735 27.6133 33.6148 27.6133 34.2682ZM25.532 27.2028C23.7027 27.2028 22.2187 25.7188 22.2187 23.8895C22.2187 22.0602 23.7027 20.5762 25.532 20.5762C27.3613 20.5762 28.8454 22.0602 28.8454 23.8895C28.8454 25.7189 27.352 27.2028 25.532 27.2028ZM35.6494 27.7628C34.996 27.7628 34.464 27.2308 34.464 26.5775C34.464 25.9241 34.996 25.3921 35.6494 25.3921C36.3027 25.3921 36.8347 25.9241 36.8347 26.5775C36.8347 27.2309 36.3121 27.7628 35.6494 27.7628Z" fill="#ED4D53"/>
<rect x="1" y="1" width="48" height="48" rx="24" stroke="#EE4E54" stroke-width="2"/>
</svg>
