<svg width="50" height="50" viewBox="0 0 50 50" fill="none" xmlns="http://www.w3.org/2000/svg">
<path d="M26.816 37C26.492 37 26.348 36.82 26.348 36.496V31.024H16.16C15.836 31.024 15.62 30.808 15.62 30.484V29.008C15.62 28.792 15.62 28.684 15.764 28.468L26.132 12.16C26.312 11.908 26.456 11.8 26.744 11.8H28.436C28.76 11.8 28.94 12.016 28.94 12.34V28.756H31.604C31.928 28.756 32.036 28.936 32.036 29.26V30.52C32.036 30.844 31.928 31.024 31.604 31.024H28.94V36.496C28.94 36.82 28.796 37 28.472 37H26.816ZM18.248 28.756H26.348V15.94L18.248 28.756Z" fill="#EE4E54"/>
<rect x="1" y="1" width="48" height="48" rx="24" stroke="#EE4E54" stroke-width="2"/>
</svg>
