<svg width="50" height="50" viewBox="0 0 50 50" fill="none" xmlns="http://www.w3.org/2000/svg">
<path d="M35.7357 19.7331L34.9573 20.5199C36.5901 22.6957 37.3821 25.3882 37.1877 28.1016C36.9932 30.815 35.8252 33.3668 33.8988 35.2873C31.9723 37.208 29.417 38.3683 26.7031 38.5547C26.4455 38.5715 26.1897 38.5798 25.9359 38.5798H25.9358C24.3559 38.5833 22.793 38.2536 21.3489 37.6125C19.905 36.9713 18.6124 36.033 17.5554 34.8587C17.3946 34.6722 17.3437 34.4149 17.4212 34.1812C17.4988 33.9475 17.6935 33.7718 17.9338 33.7184C18.1742 33.665 18.4249 33.7418 18.5942 33.9207C20.3333 35.846 22.7594 37.0108 25.3494 37.1638C27.9394 37.3169 30.4858 36.4461 32.4395 34.739C34.3934 33.0321 35.5981 30.6256 35.7941 28.0386C35.9902 25.4514 35.1617 22.8911 33.4873 20.9091C33.3733 20.775 33.3141 20.6028 33.3213 20.4269C33.3285 20.251 33.4018 20.0843 33.5265 19.9599L34.7473 18.7391C34.8622 18.6122 34.9033 18.435 34.8562 18.2705C34.8092 18.1059 34.6806 17.9774 34.516 17.9302C34.3515 17.8832 34.1743 17.9244 34.0473 18.0391L32.7789 19.3075C32.6597 19.4267 32.5014 19.4989 32.3332 19.5108C32.165 19.5226 31.9981 19.4733 31.8634 19.372C30.4586 18.3184 28.7979 17.6591 27.053 17.4624C26.8816 17.4438 26.7232 17.3626 26.608 17.2345C26.4928 17.1063 26.4289 16.9403 26.4286 16.7679V14.5111C26.4255 14.3236 26.498 14.1426 26.6296 14.0089C26.7612 13.8752 26.941 13.7999 27.1286 13.7999H27.7698C27.9469 13.7999 28.1105 13.7055 28.199 13.5521C28.2875 13.3988 28.2875 13.2099 28.199 13.0566C28.1105 12.9032 27.9469 12.8087 27.7698 12.8087H24.0962C23.9192 12.8087 23.7555 12.9032 23.6669 13.0566C23.5784 13.2099 23.5784 13.3988 23.6669 13.5521C23.7555 13.7055 23.9192 13.7999 24.0962 13.7999H24.7374C24.923 13.7999 25.1011 13.8737 25.2324 14.0049C25.3636 14.1363 25.4374 14.3143 25.4374 14.4999V16.7679C25.4371 16.9398 25.3736 17.1055 25.259 17.2336C25.1443 17.3616 24.9866 17.4431 24.8158 17.4624C22.5529 17.7215 20.4484 18.7529 18.8573 20.3828C18.6818 20.5618 18.424 20.6336 18.1812 20.5711C17.9383 20.5085 17.7473 20.3212 17.68 20.0797C17.6128 19.8381 17.6794 19.579 17.855 19.3999C19.5229 17.6955 21.6866 16.5617 24.0374 16.1603V15.1999C23.3968 15.1416 22.8294 14.7622 22.5306 14.1924C22.2318 13.6226 22.2425 12.9402 22.5589 12.38C22.8751 11.8199 23.4541 11.4583 24.0962 11.4199H27.7698C28.412 11.4583 28.9909 11.8199 29.3073 12.38C29.6237 12.9402 29.6342 13.6226 29.3354 14.1924C29.0367 14.7622 28.4694 15.1416 27.8286 15.1999V16.1491C29.3936 16.414 30.8851 17.0065 32.205 17.8879L33.045 17.0479C33.5236 16.5688 34.2216 16.3814 34.8759 16.5564C35.5302 16.7313 36.0414 17.242 36.2171 17.8961C36.3927 18.5503 36.206 19.2484 35.7274 19.7275L35.7357 19.7331ZM12.7757 23.7035C12.7757 23.8892 12.8495 24.0672 12.9808 24.1984C13.112 24.3297 13.2901 24.4035 13.4757 24.4035H18.3365C18.5866 24.4035 18.8177 24.2701 18.9427 24.0535C19.0678 23.8369 19.0678 23.5701 18.9427 23.3535C18.8177 23.1369 18.5866 23.0035 18.3365 23.0035H13.4785C13.2934 23.0035 13.1157 23.0769 12.9845 23.2075C12.8533 23.3382 12.7792 23.5155 12.7785 23.7007L12.7757 23.7035ZM20.7333 27.0971C20.7333 26.9115 20.6596 26.7334 20.5282 26.6022C20.397 26.4709 20.219 26.3971 20.0333 26.3971H15.1753C14.9252 26.3971 14.694 26.5306 14.569 26.7471C14.444 26.9637 14.444 27.2306 14.569 27.4471C14.6941 27.6637 14.9252 27.7971 15.1753 27.7971H20.0333C20.219 27.7971 20.397 27.7234 20.5282 27.5921C20.6596 27.4609 20.7333 27.2828 20.7333 27.0971ZM13.4785 31.1935H18.3365C18.5866 31.1935 18.8177 31.0601 18.9427 30.8435C19.0677 30.6269 19.0677 30.3601 18.9427 30.1435C18.8177 29.9269 18.5866 29.7935 18.3365 29.7935H13.4785C13.2284 29.7935 12.9973 29.9269 12.8723 30.1435C12.7472 30.3601 12.7472 30.6269 12.8723 30.8435C12.9973 31.0601 13.2284 31.1935 13.4785 31.1935ZM29.8165 24.3951L28.0217 26.19H28.0217C28.3763 26.8634 28.3853 27.6663 28.0459 28.3476C27.7064 29.0287 27.06 29.505 26.3088 29.6275C25.5576 29.75 24.7934 29.5035 24.2552 28.9653C23.717 28.4272 23.4706 27.6629 23.5931 26.9118C23.7155 26.1605 24.1918 25.5141 24.8729 25.1746C25.5542 24.8352 26.3571 24.8442 27.0305 25.1988L28.8254 23.4039V23.404C29.0024 23.2269 29.2605 23.1577 29.5023 23.2225C29.7442 23.2873 29.9332 23.4763 29.998 23.7182C30.0628 23.96 29.9936 24.2181 29.8165 24.3951L29.8165 24.3951ZM26.8933 27.2903C26.8933 27.0356 26.7921 26.7913 26.612 26.6112C26.4318 26.4311 26.1876 26.3299 25.9329 26.3299C25.6781 26.3299 25.4339 26.4311 25.2538 26.6112C25.0737 26.7913 24.9725 27.0356 24.9725 27.2903C24.9725 27.5451 25.0737 27.7893 25.2538 27.9694C25.4339 28.1495 25.6782 28.2507 25.9329 28.2507C26.1874 28.25 26.4312 28.1485 26.6112 27.9686C26.7911 27.7886 26.8926 27.5448 26.8933 27.2903ZM25.9329 35.6203C27.768 35.6232 29.5528 35.0202 31.0102 33.9048C32.4677 32.7896 33.516 31.2243 33.9927 29.4521C34.4694 27.68 34.3478 25.8 33.6467 24.1041C32.9456 22.4082 31.7043 20.991 30.1154 20.0728C28.5266 19.1546 26.6789 18.7866 24.8594 19.0259C23.0399 19.2652 21.3503 20.0985 20.0529 21.3963C19.8758 21.5734 19.8067 21.8314 19.8716 22.0733C19.9364 22.3152 20.1252 22.5041 20.3671 22.5689C20.609 22.6338 20.8671 22.5646 21.0442 22.3875C22.0136 21.4163 23.2494 20.7546 24.595 20.486C25.9407 20.2175 27.3358 20.3541 28.6039 20.8788C29.8719 21.4033 30.9557 22.2923 31.7185 23.4331C32.4811 24.574 32.8881 25.9153 32.8881 27.2875C32.8881 28.6598 32.4811 30.0012 31.7185 31.1419C30.9558 32.2827 29.8719 33.1717 28.6039 33.6962C27.3359 34.2208 25.9407 34.3575 24.595 34.0889C23.2494 33.8203 22.0134 33.1586 21.0442 32.1874C20.8671 32.0104 20.609 31.9412 20.3671 32.006C20.1252 32.0708 19.9364 32.2598 19.8716 32.5016C19.8067 32.7435 19.8758 33.0016 20.0529 33.1786C20.8244 33.9521 21.7409 34.5659 22.7498 34.9849C23.7587 35.4039 24.8404 35.6197 25.9329 35.6202L25.9329 35.6203Z" fill="#ED4D53"/>
<rect x="1" y="1" width="48" height="48" rx="24" stroke="#EE4E54" stroke-width="2"/>
</svg>
