<svg width="50" height="50" viewBox="0 0 50 50" fill="none" xmlns="http://www.w3.org/2000/svg">
<path d="M16.7369 19.4591C17.426 19.5557 17.9681 19.5413 18.4306 19.4669C18.9481 19.3836 19.3609 19.226 19.7566 19.0748L19.7592 19.0738C19.7592 19.0738 19.7592 19.0738 19.7592 19.0738C20.1734 18.9158 20.5646 18.7669 21.0825 18.6965C21.5838 18.6284 22.2097 18.6333 23.0896 18.7841C23.2599 19.7307 23.9679 20.491 24.8833 20.7305C24.8833 22.6652 24.8836 25.7732 24.8849 30.0563C23.6895 30.1562 22.5385 30.5464 21.5247 31.1998L21.5247 31.1999C20.3701 31.9442 19.4438 32.9936 18.8471 34.2338C18.7545 34.4261 18.7666 34.6523 18.8791 34.8335C18.9917 35.0149 19.1892 35.125 19.4022 35.125H31.6021C31.8151 35.125 32.0126 35.0149 32.1252 34.8335C32.2376 34.6523 32.2498 34.4259 32.1572 34.2338C32.1572 34.2338 32.1572 34.2337 32.1572 34.2337L32.0446 34.288L16.7369 19.4591ZM16.7369 19.4591L17.8591 21.3666C19.2027 22.1804 20.1045 23.6636 20.1045 25.3561C20.1045 27.9194 18.0352 30.0059 15.4897 30.0059C12.944 30.0059 10.875 27.9188 10.875 25.3556C10.875 23.6631 11.7768 22.1801 13.1204 21.366L14.9589 18.2397L14.9589 18.2397C15.1007 17.9987 15.3857 17.8825 15.6547 17.9576L15.6547 17.9576C16.6907 18.247 17.3896 18.3165 17.9344 18.2753C18.4785 18.2343 18.8772 18.0827 19.3215 17.9132L19.3661 18.03L19.3215 17.9132L19.3233 17.9125C19.7538 17.7482 20.2224 17.5694 20.8454 17.4778C21.4481 17.3892 22.1903 17.3827 23.1832 17.5421C23.5142 16.574 24.4261 15.875 25.4989 15.875C26.5716 15.875 27.4851 16.5741 27.816 17.5421C28.8083 17.3827 29.5503 17.3892 30.1528 17.4777C30.7763 17.5694 31.2452 17.7484 31.6761 17.9129L31.6769 17.9132L31.6323 18.03L31.6769 17.9132C32.1213 18.0829 32.5202 18.2345 33.0644 18.2757C33.6095 18.3169 34.3085 18.2476 35.3448 17.9581L35.3448 17.9581C35.6136 17.8831 35.8989 17.9987 36.0406 18.2403L16.7369 19.4591ZM15.4895 19.7756L14.9222 20.7403C15.1081 20.7168 15.2974 20.7044 15.4896 20.7044C15.4897 20.7044 15.4897 20.7044 15.4897 20.7044L15.4895 19.7756ZM15.4895 19.7756L16.0569 20.74L15.4895 19.7756ZM31.2392 19.0741L31.2423 19.0753C31.6376 19.2263 32.0498 19.3837 32.5663 19.467C33.0282 19.5414 33.5694 19.5562 34.2573 19.4601L33.1403 21.366C31.7954 22.1796 30.8931 23.6631 30.8931 25.3558C30.8931 27.9189 32.9643 30.0056 35.5097 30.0056C38.0138 30.0056 40.057 27.9864 40.1228 25.4806H40.125V25.3556C40.125 23.6634 39.2233 22.1801 37.8791 21.3665L36.0406 18.2404L31.2392 19.0741ZM12.1087 25.3558C12.1087 23.4748 13.6263 21.9455 15.4897 21.9455C17.3529 21.9455 18.8708 23.4756 18.8708 25.3558C18.8708 27.236 17.353 28.7643 15.4897 28.7643C13.6265 28.7643 12.1087 27.2368 12.1087 25.3558ZM20.4834 33.8831C21.6281 32.2702 23.5048 31.2712 25.5022 31.2712C27.5358 31.2712 29.3822 32.2505 30.5257 33.8831H20.4834ZM25.4989 17.1164C26.1686 17.1164 26.7153 17.6657 26.7153 18.3432C26.7153 19.0194 26.168 19.5682 25.4989 19.5682C24.83 19.5682 24.2844 19.0204 24.2844 18.3432C24.2844 17.6658 24.8295 17.1164 25.4989 17.1164ZM35.5095 20.7039C35.316 20.7039 35.1255 20.7166 34.9386 20.7404L35.507 19.7703L36.0772 20.74C35.8916 20.7165 35.7025 20.7039 35.5095 20.7039ZM35.5097 21.9455C37.3729 21.9455 38.8908 23.4748 38.8908 25.3558C38.8908 27.2358 37.3732 28.7643 35.5097 28.7643C33.6456 28.7643 32.1268 27.2368 32.1268 25.3558C32.1268 23.4749 33.6465 21.9455 35.5097 21.9455Z" fill="#ED4D53" stroke="#ED4D53" stroke-width="0.25"/>
<rect x="1" y="1" width="48" height="48" rx="24" stroke="#EE4E54" stroke-width="2"/>
</svg>
