<svg width="50" height="50" viewBox="0 0 50 50" fill="none" xmlns="http://www.w3.org/2000/svg">
<path d="M12.9273 17.1809L12.9274 17.1807C12.9652 16.7498 13.3199 16.4165 13.7495 16.4165C17.6924 16.4165 21.4882 14.8835 24.4383 12.0991L12.9273 17.1809ZM12.9273 17.1809C12.9188 17.28 12.5531 21.9904 13.8589 26.9341C15.1647 31.8775 18.154 37.0905 24.8774 38.1136M12.9273 17.1809L24.8774 38.1136M24.8774 38.1136C24.8776 38.1137 24.8777 38.1137 24.8779 38.1137L24.8871 38.0526C24.9069 38.0942 24.9483 38.1219 24.9949 38.1238C24.9545 38.1235 24.9153 38.1196 24.8774 38.1136ZM37.0716 17.1809C37.0716 17.181 37.0716 17.181 37.0716 17.1811L36.947 17.1916L37.0716 17.1809ZM37.0716 17.1809C37.0348 16.7497 36.6799 16.4165 36.2504 16.4165C32.3085 16.4165 28.5117 14.8835 25.5617 12.0991C25.2454 11.8003 24.7545 11.8003 24.4383 12.0991L37.0716 17.1809ZM34.188 27.7628C32.8596 31.7819 30.2158 35.5929 25 36.4393C19.7907 35.5935 17.1477 31.7826 15.8182 27.7632C14.5178 23.832 14.4838 19.725 14.5349 18.0735C18.3667 17.8954 22.0336 16.4097 25 13.8349C27.9665 16.4098 31.6334 17.8954 35.4663 18.0735C35.5185 19.725 35.4873 23.8317 34.188 27.7628Z" fill="#ED4D53" stroke="#EE4E54" stroke-width="0.25" stroke-linejoin="round"/>
<path d="M20.1855 25.3051L20.0964 25.2175C20.4188 24.8892 20.9417 24.8892 21.2641 25.2175L23.8621 27.8633L29.0569 22.572L29.0569 22.5719C29.3793 22.2436 29.9033 22.2436 30.2257 22.5719C30.5469 22.899 30.5469 23.4276 30.2257 23.7547C30.2257 23.7547 30.2257 23.7547 30.2257 23.7547L24.4466 29.6412L24.4451 29.6427L24.4451 29.6427C24.291 29.7944 24.0821 29.8852 23.8633 29.8858C23.8626 29.8858 23.8618 29.8858 23.861 29.8858C23.6419 29.8858 23.4312 29.7964 23.2777 29.6401L23.3669 29.5525L23.2777 29.6401L20.0964 26.4003C19.7753 26.0733 19.775 25.5435 20.0965 25.2174L20.1855 25.3051ZM20.1855 25.3051C20.459 25.0267 20.9015 25.0267 21.1749 25.3051L23.7745 27.9525L20.1855 25.3051Z" fill="#ED4D53" stroke="#EE4E54" stroke-width="0.25" stroke-linejoin="round"/>
<rect x="1" y="1" width="48" height="48" rx="24" stroke="#EE4E54" stroke-width="2"/>
</svg>
