<svg width="56" height="56" viewBox="0 0 56 56" fill="none" xmlns="http://www.w3.org/2000/svg">
<rect width="56" height="56" rx="12" fill="#1F2334E5
"/>
<path d="M21.1103 27.1003C21.0377 26.633 21.0001 26.1542 21.0001 25.6667C21.0001 20.512 25.2063 16.3334 30.3949 16.3334C35.5834 16.3334 39.7896 20.512 39.7896 25.6667C39.7896 26.8311 39.575 27.9457 39.1828 28.9736C39.1014 29.1871 39.0607 29.2938 39.0422 29.3772C39.0239 29.4598 39.0168 29.5178 39.0148 29.6024C39.0128 29.6877 39.0244 29.7817 39.0475 29.9697L39.5172 33.785C39.568 34.198 39.5935 34.4045 39.5248 34.5546C39.4646 34.6862 39.3577 34.7907 39.2248 34.8478C39.0731 34.913 38.8672 34.8828 38.4555 34.8225L34.7394 34.2778C34.5453 34.2493 34.4483 34.2351 34.3599 34.2356C34.2725 34.2361 34.212 34.2426 34.1265 34.2605C34.04 34.2787 33.9296 34.3201 33.7086 34.4029C32.6781 34.7888 31.5613 35 30.3949 35C29.907 35 29.4278 34.9631 28.9599 34.8919M22.9037 39.6667C26.3627 39.6667 29.1668 36.7939 29.1668 33.25C29.1668 29.7062 26.3627 26.8334 22.9037 26.8334C19.4446 26.8334 16.6405 29.7062 16.6405 33.25C16.6405 33.9624 16.7538 34.6476 16.963 35.2879C17.0514 35.5585 17.0956 35.6939 17.1101 35.7863C17.1252 35.8828 17.1279 35.937 17.1223 36.0345C17.1169 36.128 17.0935 36.2336 17.0467 36.4447L16.3335 39.6667L19.8274 39.1895C20.0181 39.1635 20.1135 39.1505 20.1968 39.151C20.2844 39.1516 20.331 39.1564 20.417 39.1735C20.4986 39.1898 20.62 39.2326 20.8628 39.3183C21.5025 39.5441 22.1891 39.6667 22.9037 39.6667Z" stroke="white" stroke-width="2" stroke-linecap="round" stroke-linejoin="round"/>
</svg>
