<svg width="50" height="50" viewBox="0 0 50 50" fill="none" xmlns="http://www.w3.org/2000/svg">
<g clip-path="url(#clip0_441_35823)">
<path d="M31.0001 16.9771C31.0001 14.7878 29.0488 13.0074 26.6494 13.0074H26.6001V11H24.4001V13.0074H24.3508C21.9514 13.0074 20.0001 14.7878 20.0001 17.0671C20.0001 19.3464 21.9502 21.0369 24.3485 21.0369H26.6517C27.8368 21.0369 28.8001 21.9174 28.8001 23.0892C28.8001 24.171 27.835 25.0516 26.6494 25.0516H24.3502C23.1646 25.0516 22.1995 24.171 22.1995 23.0442L19.9995 23.0892C19.9995 25.2786 21.9508 27.059 24.3502 27.059H24.3995V29.0663H26.5995V27.059H26.6488C29.0477 27.059 30.9995 25.2786 30.9995 22.9993C30.9995 20.72 29.0494 19.0295 26.6511 19.0295H24.3479C23.1628 19.0295 22.1995 18.1489 22.1995 16.9771C22.1995 15.8953 23.1646 15.0147 24.3502 15.0147H26.6494C27.835 15.0147 28.8001 15.8953 28.8001 16.9771V17.0221L31.0001 16.9771Z" fill="#ED4D53"/>
</g>
<path d="M26.5853 31.5H24.4147V37.8H26.5853V31.5Z" fill="#ED4D53"/>
<path d="M28.0761 35.0381L25.5 37.3902L22.924 35.0381V37.0342L25.5 39.3842L28.0761 37.0342V35.0381Z" fill="#ED4D53"/>
<rect x="1" y="1" width="48" height="48" rx="24" stroke="#EE4E54" stroke-width="2"/>
<defs>
<clipPath id="clip0_441_35823">
<rect width="11" height="26" fill="white" transform="translate(20 11)"/>
</clipPath>
</defs>
</svg>
