<svg width="50" height="50" viewBox="0 0 50 50" fill="none" xmlns="http://www.w3.org/2000/svg">
<path d="M18.124 37C17.8 37 17.62 36.82 17.62 36.496V35.128C17.62 34.876 17.692 34.624 17.872 34.444L25.684 25.084C27.232 23.284 29.068 21.16 29.068 18.532C29.068 15.868 27.196 13.924 24.28 13.924C21.544 13.924 20.284 15.58 19.492 16.804C19.312 17.092 19.024 17.092 18.808 16.876L17.8 15.94C17.548 15.688 17.548 15.508 17.764 15.148C18.988 13.276 21.04 11.512 24.424 11.512C28.888 11.512 31.624 14.608 31.624 18.352C31.624 21.556 29.644 23.896 28.096 25.768L20.68 34.696H31.084C31.408 34.696 31.588 34.876 31.588 35.2V36.496C31.588 36.82 31.408 37 31.084 37H18.124Z" fill="#EE4E54"/>
<rect x="1" y="1" width="48" height="48" rx="24" stroke="#EE4E54" stroke-width="2"/>
</svg>
