<svg width="50" height="50" viewBox="0 0 50 50" fill="none" xmlns="http://www.w3.org/2000/svg">
<g clip-path="url(#clip0_441_35998)">
<path d="M39.8414 28.0063C38.4608 28.0063 37.2531 27.0534 36.9234 25.723H33.4104V24.277H36.9234C37.2531 22.9465 38.4608 21.9937 39.8414 21.9937C41.4991 21.9937 42.8478 23.3423 42.8478 25C42.8478 26.6577 41.4991 28.0063 39.8414 28.0063ZM39.8414 23.4397C38.9811 23.4397 38.2812 24.1396 38.2812 25C38.2812 25.8603 38.9811 26.5602 39.8414 26.5602C40.7018 26.5602 41.4017 25.8603 41.4017 25C41.4017 24.1396 40.7018 23.4397 39.8414 23.4397Z" fill="#ED4D53"/>
<path d="M39.8414 22.1457C41.4151 22.1457 42.6956 23.4259 42.6956 24.9999C42.6956 26.5738 41.4151 27.854 39.8414 27.854C38.4629 27.854 37.3103 26.8716 37.0451 25.5707H33.5626V24.429H37.0451C37.3106 23.1282 38.4635 22.1457 39.8414 22.1457ZM39.8414 26.7123C40.7855 26.7123 41.5539 25.9439 41.5539 24.9999C41.5539 24.0558 40.7855 23.2874 39.8414 23.2874C38.8974 23.2874 38.129 24.0558 38.129 24.9999C38.129 25.9439 38.8974 26.7123 39.8414 26.7123ZM39.8414 21.8413C39.1099 21.8413 38.3963 22.0983 37.8321 22.565C37.3407 22.9714 36.9827 23.5182 36.8068 24.1246H33.2582V25.8751H36.8068C36.9824 26.4816 37.3404 27.0284 37.8318 27.4348C38.3959 27.9015 39.1099 28.1584 39.8414 28.1584C41.5832 28.1584 43 26.7416 43 24.9999C43 23.2582 41.5832 21.8413 39.8414 21.8413ZM39.8414 26.4079C39.0651 26.4079 38.4334 25.7762 38.4334 24.9999C38.4334 24.2235 39.0651 23.5918 39.8414 23.5918C40.6178 23.5918 41.2495 24.2235 41.2495 24.9999C41.2495 25.7762 40.6178 26.4079 39.8414 26.4079Z" fill="#ED4D53"/>
<path d="M10.1586 28.0063C8.5009 28.0063 7.15222 26.6577 7.15222 25C7.15222 23.3423 8.5009 21.9937 10.1586 21.9937C11.5392 21.9937 12.747 22.9465 13.0767 24.277H16.5896V25.723H13.0767C12.747 27.0534 11.5392 28.0063 10.1586 28.0063ZM10.1586 23.4397C9.29824 23.4397 8.59832 24.1396 8.59832 25C8.59832 25.8603 9.29824 26.5602 10.1586 26.5602C11.0189 26.5602 11.7189 25.8603 11.7189 25C11.7189 24.1396 11.0189 23.4397 10.1586 23.4397Z" fill="#ED4D53"/>
<path d="M10.1586 22.1457C11.5371 22.1457 12.6897 23.1282 12.9549 24.429H16.4374V25.5707H12.9549C12.6894 26.8716 11.5365 27.854 10.1586 27.854C8.58462 27.854 7.30444 26.5738 7.30444 24.9999C7.30444 23.4259 8.58462 22.1457 10.1586 22.1457ZM10.1586 26.7123C11.1027 26.7123 11.8711 25.9439 11.8711 24.9999C11.8711 24.0558 11.1027 23.2874 10.1586 23.2874C9.21451 23.2874 8.4461 24.0558 8.4461 24.9999C8.4461 25.9439 9.21451 26.7123 10.1586 26.7123ZM10.1586 21.8413C8.41687 21.8413 7 23.2582 7 24.9999C7 26.7416 8.41687 28.1584 10.1586 28.1584C10.8902 28.1584 11.6038 27.9015 12.1679 27.4348C12.6593 27.0284 13.0173 26.4816 13.1933 25.8751H16.7418V24.1246H13.1933C13.0176 23.5182 12.6596 22.9714 12.1682 22.565C11.6038 22.0983 10.8902 21.8413 10.1586 21.8413ZM10.1586 26.4079C9.38226 26.4079 8.75054 25.7762 8.75054 24.9999C8.75054 24.2235 9.38226 23.5918 10.1586 23.5918C10.9349 23.5918 11.5666 24.2235 11.5666 24.9999C11.5666 25.7762 10.9349 26.4079 10.1586 26.4079Z" fill="#ED4D53"/>
<path d="M18.873 24.2769H17.4269V25.7229H18.873V24.2769Z" fill="#ED4D53"/>
<path d="M18.7208 24.429V25.5706H17.5791V24.429H18.7208ZM19.0252 24.1245H17.2747V25.875H19.0252V24.1245Z" fill="#ED4D53"/>
<path d="M32.5728 24.2769H31.1267V25.7229H32.5728V24.2769Z" fill="#ED4D53"/>
<path d="M32.4206 24.429V25.5706H31.2789V24.429H32.4206ZM32.725 24.1245H30.9745V25.875H32.725V24.1245Z" fill="#ED4D53"/>
<path d="M25.0001 42.8473C23.3425 42.8473 21.9938 41.4986 21.9938 39.841C21.9938 38.4603 22.9467 37.2526 24.2771 36.9229V33.4097H25.7232V36.9226C27.0536 37.2523 28.0065 38.46 28.0065 39.8407C28.0065 41.4983 26.6578 42.847 25.0001 42.847V42.8473ZM25.0001 38.2807C24.1398 38.2807 23.4399 38.9806 23.4399 39.841C23.4399 40.7013 24.1398 41.4012 25.0001 41.4012C25.8605 41.4012 26.5604 40.7013 26.5604 39.841C26.5604 38.9806 25.8605 38.2807 25.0001 38.2807Z" fill="#ED4D53"/>
<path d="M25.571 33.5623V37.0447C26.8719 37.3102 27.8543 38.4631 27.8543 39.841C27.8543 41.4147 26.5741 42.6951 25.0001 42.6951C23.4262 42.6951 22.146 41.4147 22.146 39.841C22.146 38.4625 23.1284 37.3099 24.4293 37.0447V33.5623H25.571ZM25.0001 41.5535C25.9442 41.5535 26.7126 40.7851 26.7126 39.841C26.7126 38.8969 25.9442 38.1285 25.0001 38.1285C24.0561 38.1285 23.2877 38.8969 23.2877 39.841C23.2877 40.7851 24.0561 41.5535 25.0001 41.5535ZM25.8754 33.2578H24.1249V36.8064C23.5184 36.982 22.9716 37.34 22.5652 37.8314C22.0985 38.3958 21.8416 39.1094 21.8416 39.841C21.8416 41.5827 23.2584 42.9996 25.0001 42.9996C26.7419 42.9996 28.1587 41.5827 28.1587 39.841C28.1587 39.1094 27.9018 38.3958 27.4351 37.8317C27.0286 37.3403 26.4819 36.9823 25.8754 36.8064V33.2578ZM25.0001 41.2491C24.2238 41.2491 23.5921 40.6173 23.5921 39.841C23.5921 39.0647 24.2238 38.433 25.0001 38.433C25.7765 38.433 26.4082 39.0647 26.4082 39.841C26.4082 40.6173 25.7765 41.2491 25.0001 41.2491Z" fill="#ED4D53"/>
<path d="M24.2771 16.5897V13.0767C22.9467 12.747 21.9938 11.5393 21.9938 10.1587C21.9938 8.50101 23.3425 7.15234 25.0001 7.15234C26.6578 7.15234 28.0065 8.50101 28.0065 10.1587C28.0065 11.5393 27.0536 12.747 25.7232 13.0767V16.5897H24.2771ZM25.0001 8.59813C24.1398 8.59813 23.4399 9.29803 23.4399 10.1584C23.4399 11.0187 24.1398 11.7186 25.0001 11.7186C25.8605 11.7186 26.5604 11.0187 26.5604 10.1584C26.5604 9.29803 25.8605 8.59813 25.0001 8.59813Z" fill="#ED4D53"/>
<path d="M25.0001 7.30444C26.5741 7.30444 27.8543 8.58491 27.8543 10.1586C27.8543 11.5371 26.8719 12.6897 25.571 12.9551V16.4376H24.4293V12.9551C23.1284 12.6897 22.146 11.5368 22.146 10.1586C22.146 8.58491 23.4262 7.30444 25.0001 7.30444ZM25.0001 11.871C25.9442 11.871 26.7126 11.1026 26.7126 10.1586C26.7126 9.21449 25.9442 8.44609 25.0001 8.44609C24.0561 8.44609 23.2877 9.21449 23.2877 10.1586C23.2877 11.1026 24.0561 11.871 25.0001 11.871ZM25.0001 7C23.2584 7 21.8416 8.41686 21.8416 10.1586C21.8416 10.8901 22.0985 11.6037 22.5652 12.1679C22.9716 12.6592 23.5184 13.0173 24.1249 13.1932V16.7418H25.8754V13.1932C26.4819 13.0176 27.0286 12.6595 27.4351 12.1682C27.9018 11.6037 28.1587 10.8901 28.1587 10.1586C28.1587 8.41686 26.7419 7 25.0001 7ZM25.0001 11.5666C24.2238 11.5666 23.5921 10.9349 23.5921 10.1586C23.5921 9.38224 24.2238 8.75053 25.0001 8.75053C25.7765 8.75053 26.4082 9.38224 26.4082 10.1586C26.4082 10.9349 25.7765 11.5666 25.0001 11.5666Z" fill="#ED4D53"/>
<path d="M25.7232 17.4268H24.2771V18.8728H25.7232V17.4268Z" fill="#ED4D53"/>
<path d="M25.571 17.5793V18.721H24.4293V17.5793H25.571ZM25.8754 17.2749H24.1249V19.0254H25.8754V17.2749Z" fill="#ED4D53"/>
<path d="M25.7232 31.1265H24.2771V32.5726H25.7232V31.1265Z" fill="#ED4D53"/>
<path d="M25.571 31.279V32.4207H24.4293V31.279H25.571ZM25.8754 30.9746H24.1249V32.7251H25.8754V30.9746Z" fill="#ED4D53"/>
<path d="M30.4357 18.5414L32.9199 16.0572C32.2124 14.8832 32.3926 13.3556 33.3687 12.3792C33.9355 11.8124 34.6906 11.5 35.4946 11.5C36.2986 11.5 37.0533 11.8124 37.6205 12.3792C38.7926 13.5513 38.7926 15.4586 37.6205 16.6307C37.0536 17.1976 36.2989 17.5096 35.4955 17.5096C34.9442 17.5096 34.4099 17.3614 33.9428 17.0795L31.4586 19.5637L30.436 18.5411L30.4357 18.5414ZM35.4946 12.9458C35.0772 12.9458 34.6854 13.1077 34.3913 13.4018C33.783 14.0101 33.783 15.0001 34.3913 15.6084C34.6854 15.9025 35.0772 16.0645 35.4946 16.0645C35.912 16.0645 36.3038 15.9025 36.5979 15.6084C37.2062 15.0001 37.2062 14.0101 36.5979 13.4018C36.3038 13.1077 35.912 12.9458 35.4946 12.9458Z" fill="#ED4D53"/>
<path d="M35.4946 11.6526C36.2252 11.6526 36.9565 11.9308 37.5127 12.4874C38.6254 13.6001 38.6254 15.4109 37.5127 16.5236C36.9562 17.0801 36.2258 17.3581 35.4952 17.3581C34.9456 17.3581 34.3961 17.2007 33.9209 16.8865L31.4583 19.3491L30.6509 18.5418L33.1135 16.0791C32.3813 14.9716 32.5019 13.4616 33.4764 12.4874C34.0329 11.9308 34.7636 11.6526 35.4946 11.6526ZM35.4946 16.217C35.9333 16.217 36.3717 16.0502 36.7053 15.7162C37.373 15.0486 37.373 13.9621 36.7053 13.2944C36.3717 12.9608 35.933 12.7936 35.4946 12.7936C35.0562 12.7936 34.6175 12.9605 34.2838 13.2944C33.6161 13.9621 33.6161 15.0486 34.2838 15.7162C34.6175 16.0499 35.0562 16.217 35.4946 16.217ZM35.4946 11.3481C34.65 11.3481 33.857 11.6763 33.2612 12.2718C32.7439 12.7891 32.4212 13.4753 32.3521 14.2044C32.2918 14.8392 32.4255 15.4791 32.7299 16.0323L30.4359 18.3262L30.2207 18.5414L30.4359 18.7567L31.2433 19.5641L31.4586 19.7793L31.6738 19.5641L33.9678 17.2701C34.4336 17.5274 34.9566 17.6622 35.4955 17.6622C36.3397 17.6622 37.1328 17.3343 37.7283 16.7389C38.324 16.1431 38.6519 15.35 38.6519 14.5055C38.6519 13.661 38.3237 12.8679 37.7283 12.2721C37.1325 11.6763 36.3394 11.3484 35.4949 11.3484L35.4946 11.3481ZM35.4946 15.9126C35.118 15.9126 34.7642 15.7665 34.499 15.501C34.2336 15.2355 34.0874 14.8821 34.0874 14.5055C34.0874 14.1289 34.2336 13.7751 34.499 13.51C34.7645 13.2448 35.118 13.0984 35.4946 13.0984C35.8712 13.0984 36.2249 13.2445 36.4901 13.51C36.7556 13.7754 36.9017 14.1289 36.9017 14.5055C36.9017 14.8821 36.7556 15.2358 36.4901 15.501C36.2246 15.7662 35.8712 15.9126 35.4946 15.9126Z" fill="#ED4D53"/>
<path d="M14.5054 38.4992C13.7016 38.4992 12.9466 38.1869 12.3794 37.62C11.2073 36.4479 11.2073 34.5406 12.3794 33.3685C12.9463 32.8017 13.701 32.4896 14.5048 32.4896C15.0561 32.4896 15.5901 32.6379 16.0574 32.9198L18.5417 30.4355L19.5643 31.4582L17.08 33.9424C17.7876 35.1163 17.6076 36.644 16.6313 37.6203C16.0644 38.1872 15.3094 38.4995 14.5054 38.4995V38.4992ZM14.5054 33.9351C14.088 33.9351 13.6962 34.097 13.4021 34.3911C12.7938 34.9994 12.7938 35.9894 13.4021 36.5977C13.6962 36.8918 14.088 37.0538 14.5054 37.0538C14.9228 37.0538 15.3146 36.8918 15.6087 36.5977C15.9028 36.3036 16.0647 35.9118 16.0647 35.4944C16.0647 35.077 15.9028 34.6852 15.6087 34.3911C15.3146 34.097 14.9228 33.9351 14.5054 33.9351Z" fill="#ED4D53"/>
<path d="M18.5417 30.6505L19.3491 31.4579L16.8864 33.9205C17.6186 35.028 17.498 36.5381 16.5235 37.5123C15.967 38.0688 15.2363 38.3471 14.5054 38.3471C13.7744 38.3471 13.0438 38.0688 12.4872 37.5123C11.3745 36.3995 11.3745 34.5887 12.4872 33.476C13.0438 32.9195 13.7741 32.6415 14.5048 32.6415C15.0543 32.6415 15.6038 32.7989 16.079 33.1131L18.5417 30.6505ZM14.5054 37.2057C14.9441 37.2057 15.3825 37.0389 15.7161 36.7049C16.3838 36.0373 16.3838 34.9507 15.7161 34.2831C15.3825 33.9494 14.9438 33.7823 14.5054 33.7823C14.067 33.7823 13.6283 33.9491 13.2946 34.2831C12.627 34.9507 12.627 36.0373 13.2946 36.7049C13.6283 37.0386 14.067 37.2057 14.5054 37.2057ZM18.5417 30.22L18.3264 30.4353L16.0325 32.7292C15.567 32.472 15.0436 32.3371 14.5048 32.3371C13.6606 32.3371 12.8675 32.665 12.272 33.2605C11.0405 34.4919 11.0405 36.4958 12.272 37.7272C12.8678 38.323 13.6609 38.6509 14.5054 38.6509C15.3499 38.6509 16.143 38.3227 16.7388 37.7272C17.256 37.21 17.5787 36.5238 17.6478 35.7946C17.7081 35.1596 17.5745 34.5199 17.27 33.9668L19.564 31.6728L19.7792 31.4576L19.564 31.2423L18.7566 30.435L18.5414 30.2197L18.5417 30.22ZM14.5054 36.9013C14.1288 36.9013 13.775 36.7551 13.5099 36.4897C12.9609 35.9408 12.9609 35.0475 13.5099 34.4983C13.7753 34.2329 14.1288 34.0867 14.5054 34.0867C14.882 34.0867 15.2357 34.2329 15.5009 34.4983C16.0498 35.0472 16.0498 35.9405 15.5009 36.4897C15.2354 36.7551 14.882 36.9013 14.5054 36.9013Z" fill="#ED4D53"/>
<path d="M20.1566 28.8212L19.134 29.8438L20.1566 30.8663L21.1791 29.8438L20.1566 28.8212Z" fill="#ED4D53"/>
<path d="M20.1564 29.0364L20.9638 29.8438L20.1564 30.6512L19.3491 29.8438L20.1564 29.0364ZM20.1564 28.606L19.9412 28.8212L19.1338 29.6286L18.9186 29.8438L19.1338 30.059L19.9412 30.8664L20.1564 31.0817L20.3717 30.8664L21.1791 30.059L21.3943 29.8438L21.1791 29.6286L20.3717 28.8212L20.1564 28.606Z" fill="#ED4D53"/>
<path d="M29.8435 19.1337L28.8209 20.1562L29.8435 21.1788L30.866 20.1562L29.8435 19.1337Z" fill="#ED4D53"/>
<path d="M29.8436 19.3489L30.651 20.1563L29.8436 20.9637L29.0362 20.1563L29.8436 19.3489ZM29.8436 18.9185L29.6283 19.1337L28.821 19.9411L28.6057 20.1563L28.821 20.3715L29.6283 21.1789L29.8436 21.3942L30.0588 21.1789L30.8662 20.3715L31.0814 20.1563L30.8662 19.9411L30.0588 19.1337L29.8436 18.9185Z" fill="#ED4D53"/>
<path d="M35.4946 38.4995C34.6906 38.4995 33.9358 38.1872 33.3687 37.6203C32.3923 36.644 32.2121 35.1163 32.9199 33.9424L30.4357 31.4582L31.4583 30.4355L33.9425 32.9198C34.4096 32.6382 34.9439 32.4899 35.4952 32.4899C36.2989 32.4899 37.0539 32.802 37.6205 33.3688C38.7926 34.5409 38.7926 36.4482 37.6205 37.6203C37.0536 38.1872 36.2986 38.4995 35.4946 38.4995ZM35.4946 33.9351C35.0772 33.9351 34.6854 34.097 34.3913 34.3911C34.0972 34.6852 33.9352 35.077 33.9352 35.4944C33.9352 35.9118 34.0972 36.3036 34.3913 36.5977C34.6854 36.8918 35.0772 37.0538 35.4946 37.0538C35.912 37.0538 36.3038 36.8918 36.5979 36.5977C37.2062 35.9894 37.2062 34.9994 36.5979 34.3911C36.3038 34.097 35.912 33.9351 35.4946 33.9351Z" fill="#ED4D53"/>
<path d="M31.4583 30.6507L33.9209 33.1133C34.3961 32.7991 34.9456 32.642 35.4952 32.642C36.2258 32.642 36.9568 32.92 37.513 33.4762C38.6257 34.5889 38.6257 36.3997 37.513 37.5125C36.9565 38.069 36.2258 38.3472 35.4949 38.3472C34.7639 38.3472 34.0332 38.069 33.4767 37.5125C32.5019 36.5376 32.3816 35.0282 33.1138 33.9207L30.6512 31.4581L31.4586 30.6507M35.4949 37.2059C35.9333 37.2059 36.372 37.0391 36.7056 36.7051C37.3733 36.0374 37.3733 34.9509 36.7056 34.2833C36.3717 33.9493 35.9333 33.7825 35.4949 33.7825C35.0565 33.7825 34.6178 33.9493 34.2841 34.2833C33.6165 34.9509 33.6165 36.0374 34.2841 36.7051C34.6181 37.0391 35.0565 37.2059 35.4949 37.2059ZM31.4586 30.2202L31.2433 30.4355L30.4359 31.2428L30.2207 31.4581L30.4359 31.6733L32.7299 33.9673C32.4255 34.5201 32.2918 35.1601 32.3518 35.7948C32.4209 36.5236 32.7439 37.2102 33.2612 37.7277C33.857 38.3235 34.65 38.6514 35.4946 38.6514C36.3391 38.6514 37.1322 38.3232 37.7279 37.7277C38.3237 37.1319 38.6516 36.3388 38.6516 35.4943C38.6516 34.6498 38.3234 33.8567 37.7279 33.261C37.1325 32.6655 36.3394 32.3376 35.4949 32.3376C34.956 32.3376 34.433 32.4725 33.9675 32.7294L31.6735 30.4355L31.4583 30.2202H31.4586ZM35.4949 36.9015C35.1183 36.9015 34.7645 36.7553 34.4993 36.4898C33.9504 35.9409 33.9504 35.0477 34.4993 34.4985C34.7648 34.233 35.1183 34.0869 35.4949 34.0869C35.8715 34.0869 36.2252 34.233 36.4904 34.4985C36.7559 34.764 36.902 35.1174 36.902 35.494C36.902 35.8706 36.7559 36.2244 36.4904 36.4895C36.2249 36.755 35.8715 36.9011 35.4949 36.9011V36.9015Z" fill="#ED4D53"/>
<path d="M16.0577 17.0801C15.5907 17.3617 15.0564 17.5099 14.5054 17.5099C13.7014 17.5099 12.9467 17.1979 12.3801 16.631C11.8135 16.0642 11.5009 15.3091 11.5009 14.5051C11.5009 13.7011 11.8132 12.9464 12.3801 12.3792C12.947 11.8124 13.702 11.5 14.506 11.5C15.31 11.5 16.0647 11.8124 16.6319 12.3792C17.6083 13.3556 17.7882 14.8832 17.0807 16.0572L19.5649 18.5414L18.5423 19.564L16.0581 17.0798L16.0577 17.0801ZM14.5054 12.9458C14.088 12.9458 13.6962 13.1077 13.4021 13.4018C12.7938 14.0101 12.7938 15.0001 13.4021 15.6084C13.6962 15.9025 14.088 16.0645 14.5054 16.0645C14.9228 16.0645 15.3146 15.9025 15.6087 15.6084C15.9028 15.3143 16.0647 14.9225 16.0647 14.5051C16.0647 14.0877 15.9028 13.6959 15.6087 13.4018C15.3146 13.1077 14.9228 12.9458 14.5054 12.9458Z" fill="#ED4D53"/>
<path d="M14.5054 11.6526C15.2364 11.6526 15.9671 11.9308 16.5236 12.4874C17.4984 13.4622 17.6187 14.9716 16.8865 16.0791L19.3491 18.5418L18.5417 19.3491L16.0791 16.8865C15.6039 17.2007 15.0543 17.3578 14.5048 17.3578C13.7742 17.3578 13.0432 17.0798 12.487 16.5236C11.3743 15.4109 11.3743 13.6001 12.487 12.4874C13.0435 11.9308 13.7742 11.6526 14.5051 11.6526M14.5051 16.2167C14.9438 16.2167 15.3822 16.0499 15.7159 15.7159C16.3835 15.0483 16.3835 13.9618 15.7159 13.2941C15.3819 12.9602 14.9435 12.7933 14.5051 12.7933C14.0667 12.7933 13.628 12.9602 13.2944 13.2941C12.6267 13.9618 12.6267 15.0483 13.2944 15.7159C13.628 16.0496 14.0667 16.2167 14.5051 16.2167ZM14.5051 11.3481C13.6606 11.3481 12.8675 11.6763 12.2717 12.2718C11.0403 13.5033 11.0403 15.5071 12.2717 16.7386C12.8672 17.334 13.6603 17.6619 14.5048 17.6619C15.0437 17.6619 15.5667 17.5271 16.0322 17.2701L18.3262 19.5641L18.5414 19.7793L18.7567 19.5641L19.5641 18.7567L19.7793 18.5414L19.5641 18.3262L17.2701 16.0323C17.5745 15.4794 17.7082 14.8395 17.6482 14.2047C17.5791 13.4759 17.2561 12.7894 16.7388 12.2721C16.143 11.6763 15.35 11.3484 14.5054 11.3484L14.5051 11.3481ZM14.5051 15.9123C14.1285 15.9123 13.7748 15.7662 13.5096 15.5007C12.9607 14.9518 12.9607 14.0586 13.5096 13.5094C13.7751 13.2439 14.1285 13.0978 14.5051 13.0978C14.8817 13.0978 15.2355 13.2439 15.5007 13.5094C15.7661 13.7748 15.9123 14.1283 15.9123 14.5049C15.9123 14.8815 15.7661 15.2352 15.5007 15.5004C15.2352 15.7659 14.8817 15.912 14.5051 15.912V15.9123Z" fill="#ED4D53"/>
<path d="M20.1566 19.1337L19.134 20.1562L20.1566 21.1788L21.1791 20.1562L20.1566 19.1337Z" fill="#ED4D53"/>
<path d="M20.1564 19.3489L20.9638 20.1563L20.1564 20.9637L19.3491 20.1563L20.1564 19.3489ZM20.1564 18.9185L19.9412 19.1337L19.1338 19.9411L18.9186 20.1563L19.1338 20.3715L19.9412 21.1789L20.1564 21.3942L20.3717 21.1789L21.1791 20.3715L21.3943 20.1563L21.1791 19.9411L20.3717 19.1337L20.1564 18.9185Z" fill="#ED4D53"/>
<path d="M29.8436 28.8207L28.821 29.8433L29.8436 30.8658L30.8661 29.8433L29.8436 28.8207Z" fill="#ED4D53"/>
<path d="M29.8436 29.0364L30.651 29.8438L29.8436 30.6512L29.0362 29.8438L29.8436 29.0364ZM29.8436 28.606L29.6283 28.8212L28.821 29.6286L28.6057 29.8438L28.821 30.059L29.6283 30.8664L29.8436 31.0817L30.0588 30.8664L30.8662 30.059L31.0814 29.8438L30.8662 29.6286L30.0588 28.8212L29.8436 28.606Z" fill="#ED4D53"/>
<path d="M27.9684 25.4822C28.2344 23.8433 27.1215 22.2991 25.4826 22.033C23.8436 21.767 22.2994 22.8799 22.0333 24.5188C21.7673 26.1577 22.8802 27.702 24.5192 27.968C26.1581 28.2341 27.7024 27.1211 27.9684 25.4822Z" fill="#ED4D53"/>
<path d="M25.0001 22.1457C26.5765 22.1457 27.8543 23.4235 27.8543 24.9999C27.8543 26.5763 26.5765 27.854 25.0001 27.854C23.4237 27.854 22.146 26.5763 22.146 24.9999C22.146 23.4235 23.4237 22.1457 25.0001 22.1457ZM25.0001 21.8413C23.2584 21.8413 21.8416 23.2582 21.8416 24.9999C21.8416 26.7416 23.2584 28.1584 25.0001 28.1584C26.7419 28.1584 28.1587 26.7416 28.1587 24.9999C28.1587 23.2582 26.7419 21.8413 25.0001 21.8413Z" fill="#ED4D53"/>
</g>
<rect x="1" y="1" width="48" height="48" rx="24" stroke="#EE4E54" stroke-width="2"/>
<defs>
<clipPath id="clip0_441_35998">
<rect width="36" height="36" fill="white" transform="translate(7 7)"/>
</clipPath>
</defs>
</svg>
