<svg width="58" height="58" viewBox="0 0 58 58" fill="none" xmlns="http://www.w3.org/2000/svg">
<path d="M42.11 15.8899C39.602 15.8899 37.55 17.9419 37.55 20.4499C37.55 21.8558 38.158 23.0719 39.1459 23.9079L35.6119 31.1279C35.384 31.0899 35.156 31.0519 34.8899 31.0519C34.1299 31.0519 33.4458 31.2419 32.7999 31.546L27.2519 27.176C27.746 26.454 28.0499 25.5801 28.0499 24.6301C28.0499 22.1221 25.9978 20.0701 23.4899 20.0701C20.9819 20.0701 18.9299 22.1221 18.9299 24.6301C18.9299 25.998 19.5378 27.2141 20.4878 28.0501L17.2198 33.1801C16.8019 33.066 16.3458 32.9901 15.8898 32.9901C13.3819 32.9901 11.3298 35.0421 11.3298 37.5501C11.3298 40.058 13.3819 42.1101 15.8898 42.1101C18.3978 42.1101 20.4498 40.058 20.4498 37.5501C20.4498 36.3341 19.9558 35.1941 19.1578 34.396L22.5018 29.114C22.8059 29.19 23.1477 29.2281 23.4898 29.2281C24.2118 29.2281 24.8957 29.0381 25.5038 28.734L31.0518 33.18C30.5578 33.902 30.2918 34.7759 30.2918 35.688C30.2918 38.1959 32.3439 40.248 34.8518 40.248C37.3598 40.248 39.4118 38.1959 39.4118 35.688C39.4118 34.2439 38.7278 32.952 37.6639 32.116L41.1599 24.972C41.4639 25.0479 41.7678 25.0479 42.0719 25.0479C44.5799 25.0479 46.6319 22.9959 46.6319 20.4879C46.6319 17.9802 44.6178 15.8902 42.1099 15.8902L42.11 15.8899ZM15.89 39.8299C14.6359 39.8299 13.61 38.804 13.61 37.5499C13.61 36.2958 14.6359 35.2699 15.89 35.2699C17.1441 35.2699 18.17 36.2958 18.17 37.5499C18.17 38.804 17.1441 39.8299 15.89 39.8299ZM21.21 24.6299C21.21 23.3758 22.2359 22.3499 23.49 22.3499C24.7441 22.3499 25.77 23.3758 25.77 24.6299C25.77 25.884 24.7441 26.9099 23.49 26.9099C22.2359 26.9099 21.21 25.884 21.21 24.6299ZM34.89 37.9299C33.6359 37.9299 32.61 36.904 32.61 35.6499C32.61 34.3958 33.6359 33.3699 34.89 33.3699C36.1441 33.3699 37.17 34.3958 37.17 35.6499C37.17 36.904 36.1441 37.9299 34.89 37.9299ZM42.11 22.7299C40.8559 22.7299 39.83 21.704 39.83 20.4499C39.83 19.1958 40.8559 18.1699 42.11 18.1699C43.3641 18.1699 44.39 19.1958 44.39 20.4499C44.39 21.704 43.3641 22.7299 42.11 22.7299Z" fill="#ED4D53"/>
<rect x="1" y="1" width="56" height="56" rx="28" stroke="#EE4E54" stroke-width="2"/>
</svg>
