<svg width="50" height="50" viewBox="0 0 50 50" fill="none" xmlns="http://www.w3.org/2000/svg">
<g clip-path="url(#clip0_441_35803)">
<path d="M35.973 32.2154L35.9731 32.2153L36.0884 32.3306C36.3695 32.6114 36.5244 32.9856 36.5244 33.3826C36.5244 33.7798 36.3695 34.1539 36.0886 34.4347L36.0885 34.4348M35.973 32.2154L36.0002 34.3464L36.0885 34.4348M35.973 32.2154L30.7536 26.9961C30.4727 26.715 30.0988 26.5604 29.7016 26.5604C29.3043 26.5604 28.9304 26.715 28.6496 26.996C28.6496 26.996 28.6495 26.996 28.6495 26.9961L28.3298 27.3158M35.973 32.2154L28.3298 27.3158M36.0885 34.4348L34.4343 36.089L36.0885 34.4348ZM32.3301 36.0891C32.6109 36.3701 32.985 36.525 33.382 36.525C33.7793 36.525 34.1534 36.3701 34.4343 36.089L26.8084 15.8665M32.3301 36.0891L32.4184 36.0007L32.33 36.0891M32.3301 36.0891C32.33 36.0891 32.33 36.0891 32.33 36.0891M32.3301 36.0891L32.33 36.0891M32.33 36.0891L26.9953 30.7544C26.9953 30.7544 26.9953 30.7543 26.9953 30.7543C26.7142 30.4735 26.5596 30.0996 26.5596 29.7023C26.5596 29.3051 26.7142 28.9312 26.9953 28.6503C26.9953 28.6503 26.9953 28.6503 26.9953 28.6503L27.3151 28.3305L26.3666 27.382C24.9567 28.5592 23.1958 29.2003 21.337 29.2003C19.237 29.2003 17.2622 28.3823 15.7772 26.8973C14.2925 25.4126 13.4744 23.4376 13.4744 21.3377C13.4744 19.2377 14.2925 17.2628 15.7774 15.7779M15.7774 15.7779L15.8658 15.8663L15.7774 15.7779C15.7774 15.7779 15.7774 15.7779 15.7774 15.7779ZM15.7774 15.7779C17.262 14.2932 19.237 13.4751 21.337 13.4751C23.4369 13.4751 25.4119 14.2932 26.8966 15.7779L26.8967 15.778L26.8968 15.7781M26.8968 15.7781L26.8084 15.8665M26.8968 15.7781L26.8969 15.7783L26.8084 15.8665M26.8968 15.7781C28.3815 17.2628 29.1996 19.2378 29.1996 21.3377C29.1996 23.1965 28.5586 24.9574 27.3813 26.3673M26.8084 15.8665C28.2697 17.3277 29.0746 19.2709 29.0746 21.3377C29.0746 23.2057 28.417 24.9726 27.2115 26.3743M27.3813 26.3673L27.2999 26.2859L27.2115 26.3743M27.3813 26.3673L28.3298 27.3158M27.3813 26.3673C27.3565 26.397 27.3315 26.4265 27.3063 26.4558L27.2115 26.3743M27.2115 26.3743L28.3298 27.3158M33.4195 35.0743L35.0621 33.4317L35.0735 33.4203C35.0938 33.4 35.0939 33.3662 35.0736 33.3457L33.4195 35.0743ZM33.4195 35.0743C33.4195 35.0743 33.4194 35.0744 33.4193 35.0745C33.3988 35.0947 33.3654 35.0949 33.3445 35.0743C33.3445 35.0743 33.3444 35.0742 33.3444 35.0742L28.01 29.7398C27.9897 29.7195 27.9896 29.6859 28.0099 29.6654C28.01 29.6653 28.01 29.6653 28.0101 29.6652L29.6642 28.0112C29.6744 28.001 29.6877 27.9958 29.7016 27.9958C29.7155 27.9958 29.7287 28.0009 29.739 28.0111C29.739 28.0111 29.739 28.0111 29.7391 28.0112L35.0734 33.3455L33.4195 35.0743ZM16.7922 25.8824L16.7921 25.8824C15.578 24.6685 14.9098 23.0549 14.9098 21.3378C14.9098 19.6208 15.578 18.0071 16.7924 16.793L16.7924 16.793C18.0063 15.5788 19.6199 14.9106 21.337 14.9106C23.0533 14.9106 24.6663 15.5783 25.88 16.7914C25.8806 16.7919 25.8811 16.7925 25.8816 16.793L25.8819 16.7932C25.8821 16.7935 25.8824 16.7937 25.8826 16.794C27.0963 18.0078 27.7642 19.6211 27.7642 21.3378C27.7642 23.0548 27.096 24.6685 25.8816 25.8826L25.8816 25.8826C24.6677 27.0968 23.0541 27.765 21.337 27.765H21.329C19.615 27.7629 18.0044 27.0949 16.7922 25.8824ZM25.97 16.8296C25.9713 16.8296 25.9706 16.8296 25.9687 16.8296H25.97ZM25.8452 16.7061C25.8452 16.7042 25.8452 16.7035 25.8452 16.7048V16.7061Z" fill="#ED4D53" stroke="#EE4E54" stroke-width="0.25"/>
</g>
<rect x="1" y="1" width="48" height="48" rx="24" stroke="#EE4E54" stroke-width="2"/>
<defs>
<clipPath id="clip0_441_35803">
<rect width="24" height="24" fill="white" transform="translate(13 13)"/>
</clipPath>
</defs>
</svg>
