<svg width="50" height="50" viewBox="0 0 50 50" fill="none" xmlns="http://www.w3.org/2000/svg">
<path d="M19.0944 24.2288C19.0322 23.8282 19 23.4179 19 23C19 18.5817 22.6052 15 27.0526 15C31.4999 15 35.1052 18.5817 35.1052 23C35.1052 23.9981 34.9213 24.9535 34.5852 25.8345C34.5154 26.0175 34.4804 26.109 34.4646 26.1804C34.4489 26.2512 34.4428 26.301 34.4411 26.3735C34.4394 26.4466 34.4493 26.5272 34.4692 26.6883L34.8717 29.9585C34.9153 30.3125 34.9371 30.4895 34.8782 30.6182C34.8266 30.731 34.735 30.8205 34.6211 30.8695C34.4911 30.9254 34.3146 30.8995 33.9617 30.8478L30.7765 30.3809C30.6101 30.3565 30.527 30.3443 30.4512 30.3448C30.3763 30.3452 30.3245 30.3507 30.2511 30.3661C30.177 30.3817 30.0823 30.4172 29.893 30.4881C29.0097 30.819 28.0524 31 27.0526 31C26.6344 31 26.2237 30.9683 25.8227 30.9073M20.6316 35C23.5965 35 26 32.5376 26 29.5C26 26.4624 23.5965 24 20.6316 24C17.6667 24 15.2632 26.4624 15.2632 29.5C15.2632 30.1106 15.3603 30.6979 15.5395 31.2467C15.6153 31.4787 15.6532 31.5947 15.6657 31.6739C15.6786 31.7567 15.6809 31.8031 15.6761 31.8867C15.6714 31.9668 15.6514 32.0573 15.6113 32.2383L15 35L17.9948 34.591C18.1583 34.5687 18.24 34.5575 18.3114 34.558C18.3865 34.5585 18.4264 34.5626 18.5001 34.5773C18.5701 34.5912 18.6742 34.6279 18.8823 34.7014C19.4306 34.8949 20.0191 35 20.6316 35Z" stroke="#EE4E54" stroke-width="2" stroke-linecap="round" stroke-linejoin="round"/>
<rect x="1" y="1" width="48" height="48" rx="24" stroke="#EE4E54" stroke-width="2"/>
</svg>
