<svg width="50" height="50" viewBox="0 0 50 50" fill="none" xmlns="http://www.w3.org/2000/svg">
<path d="M23.424 37.468C20.328 37.468 17.988 36.064 16.548 33.976C16.368 33.724 16.404 33.544 16.656 33.328L17.736 32.356C17.952 32.14 18.132 32.176 18.312 32.428C19.176 33.58 20.76 35.056 23.388 35.056C26.556 35.056 28.716 32.896 28.716 29.908C28.716 26.596 26.088 24.652 23.064 24.652H22.452C22.092 24.652 21.948 24.544 21.948 24.256V22.924C21.948 22.6 22.092 22.456 22.452 22.456H23.064C25.908 22.456 27.708 20.476 27.708 18.028C27.708 15.688 26.052 13.924 23.46 13.924C21.408 13.924 20.004 15.04 19.104 16.48C18.888 16.768 18.672 16.768 18.42 16.552L17.376 15.58C17.196 15.4 17.232 15.22 17.376 14.968C18.528 13.096 20.724 11.512 23.676 11.512C27.492 11.512 30.228 14.14 30.228 17.632C30.228 20.26 28.788 22.276 26.448 23.428C29.256 24.364 31.344 26.704 31.344 30.124C31.344 34.336 28.068 37.468 23.424 37.468Z" fill="#EE4E54"/>
<rect x="1" y="1" width="48" height="48" rx="24" stroke="#EE4E54" stroke-width="2"/>
</svg>
