<svg width="320" height="196" viewBox="0 0 320 196" fill="none" xmlns="http://www.w3.org/2000/svg">
<g clip-path="url(#clip0_47_32812)">
<rect width="320" height="196" fill="white"/>
<rect width="1440" height="256" transform="translate(-560 48)" fill="white"/>
<path d="M20.8956 377.396C97.4581 458.631 160.417 547.058 210.611 639.589C581.688 616.068 718.413 28.4609 547.059 -292.849C523.13 -23.8457 197.889 170.22 -223.34 150.75C-334.398 145.616 -442.062 126.039 -540.818 94.8807C-521.634 138.526 -495.351 185.107 -463.515 231.944C-364.427 241.217 -267.005 255.628 -172.057 276.181C-93.7281 293.359 -24.4263 329.936 20.8956 377.396Z" fill="#51BAEA"/>
<path d="M-33.8653 376.538C23.4782 472.312 65.9908 572.191 95.1565 673.338C462.634 730.008 722.287 185.438 623.887 -165.161C542.782 92.438 183.469 212.177 -223.765 102.754C-331.134 73.9044 -432.087 31.6767 -521.854 -19.9513C-512.485 26.7942 -496.812 77.9304 -475.77 130.509C-380.981 160.833 -288.922 195.817 -200.598 236.27C-127.782 269.859 -67.9448 320.456 -33.8653 376.538Z" fill="#1F2334E5
"/>
</g>
<defs>
<clipPath id="clip0_47_32812">
<rect width="320" height="196" fill="white"/>
</clipPath>
</defs>
</svg>
