<svg width="1920" height="246" viewBox="0 0 1920 246" fill="none" xmlns="http://www.w3.org/2000/svg">
<g clip-path="url(#clip0_47_32266)">
<rect width="1920" height="246" fill="white"/>
<rect width="1926" height="189" transform="translate(-3)" fill="white"/>
<path d="M56.1005 1036.48C-238.081 1353.31 -479.367 1697.61 -671.1 2057.42C-2108.95 1977.03 -2655.44 -294.813 -2001.06 -1544.19C-1900.62 -503.031 -635.371 239.199 995.48 151.636C1425.46 128.55 1841.87 49.6236 2223.45 -73.9024C2150.42 95.6887 2049.97 276.853 1928.02 459.172C1544.52 497.946 1167.62 556.568 800.481 638.911C497.611 707.702 230.262 851.361 56.1005 1036.48Z" fill="#51BAEA"/>
<path d="M-12.7842 1039.66C-331.573 1331.72 -599.854 1655.42 -819.998 1998.59C-2246.67 1802.44 -2608.05 -506.097 -1854.99 -1698.59C-1838.89 -652.725 -637.664 189.183 994.934 233.506C1425.37 245.193 1846.8 200.126 2237.1 107.794C2150.62 270.938 2035.88 443.406 1899.61 615.29C1514.24 622.991 1133.84 651.008 761.251 703.457C453.818 747.584 175.748 869.2 -12.7842 1039.66Z" fill="#1F2334E5
"/>
</g>
<defs>
<clipPath id="clip0_47_32266">
<rect width="1920" height="246" fill="white"/>
</clipPath>
</defs>
</svg>
