<svg width="768" height="196" viewBox="0 0 768 196" fill="none" xmlns="http://www.w3.org/2000/svg">
<g clip-path="url(#clip0_47_32505)">
<rect width="768" height="196" fill="white"/>
<rect width="1440" height="256" transform="translate(-336 48)" fill="white"/>
<path d="M215.606 395.649C285.708 508.245 338.275 626.024 375.012 745.585C812.747 805.323 1109.97 153.011 985.837 -261.472C894.801 46.2318 470.407 195.9 -15.648 74.3122C-143.798 42.2552 -264.603 -5.82751 -372.313 -65.3085C-360.217 -9.96806 -340.541 50.4585 -314.458 112.488C-201.222 146.556 -91.1335 186.216 14.631 232.451C101.831 270.852 173.962 329.727 215.606 395.649Z" fill="#51BAEA"/>
<path d="M177.31 408.955C233.1 529.286 270.853 652.614 292.676 775.774C719.805 888.651 1094.66 277.633 1022.19 -148.928C894.173 145.315 454.649 241.902 -12.8653 61.7242C-136.127 14.2196 -250.136 -48.2907 -349.754 -120.51C-344.525 -64.1055 -332.394 -1.72472 -314.101 63.0314C-205.888 110.706 -101.483 163.545 -2.17399 222.38C79.6687 271.167 144.049 338.43 177.31 408.955Z" fill="#1F2334E5
"/>
</g>
<defs>
<clipPath id="clip0_47_32505">
<rect width="768" height="196" fill="white"/>
</clipPath>
</defs>
</svg>
