<svg width="1280" height="239" viewBox="0 0 1280 239" fill="none" xmlns="http://www.w3.org/2000/svg">
<g clip-path="url(#clip0_47_32045)">
<rect width="1280" height="239" fill="white"/>
<rect width="1440" height="189" transform="translate(-80)" fill="white"/>
<path d="M1137.55 744.881C1363.38 944.383 1554.41 1166.57 1712.13 1402.93C2703.83 1248.27 2926.57 -364.966 2386.78 -1186.46C2388.74 -457.453 1562.28 144.357 425.177 195.812C125.375 209.378 -168.86 183.283 -442.004 123.859C-379.682 236.456 -297.552 355.193 -200.432 473.252C68.2121 473.763 333.643 488.495 593.937 520.349C808.726 547.225 1004.03 628.469 1137.55 744.881Z" fill="#51BAEA"/>
<path d="M1063.56 853.181C1262.85 1079.2 1424.78 1323.4 1551.92 1577.53C2555.15 1547.29 2976.62 -25.7709 2543.09 -907.968C2454.45 -184.369 1559.61 310.086 424.928 219.85C125.764 196.06 -162.947 133.606 -426.591 40.7039C-378.743 160.171 -312.004 288.194 -230.306 417.405C36.1935 451.293 297.737 498.892 552.056 562.842C761.84 616.199 945.535 721.08 1063.56 853.181Z" fill="#1F2334E5
"/>
</g>
<defs>
<clipPath id="clip0_47_32045">
<rect width="1280" height="239" fill="white"/>
</clipPath>
</defs>
</svg>
