<svg width="375" height="196" viewBox="0 0 375 196" fill="none" xmlns="http://www.w3.org/2000/svg">
<g clip-path="url(#clip0_47_44497)">
<rect width="375" height="196" fill="white"/>
<rect width="1440" height="256" transform="translate(-532.5 48)" fill="white"/>
<path d="M48.3956 377.396C124.958 458.631 187.917 547.058 238.111 639.589C609.188 616.068 745.913 28.4609 574.559 -292.849C550.63 -23.8457 225.389 170.22 -195.84 150.75C-306.898 145.616 -414.562 126.039 -513.318 94.8807C-494.134 138.526 -467.851 185.107 -436.015 231.944C-336.927 241.217 -239.505 255.628 -144.557 276.181C-66.2281 293.359 3.0737 329.936 48.3956 377.396Z" fill="#51BAEA"/>
<path d="M-6.36531 376.538C50.9782 472.312 93.4908 572.191 122.656 673.338C490.134 730.008 749.787 185.438 651.387 -165.161C570.282 92.438 210.969 212.177 -196.265 102.754C-303.634 73.9044 -404.587 31.6767 -494.354 -19.9513C-484.985 26.7942 -469.312 77.9304 -448.27 130.509C-353.481 160.833 -261.422 195.817 -173.098 236.27C-100.282 269.859 -40.4448 320.456 -6.36531 376.538Z" fill="#1F2334E5
"/>
</g>
<defs>
<clipPath id="clip0_47_44497">
<rect width="375" height="196" fill="white"/>
</clipPath>
</defs>
</svg>
