<svg width="57" height="56" viewBox="0 0 57 56" fill="none" xmlns="http://www.w3.org/2000/svg">
<rect x="0.666992" width="56" height="56" rx="12" fill="#E6EFF5"/>
<path d="M36.6192 24.5266L35.7512 25.3946C36.3672 26.6546 36.7032 28.0826 36.7032 29.5946C36.7032 34.9146 32.3912 39.2266 27.0712 39.2266C21.8072 39.1986 17.4672 34.8866 17.4672 29.5666C17.4672 24.2466 21.7792 19.9346 27.0992 19.9346C28.6112 19.9346 30.0112 20.2706 31.2712 20.8866L32.1392 20.0186V18.9546C30.5992 18.2266 28.8912 17.8066 27.0992 17.8066C20.6312 17.8066 15.3672 23.0706 15.3672 29.5386C15.3672 36.0066 20.6312 41.2706 27.0992 41.2706C33.5672 41.2706 38.8312 36.0066 38.8312 29.5386C38.8312 27.7466 38.4112 26.0386 37.6832 24.4986L36.6192 24.5266Z" fill="#51BAEA"/>
<path d="M27.099 24.2745C27.351 24.2745 27.603 24.3025 27.855 24.3305L29.591 22.5945C28.807 22.2865 27.995 22.1465 27.099 22.1465C23.011 22.1745 19.707 25.4785 19.707 29.5665C19.707 33.6545 23.011 36.9865 27.127 36.9865C31.215 36.9865 34.547 33.6545 34.547 29.5665C34.547 28.6985 34.379 27.8585 34.099 27.0745L32.363 28.8105C32.419 29.0625 32.419 29.3145 32.419 29.5665C32.419 32.4785 30.039 34.8585 27.127 34.8585C24.187 34.8585 21.807 32.4785 21.807 29.5665C21.807 26.6545 24.187 24.2745 27.099 24.2745Z" fill="#51BAEA"/>
<path d="M41.9115 18.6752C41.7995 18.3672 41.4915 18.1992 41.1835 18.1992H38.4955V15.4832C38.4955 15.1752 38.2995 14.8672 38.0195 14.7552C37.7115 14.6432 37.3755 14.6992 37.1515 14.9232L34.4915 17.5832C34.3515 17.7232 34.2675 17.9192 34.2675 18.1432V20.9152L28.3875 26.7672C27.9955 26.5712 27.5475 26.4592 27.0995 26.4592C25.3915 26.4592 24.0195 27.8312 24.0195 29.5392C24.0195 31.2472 25.3915 32.6192 27.0995 32.6192C28.8075 32.6192 30.1795 31.2472 30.1795 29.5392C30.1795 29.0632 30.0675 28.6432 29.8715 28.2512L35.7515 22.3992H38.5235C38.7195 22.3992 38.9435 22.3152 39.0835 22.1752L41.7435 19.5152C41.9675 19.2912 42.0235 18.9552 41.9115 18.6752Z" fill="#51BAEA"/>
</svg>
