<svg width="375" height="682" viewBox="0 0 375 682" fill="none" xmlns="http://www.w3.org/2000/svg">
<rect width="375" height="64" fill="#51BAEA"/>
<path d="M132.094 249.64C178.288 325.022 237.078 189.132 261 268.999C552.491 310.885 729.383 92.1337 648.597 -184.727C586.463 19.9436 302.876 117.7 -20.5306 34.3598C-105.798 12.3868 -186.093 -20.2334 -257.606 -60.3895C-249.806 -23.4451 -167.093 -24.9116 -150 16.5574C-74.6832 39.8004 -71.3742 108.593 -1.09519 139.911C56.8465 165.919 104.647 205.503 132.094 249.64Z" fill="#1F2334E5
"/>
<path d="M-145.431 471.963C-36.0749 570.818 602.035 357.269 676.013 471.962C1181.78 421.117 1384.36 -36.0174 1131.5 -434.453C1114.44 -91.4203 681.228 173.457 104.425 172.53C-47.651 172.286 -195.927 153.504 -332.703 119.508C-303.949 173.861 -265.321 231.542 -219.089 289.234C-83.1318 295.413 -260.372 291.078 -129.417 311.819C-21.3706 329.211 -210.129 414.24 -145.431 471.963Z" fill="white"/>
</svg>
