<svg width="1440" height="643" viewBox="0 0 1440 643" fill="none" xmlns="http://www.w3.org/2000/svg">
<g clip-path="url(#clip0_47_44167)">
<rect width="1440" height="643" fill="#51BAEA"/>
<path d="M622.833 773.156C780.276 1030.08 897.801 1298.5 979.335 1570.7C1972.81 1713.46 2658.56 236.333 2383.21 -707.282C2171.45 -9.71073 1204.9 323.471 102.646 39.4237C-187.968 -35.4663 -461.637 -146.645 -705.373 -283.508C-678.786 -157.591 -396.878 -162.59 -338.62 -21.2519C-81.9212 57.9666 -70.6431 292.431 168.887 399.169C366.368 487.812 529.286 622.725 622.833 773.156Z" fill="#1F2334E5
"/>
<path d="M-347.335 625.296C-175.133 886.638 1250.01 787.044 1341.07 1062.13C2407.66 1226.57 3067.15 394.702 2759.3 -558.714C2541.81 137.286 1510.53 451.346 325.456 142.708C13.0063 61.3345 -281.774 -56.1201 -544.827 -198.731C-514.629 -71.7219 -465.907 67.3764 -401.562 210.544C-125.398 295.544 -487.394 192.38 -229.257 304.65C-16.427 397.857 -449.621 472.248 -347.335 625.296Z" fill="white"/>
</g>
<defs>
<clipPath id="clip0_47_44167">
<rect width="1440" height="643" fill="white"/>
</clipPath>
</defs>
</svg>
