<svg width="1440" height="920" viewBox="0 0 1440 920" fill="none" xmlns="http://www.w3.org/2000/svg">
<g clip-path="url(#clip0_250_53282)">
<rect width="1440" height="920" fill="#51BAEA"/>
<rect width="1440" height="308" fill="#1F2334E5
"/>
<path d="M460.089 929.213C627.37 1179.84 755.209 1443.5 847.23 1712.35C1845.5 1816.5 2473.48 313.905 2161.78 -618.331C1977.2 86.9226 1024.3 457.309 -88.1404 216.189C-381.438 152.617 -659.209 52.1273 -908.066 -75.1875C-876.62 49.6043 -595.117 33.6851 -531.426 172.659C-271.85 241.871 -251.495 475.722 -8.00806 573.098C192.76 654.021 360.784 782.519 460.089 929.213Z" fill="#51BAEA"/>
<path d="M1621.58 870.565C1033.53 595.469 337.435 746.037 -196.046 1006.37C10.2068 1130.73 222.259 1239.85 440.324 1330.03C623.779 1406.05 820.72 1418.27 989.148 1366.7C1278.21 1278.77 1553.77 1152.75 1812.04 997.537C1758.08 947.013 1696.25 904.544 1621.58 870.565Z" fill="white"/>
</g>
<defs>
<clipPath id="clip0_250_53282">
<rect width="1440" height="920" fill="white"/>
</clipPath>
</defs>
</svg>
