<svg width="375" height="542" viewBox="0 0 375 542" fill="none" xmlns="http://www.w3.org/2000/svg">
<rect width="375" height="252" fill="#1F2334E5
"/>
<mask id="mask0_54_48484" style="mask-type:alpha" maskUnits="userSpaceOnUse" x="-1013" y="252" width="2401" height="509">
<path d="M-1012.5 252H1387.5V339.556L-1012.5 761V252Z" fill="#EAF3F9"/>
</mask>
<g mask="url(#mask0_54_48484)">
<path d="M-85.498 336.451C190.529 422.346 513.672 281.856 760.233 100.477C663.211 56.1749 563.602 20.1559 461.335 -5.67838C375.297 -27.4907 283.459 -15.6222 205.384 26.0738C71.3877 97.3294 -56.0356 186.724 -175.183 289.371C-149.662 310.108 -120.536 326.027 -85.498 336.451Z" fill="#1F2334E5
"/>
<path d="M-221.357 331.446C0.978427 469.306 344.497 400.531 632.22 277.221C558.942 215.291 480.442 160.746 395.999 115.389C324.984 77.1559 237.043 69.9092 151.369 93.9281C4.43518 134.859 -142.761 194.44 -286.978 268.348C-270.839 293.313 -249.746 314.405 -221.357 331.446Z" fill="#51BAEA"/>
<path d="M459.896 341.897C548.974 411.935 625.477 491.24 689.783 576.583C1058.77 497.166 1107.66 -113.3 887.319 -410.096C903.752 -136.443 606.425 107.293 180.621 151.094C68.3564 162.642 -42.6719 159.18 -146.5 142.751C-120.678 183.682 -87.2867 226.492 -48.2823 268.725C52.5878 263.133 152.558 262.949 250.968 269.304C332.186 274.77 407.259 301.067 459.896 341.897Z" fill="#1F2334E5
"/>
</g>
</svg>
