<svg width="375" height="577" viewBox="0 0 375 577" fill="none" xmlns="http://www.w3.org/2000/svg">
<g clip-path="url(#clip0_1201_46532)">
<path d="M375 0H0V262H375V0Z" fill="#1F2334E5
"/>
<mask id="mask0_1201_46532" style="mask-type:alpha" maskUnits="userSpaceOnUse" x="-1013" y="252" width="2401" height="509">
<path d="M-1012.5 252H1387.5V339.556L-1012.5 761V252Z" fill="#EAF3F9"/>
</mask>
<g mask="url(#mask0_1201_46532)">
<path d="M-85.4947 336.452C190.532 422.347 513.675 281.857 760.236 100.478C663.214 56.1762 563.605 20.1572 461.338 -5.6771C375.3 -27.4894 283.462 -15.6209 205.387 26.0751C71.391 97.3307 -56.0323 186.725 -175.18 289.372C-149.659 310.109 -120.533 326.028 -85.4947 336.452Z" fill="#1F2334E5
"/>
<path d="M-221.356 331.447C0.979874 469.307 344.498 400.532 632.221 277.222C558.943 215.292 480.443 160.747 396 115.39C324.985 77.1568 237.044 69.9101 151.37 93.929C4.4366 134.86 -142.76 194.441 -286.977 268.349C-270.838 293.314 -249.745 314.406 -221.356 331.447Z" fill="#51BAEA"/>
<path d="M459.896 341.897C548.974 411.935 625.477 491.24 689.783 576.583C1058.77 497.166 1107.66 -113.3 887.319 -410.096C903.752 -136.443 606.425 107.293 180.621 151.094C68.3564 162.642 -42.6719 159.18 -146.5 142.751C-120.678 183.682 -87.2867 226.492 -48.2823 268.725C52.5878 263.133 152.558 262.949 250.968 269.304C332.186 274.77 407.259 301.067 459.896 341.897Z" fill="#1F2334E5
"/>
</g>
</g>
<defs>
<clipPath id="clip0_1201_46532">
<rect width="375" height="577" fill="white"/>
</clipPath>
</defs>
</svg>
