<svg width="1440" height="920" viewBox="0 0 1440 920" fill="none" xmlns="http://www.w3.org/2000/svg">
<rect width="1440" height="308" fill="#1F2334E5
"/>
<mask id="mask0_1_24879" style="mask-type:alpha" maskUnits="userSpaceOnUse" x="-480" y="294" width="2400" height="509">
<path d="M-480 294H1920V381.556L-480 803V294Z" fill="#EAF3F9"/>
</mask>
<g mask="url(#mask0_1_24879)">
<path d="M-150.198 599.67C563.081 821.633 1398.11 458.593 2035.25 -10.1061C1784.54 -124.588 1527.14 -217.664 1262.87 -284.422C1040.54 -340.787 803.22 -310.118 601.469 -202.372C255.209 -18.2407 -74.064 212.764 -381.952 478.011C-316.003 531.6 -240.74 572.735 -150.198 599.67Z" fill="#1F2334E5
"/>
</g>
<path d="M1334.52 836.453C1594.12 989.438 1823.87 1171.31 2023.62 1373.41C2967.89 1033.23 2880.21 -592.947 2194.24 -1296.98C2334.61 -581.613 1637.48 166.198 530.836 432.663C239.067 502.917 -54.7689 533.175 -334.227 526.705C-251.657 625.417 -148.472 726.396 -30.6993 823.863C233.153 773.347 496.552 737.402 758.158 719.245C974.142 704.842 1181.32 747.518 1334.52 836.453Z" fill="#51BAEA"/>
</svg>
