<svg width="375" height="582" viewBox="0 0 375 582" fill="none" xmlns="http://www.w3.org/2000/svg">
<rect width="375" height="252" fill="#1F2334E5
"/>
<mask id="mask0_1_21877" style="mask-type:alpha" maskUnits="userSpaceOnUse" x="-1013" y="252" width="2401" height="509">
<path d="M-1012.5 252H1387.5V339.556L-1012.5 761V252Z" fill="#EAF3F9"/>
</mask>
<g mask="url(#mask0_1_21877)">
<path d="M-85.498 336.451C190.529 422.346 513.672 281.856 760.233 100.477C663.211 56.1749 563.602 20.1559 461.335 -5.67838C375.297 -27.4907 283.459 -15.6222 205.384 26.0738C71.3877 97.3294 -56.0356 186.724 -175.183 289.371C-149.662 310.108 -120.536 326.027 -85.498 336.451Z" fill="#1F2334E5
"/>
</g>
<path d="M489.534 417.827C587.158 475.357 673.556 543.749 748.671 619.753C1103.77 491.827 1070.8 -119.705 812.833 -384.459C865.62 -115.442 603.461 165.775 187.304 265.98C77.5834 292.399 -32.9146 303.778 -138.006 301.345C-106.955 338.466 -68.1523 376.439 -23.8632 413.092C75.3597 394.095 174.412 380.578 272.79 373.75C354.011 368.334 431.921 384.382 489.534 417.827Z" fill="#51BAEA"/>
</svg>
