<svg width="375" height="582" viewBox="0 0 375 582" fill="none" xmlns="http://www.w3.org/2000/svg">
<rect width="375" height="252" fill="#1F2334E5
"/>
<mask id="mask0_54_48406" style="mask-type:alpha" maskUnits="userSpaceOnUse" x="-1013" y="252" width="2401" height="509">
<path d="M-1012.5 252H1387.5V339.556L-1012.5 761V252Z" fill="#EAF3F9"/>
</mask>
<g mask="url(#mask0_54_48406)">
<path d="M-85.498 336.451C190.529 422.346 513.672 281.856 760.233 100.477C663.211 56.1749 563.602 20.1559 461.335 -5.67838C375.297 -27.4907 283.459 -15.6222 205.384 26.0738C71.3877 97.3294 -56.0356 186.724 -175.183 289.371C-149.662 310.108 -120.536 326.027 -85.498 336.451Z" fill="#1F2334E5
"/>
</g>
<path d="M459.896 445.897C548.974 515.935 625.477 595.24 689.783 680.583C1058.77 601.166 1107.66 -9.29977 887.319 -306.096C903.752 -32.443 606.425 211.293 180.621 255.094C68.3564 266.642 -42.6719 263.18 -146.5 246.751C-120.678 287.682 -87.2867 330.492 -48.2823 372.725C52.5878 367.133 152.558 366.949 250.968 373.304C332.186 378.77 407.259 405.067 459.896 445.897Z" fill="#51BAEA"/>
</svg>
