<svg width="530" height="340" viewBox="0 0 530 340" fill="none" xmlns="http://www.w3.org/2000/svg">
<mask id="mask0_514_44297" style="mask-type:luminance" maskUnits="userSpaceOnUse" x="0" y="0" width="530" height="340">
<path d="M530 0H0V340H530V0Z" fill="white"/>
</mask>
<g mask="url(#mask0_514_44297)">
<path d="M-350.774 613.702C-250.127 656.322 -159.369 709.601 -78.8688 770.652C254.717 625.463 163.638 83.8908 -113.182 -129.102C-35.8238 105.765 165.737 275.111 -230 400.999C-334.338 434.19 -870.712 558.195 -973.322 565.289C-939.495 595.604 -905.107 584.265 -858.429 612.996C-763.602 587.339 -661.341 608.305 -566.165 593.557C-487.565 581.578 -410.122 589.001 -350.774 613.702Z" fill="#1F2334E5
"/>
<path d="M-476.979 541.136C-387.109 600.563 -309.176 668.724 -242.937 742.72C114.873 658.525 138.806 111.029 -88.3329 -146.422C-61.5513 97.6322 112.775 316.614 -302 371C-411.357 385.339 -975.703 395.764 -1077.9 384.791C-1051.04 420.459 -1014.92 415.34 -975.114 451.701C-876.67 443.094 -780.684 481.549 -684.178 483.711C-604.522 485.692 -530.062 506.517 -476.979 541.136Z" fill="#51BAEA"/>
</g>
</svg>
