<svg width="245" height="64" viewBox="0 0 245 64" fill="none" xmlns="http://www.w3.org/2000/svg">
<path d="M199.559 54.9131L245 56.2582L199.559 57.5494V54.9131ZM45.4407 54.9669L0 56.1438L45.4407 57.61V54.9669Z" fill="#A4CD39"/>
<path d="M62.4411 59.2101L59.5283 49.7744H58.1944L55.2748 59.2101L52.2395 49.7744H50.4429L54.5602 62.0617H55.9009L58.8341 53.0967L61.7469 62.0617H63.108L67.2254 49.7744H65.4832L62.4411 59.2101Z" fill="#A4CD39"/>
<path d="M78.1552 56.3249H84.3687V54.6907H78.1552V51.4087H85.1989V49.7744H76.4946V62.0617H85.1989V60.4207H78.1552V56.3249Z" fill="#A4CD39"/>
<path d="M96.8022 49.7744H95.1416V62.0617H103.016V60.4207H96.8022V49.7744Z" fill="#A4CD39"/>
<path d="M114.204 49.7744H112.543V62.0617H120.417V60.4207H114.204V49.7744Z" fill="#A4CD39"/>
<path d="M138.234 58.8802L131.585 49.7539L131.545 49.7741H129.945V62.0613H131.606V52.5651L138.595 62.0613H139.895V49.7741H138.234V58.8802Z" fill="#A4CD39"/>
<path d="M151.907 56.3249H158.127V54.6907H151.907V51.4087H158.95V49.7744H150.253V62.0617H158.95V60.4207H151.907V56.3249Z" fill="#A4CD39"/>
<path d="M172.895 54.9801C172.39 54.8725 171.894 54.7263 171.411 54.543C171.096 54.4292 170.802 54.2657 170.54 54.0587C170.36 53.9115 170.219 53.7219 170.132 53.5072C170.052 53.2756 170.013 53.0323 170.016 52.7876C170.022 52.556 170.072 52.3276 170.166 52.1151C170.267 51.9027 170.413 51.7145 170.595 51.5636C170.796 51.3962 171.027 51.2663 171.275 51.1803C171.569 51.0799 171.877 51.0299 172.187 51.0323C172.728 51.0312 173.265 51.134 173.766 51.3349C174.323 51.5689 174.834 51.8966 175.277 52.3034L175.447 52.4514L176.407 51.0659L176.271 50.9516C175.727 50.4749 175.109 50.0887 174.44 49.8083C173.731 49.5458 172.978 49.418 172.221 49.4317C171.697 49.4255 171.175 49.5144 170.683 49.6939C170.231 49.8586 169.815 50.1074 169.458 50.427C169.107 50.7356 168.828 51.1167 168.642 51.5434C168.447 51.9892 168.35 52.4704 168.356 52.9558C168.343 53.4307 168.424 53.9035 168.594 54.3479C168.754 54.7487 169.006 55.1077 169.329 55.3971C169.694 55.7121 170.111 55.9644 170.561 56.1436C171.113 56.3651 171.682 56.5428 172.262 56.6749C172.744 56.7805 173.217 56.9221 173.678 57.0986C173.98 57.2075 174.26 57.3667 174.508 57.5694C174.683 57.7133 174.819 57.8983 174.903 58.1074C174.98 58.3235 175.019 58.5509 175.018 58.7799C175.028 59.0349 174.978 59.2887 174.873 59.5218C174.768 59.7549 174.611 59.9612 174.413 60.125C173.936 60.4967 173.339 60.6854 172.732 60.6563C172.051 60.668 171.376 60.5278 170.758 60.2461C170.119 59.9276 169.539 59.5047 169.043 58.9952L168.887 58.8337L167.859 60.1788L167.981 60.2999C168.604 60.9308 169.343 61.4376 170.159 61.7929C170.958 62.1257 171.817 62.2928 172.684 62.2839C173.226 62.2888 173.764 62.2023 174.277 62.0283C174.748 61.8712 175.181 61.6193 175.549 61.2885C175.903 60.9627 176.185 60.5691 176.379 60.1317C176.582 59.6574 176.684 59.1469 176.679 58.632C176.701 58.1949 176.628 57.7583 176.463 57.3519C176.299 56.9456 176.047 56.5793 175.726 56.2781C174.904 55.623 173.932 55.1773 172.895 54.9801Z" fill="#A4CD39"/>
<path d="M193.435 56.2714C192.607 55.6179 191.631 55.1746 190.59 54.9802C190.085 54.8716 189.589 54.7255 189.106 54.543C188.793 54.4261 188.499 54.2629 188.235 54.0588C188.056 53.9119 187.917 53.7221 187.834 53.5073C187.754 53.2757 187.715 53.0323 187.718 52.7877C187.72 52.5557 187.771 52.3267 187.868 52.1152C187.964 51.9017 188.108 51.713 188.29 51.5637C188.491 51.3963 188.722 51.2664 188.97 51.1803C189.266 51.08 189.576 51.03 189.889 51.0324C190.428 51.0306 190.962 51.1334 191.461 51.335C192.019 51.5659 192.531 51.8939 192.972 52.3035L193.142 52.4514L194.108 51.066L193.972 50.9517C193.426 50.4748 192.806 50.0887 192.135 49.8083C191.426 49.5453 190.673 49.4176 189.916 49.4317C189.392 49.4268 188.87 49.5156 188.378 49.694C187.927 49.8617 187.512 50.1102 187.153 50.4271C186.806 50.7395 186.528 51.1197 186.336 51.5435C186.142 51.9893 186.045 52.4705 186.051 52.9558C186.041 53.4305 186.122 53.9027 186.289 54.348C186.449 54.7505 186.703 55.1099 187.031 55.3971C187.394 55.715 187.811 55.9676 188.262 56.1437C188.812 56.3661 189.378 56.5438 189.957 56.675C190.441 56.7807 190.917 56.9223 191.379 57.0987C191.68 57.2107 191.96 57.3696 192.21 57.5694C192.382 57.7141 192.515 57.899 192.597 58.1075C192.677 58.3228 192.716 58.5507 192.713 58.78C192.723 59.035 192.673 59.2887 192.568 59.5219C192.463 59.755 192.305 59.9613 192.107 60.1251C191.63 60.4968 191.033 60.6855 190.426 60.6564C189.748 60.668 189.076 60.5277 188.46 60.2461C187.821 59.9276 187.241 59.5047 186.745 58.9952L186.581 58.8338L185.554 60.1789L185.683 60.2999C186.303 60.9306 187.04 61.4375 187.854 61.793C188.653 62.1245 189.512 62.2915 190.379 62.2839C190.923 62.2877 191.463 62.2013 191.978 62.0284C192.448 61.8728 192.88 61.6207 193.244 61.2886C193.602 60.9665 193.885 60.5719 194.074 60.1318C194.277 59.6575 194.379 59.147 194.374 58.6321C194.398 58.195 194.326 57.7581 194.164 57.3508C194.002 56.9435 193.753 56.5754 193.435 56.2714Z" fill="#A4CD39"/>
<path d="M103.084 16.1208C101.676 15.5309 100.162 15.2268 98.633 15.2263C95.8535 15.246 93.1624 16.194 90.9972 17.9164C90.8475 17.9164 90.7045 17.9164 90.5548 17.9164C89.2917 17.9164 88.0418 18.1704 86.8812 18.663C85.7206 19.1555 84.6735 19.8763 83.8037 20.7815C83.8898 19.0339 84.2479 17.3099 84.8654 15.6702C85.1326 15.7236 85.408 15.7236 85.6752 15.6702C87.9415 15.2196 89.6701 13.0204 90.6977 10.8279C91.0176 10.8279 91.3307 10.7943 91.6505 10.7943C95.9584 10.7808 99.9601 12.785 103.084 16.1208ZM89.0712 8.05032C90.3711 6.65816 93.978 4.94319 94.2911 4.01509C94.6041 3.08699 93.8079 -0.423654 90.548 0.0471224C87.2882 0.517899 87.2473 6.88011 89.0712 8.07723V8.05032Z" fill="#A4CD39"/>
<path d="M86.5191 12.4016C85.8444 13.4257 85.2896 14.5222 84.8653 15.6701C81.6871 15.1455 80.5914 7.48531 82.1023 3.44336C82.1574 5.11552 82.874 6.6996 84.0982 7.85528C85.3223 9.01095 86.9564 9.64599 88.6492 9.62397C89.5824 9.61846 90.5062 9.43818 91.3714 9.09267C91.1864 9.68186 90.959 10.2572 90.6909 10.8144C89.8479 10.8716 89.0119 11.0044 88.1932 11.2112C87.5064 11.3918 86.9106 11.8154 86.5191 12.4016ZM93.3246 18.3266C92.5775 18.1028 91.8045 17.974 91.0244 17.9433C87.7526 20.5472 85.654 24.3228 85.1852 28.4483C84.1472 26.0259 83.6817 23.4015 83.8241 20.7747C83.1804 21.4402 82.6413 22.1974 82.2248 23.0209C82.4343 26.1177 83.4391 29.1105 85.1444 31.7168C85.7622 32.6568 86.471 33.5353 87.2609 34.3397C86.9686 33.3085 86.7929 32.2483 86.7369 31.1788C86.3898 25.8994 89.2209 20.6401 93.2974 18.3602L93.3246 18.3266Z" fill="#51BAEA"/>
<path d="M3.85889 14.8965H20.0697V17.3109H6.70361V25.8521H18.7018V28.2329H6.70361V36.9759H20.2603V39.3903H3.85889V14.8965Z" fill="white"/>
<path d="M26.6777 14.8965H29.6382L37.7232 28.0177L45.849 14.8965H48.8094V39.397H45.9647V19.658L37.764 32.7456H37.6483L29.4816 19.658V39.397H26.6777V14.8965Z" fill="white"/>
<path d="M56.4863 14.8965H64.5033C70.1587 14.8965 73.8405 17.8355 73.8405 22.6643V22.7383C73.8405 27.9168 69.587 30.7146 64.1562 30.7482H59.3379V39.397H56.4863V14.8965ZM64.2379 28.3472C68.3756 28.3472 70.9549 26.1413 70.9549 22.7786V22.745C70.9549 19.1738 68.3756 17.284 64.3467 17.284H59.3379V28.3472H64.2379Z" fill="white"/>
<path d="M105.486 14.8965H108.562L114.83 35.0726L121.017 14.8359H123.446L129.673 35.0726L135.941 14.8965H138.834L130.898 39.5719H128.394L122.167 19.7925L115.94 39.5719H113.435L105.486 14.8965Z" fill="white"/>
<path d="M144.829 14.8965H161.04V17.3109H147.681V25.8521H159.679V28.2329H147.681V36.9759H161.237V39.3903H144.836L144.829 14.8965Z" fill="white"/>
<path d="M167.641 14.8965H176.72C179.755 14.8965 182.164 15.7371 183.702 17.1697C184.387 17.8198 184.927 18.6044 185.287 19.4732C185.647 20.3419 185.819 21.2754 185.792 22.2137V22.2809C185.792 26.1682 183.171 28.5086 179.49 29.3493L186.629 39.397H183.226L176.543 29.8739H170.506V39.397H167.655L167.641 14.8965ZM176.223 27.4931C180.551 27.4931 182.947 25.4755 182.947 22.3886V22.3146C182.947 19.0931 180.517 17.3109 176.529 17.3109H170.493V27.4931H176.223Z" fill="white"/>
<path d="M98.6807 16.84C97.4677 16.8446 96.265 17.0608 95.1282 17.4789C96.8853 18.2824 98.3914 19.5381 99.4886 21.1144C100.586 22.6908 101.234 24.5298 101.365 26.4387C101.495 28.3476 101.104 30.2561 100.232 31.9643C99.36 33.6725 98.0389 35.1173 96.4075 36.1475C94.776 37.1777 92.8942 37.7553 90.9592 37.8198C89.0242 37.8842 87.1073 37.4331 85.4093 36.5138C83.7114 35.5945 82.2949 34.2407 81.3084 32.5945C80.3219 30.9482 79.8016 29.07 79.8021 27.1568C79.7996 24.81 80.5873 22.5291 82.0411 20.6735C82.1058 19.3418 82.3134 18.0207 82.6604 16.7324C80.4555 18.3744 78.827 20.658 78.0038 23.2622C77.1807 25.8664 77.2043 28.6601 78.0715 31.2503C78.9386 33.8405 80.6056 36.0969 82.8379 37.7022C85.0703 39.3074 87.7557 40.1807 90.5164 40.1993C93.2772 40.2178 95.9743 39.3806 98.2286 37.8055C100.483 36.2303 102.181 33.9965 103.083 31.4182C103.986 28.8398 104.048 26.0467 103.261 23.4317C102.473 20.8167 100.876 18.5114 98.6943 16.84H98.6807Z" fill="white"/>
<path d="M192.243 14.8965H196.823L203.629 26.1682L210.434 14.8965H215.055V39.397H210.693V22.0725L203.649 33.4115H203.534L196.524 22.1397V39.397H192.243V14.8965Z" fill="#A4CD39"/>
<path d="M222.106 14.8965H238.814V18.5685H226.462V25.2199H237.412V28.8987H226.462V35.7183H239.004V39.397H222.106V14.8965Z" fill="#A4CD39"/>
</svg>
