<svg width="95" height="34" viewBox="0 0 95 34" fill="none" xmlns="http://www.w3.org/2000/svg">
<g clip-path="url(#clip0_604_17082)">
<path d="M16.3328 8.63965H16.3314C14.9553 8.63965 13.8397 9.77806 13.8397 11.1824V16.8955C13.8397 18.2998 14.9553 19.4382 16.3314 19.4382H16.3328C17.7089 19.4382 18.8245 18.2998 18.8245 16.8955V11.1824C18.8245 9.77806 17.7089 8.63965 16.3328 8.63965Z" fill="url(#paint0_linear_604_17082)"/>
<path d="M22.4222 8.63965H22.4207C21.0446 8.63965 19.9291 9.77806 19.9291 11.1824V22.8168C19.9291 24.2211 21.0446 25.3596 22.4207 25.3596H22.4222C23.7983 25.3596 24.9138 24.2211 24.9138 22.8168V11.1824C24.9138 9.77806 23.7983 8.63965 22.4222 8.63965Z" fill="url(#paint1_linear_604_17082)"/>
<path d="M10.0794 14.7705H10.078C8.70186 14.7705 7.5863 15.9089 7.5863 17.3132V22.8181C7.5863 24.2224 8.70186 25.3608 10.078 25.3608H10.0794C11.4555 25.3608 12.5711 24.2224 12.5711 22.8181V17.3132C12.5711 15.9089 11.4555 14.7705 10.0794 14.7705Z" fill="url(#paint2_linear_604_17082)"/>
<path d="M10.0794 14.06C11.5461 14.06 12.7351 12.8466 12.7351 11.3498C12.7351 9.85304 11.5461 8.63965 10.0794 8.63965C8.61261 8.63965 7.42358 9.85304 7.42358 11.3498C7.42358 12.8466 8.61261 14.06 10.0794 14.06Z" fill="url(#paint3_linear_604_17082)"/>
<path d="M16.1687 33.5C7.25379 33.5 0 26.0976 0 17C0 7.90243 7.25379 0.5 16.1687 0.5C25.0836 0.5 32.3374 7.90243 32.3374 17C32.3374 26.0976 25.0836 33.5 16.1687 33.5ZM16.1687 1.43932C7.76183 1.43932 0.92046 8.42087 0.92046 17C0.92046 25.5791 7.7604 32.5592 16.1673 32.5592C24.5741 32.5592 31.4155 25.5791 31.4155 17C31.4155 8.42087 24.5756 1.43932 16.1687 1.43932Z" fill="url(#paint4_linear_604_17082)"/>
<path d="M36.9297 18.0382V5.86195C36.9297 5.67554 37.031 5.55176 37.2122 5.55176H38.8905C39.0717 5.55176 39.193 5.67554 39.193 5.86195V18.0382C39.193 18.2246 39.0717 18.3484 38.8905 18.3484H37.2122C37.0296 18.3484 36.9297 18.2246 36.9297 18.0382Z" fill="white"/>
<path d="M40.9897 18.0383V8.54459C40.9897 8.35818 41.0911 8.23585 41.2723 8.23585H42.8093C42.9919 8.23585 43.0918 8.31886 43.0918 8.56644L43.1532 9.66013C43.6584 8.71061 44.5489 7.98828 45.9445 7.98828C47.2589 7.98828 48.2707 8.6276 48.7958 9.86692C49.3424 8.81401 50.2928 7.98828 51.8897 7.98828C53.9732 7.98828 55.2476 9.41255 55.2476 12.0747V18.0397C55.2476 18.2261 55.1463 18.3499 54.965 18.3499H53.3467C53.1641 18.3499 53.0642 18.2261 53.0642 18.0397V12.4883C53.0642 10.9198 52.4777 10.0533 51.2233 10.0533C49.9689 10.0533 49.2011 10.9402 49.2011 12.4883V18.0397C49.2011 18.2261 49.0998 18.3499 48.9185 18.3499H47.3202C47.1176 18.3499 47.0177 18.2261 47.0177 18.0397V12.4883C47.0177 10.9198 46.3698 10.0533 45.1368 10.0533C43.9038 10.0533 43.1746 10.9402 43.1746 12.4883V18.0397C43.1746 18.2261 43.0733 18.3499 42.892 18.3499H41.2737C41.0911 18.3499 40.9912 18.2261 40.9912 18.0397L40.9897 18.0383Z" fill="white"/>
<path d="M56.8231 20.4213V8.54507C56.8231 8.35866 56.9244 8.23633 57.1056 8.23633H58.5812C58.7639 8.23633 58.8638 8.36012 58.8638 8.54507L58.9037 9.90672C59.5916 8.73002 60.7646 7.9873 62.4029 7.9873C65.2342 7.9873 67.1765 10.2985 67.1765 13.2912C67.1765 16.2839 65.2342 18.5951 62.4029 18.5951C60.866 18.5951 59.7129 17.9339 59.0051 16.8402V20.4198C59.0051 20.6062 58.9037 20.73 58.7225 20.73H57.1042C56.9215 20.73 56.8217 20.6062 56.8217 20.4198L56.8231 20.4213ZM61.9805 16.5519C63.7601 16.5519 65.0544 15.2514 65.0544 13.2912C65.0544 11.331 63.7601 10.0305 61.9805 10.0305C60.201 10.0305 58.9879 11.3514 58.9879 13.3116C58.9879 15.2718 60.2209 16.5519 61.9805 16.5519Z" fill="white"/>
<path d="M68.0455 13.2922C68.0455 10.2994 69.9878 7.98828 72.8191 7.98828C74.4574 7.98828 75.6304 8.731 76.3182 9.9077L76.3582 8.54605C76.3582 8.35964 76.4595 8.23731 76.6408 8.23731H78.1178C78.299 8.23731 78.4003 8.3611 78.4003 8.54605V18.0397C78.4003 18.2261 78.299 18.3499 78.1178 18.3499H76.6408C76.4581 18.3499 76.3582 18.2261 76.3582 18.0397L76.3182 16.6985C75.6104 17.8752 74.4374 18.5975 72.8191 18.5975C69.9878 18.5975 68.0455 16.3067 68.0455 13.2936V13.2922ZM73.2429 16.5528C75.0025 16.5528 76.2355 15.2524 76.2355 13.3126C76.2355 11.3727 75.0025 10.0315 73.2429 10.0315C71.4833 10.0315 70.169 11.3524 70.169 13.2922C70.169 15.232 71.4634 16.5528 73.2429 16.5528Z" fill="white"/>
<path d="M79.4891 13.2708C79.4891 10.2577 81.694 7.9873 84.6466 7.9873C86.2649 7.9873 87.5792 8.66886 88.4283 9.74216C88.5496 9.90672 88.5496 10.0524 88.4283 10.1761L87.5178 11.063C87.3566 11.2276 87.1539 11.1868 87.0326 11.0426C86.4461 10.4441 85.7797 10.0524 84.7479 10.0524C82.887 10.0524 81.5926 11.414 81.5926 13.2723C81.5926 15.1305 82.887 16.5329 84.7878 16.5329C85.7996 16.5329 86.4661 16.1412 87.0326 15.5426C87.1739 15.3985 87.3765 15.3562 87.5378 15.5223L88.4483 16.4091C88.5696 16.5329 88.5696 16.6771 88.4483 16.8431C87.5992 17.9164 86.2848 18.598 84.6865 18.598C81.7139 18.598 79.4891 16.3072 79.4891 13.2737V13.2708Z" fill="white"/>
<path d="M90.8943 15.8712V10.0095H89.62C89.4373 10.0095 89.3374 9.88574 89.3374 9.70079V8.54448C89.3374 8.35807 89.4387 8.23574 89.62 8.23574H90.8943V5.86195C90.8943 5.67554 90.9957 5.55176 91.1769 5.55176H92.8152C92.9964 5.55176 93.0977 5.67554 93.0977 5.86195V8.23574H94.696C94.8773 8.23574 94.9986 8.35953 94.9986 8.54448V9.70079C94.9986 9.88719 94.8773 10.0095 94.696 10.0095H93.0977V15.6032C93.0977 16.2833 93.4217 16.5731 93.9882 16.5731C94.1495 16.5731 94.3921 16.5731 94.6147 16.5527C94.8573 16.512 94.9786 16.6153 94.9786 16.8221V17.9362C94.9786 18.3498 94.0881 18.4736 93.4816 18.4736C92.006 18.4736 90.8929 17.7513 90.8929 15.8726L90.8943 15.8712Z" fill="white"/>
<path d="M36.9297 28.1002V21.589C36.9297 21.5016 36.9768 21.4434 37.0624 21.4434H38.0243C38.0999 21.4434 38.157 21.4725 38.1855 21.5409L40.3761 27.0123L42.5752 21.5409C42.6037 21.4725 42.6508 21.4434 42.7279 21.4434H43.6897C43.7753 21.4434 43.8324 21.5016 43.8324 21.589V28.1002C43.8324 28.1875 43.7753 28.2458 43.6897 28.2458H42.8991C42.8135 28.2458 42.7664 28.1875 42.7664 28.1002V23.4167L40.9098 28.1293C40.8812 28.2065 40.8242 28.2458 40.7471 28.2458H40.0136C39.938 28.2458 39.8709 28.2065 39.8423 28.1293L37.9957 23.4167V28.1002C37.9957 28.1875 37.9386 28.2458 37.853 28.2458H37.0624C36.9768 28.2458 36.9297 28.1875 36.9297 28.1002Z" fill="white"/>
<path d="M44.5774 25.8648C44.5774 24.4551 45.4907 23.3672 46.825 23.3672C47.5971 23.3672 48.1479 23.7167 48.4719 24.2716L48.4904 23.6308C48.4904 23.5434 48.5375 23.4851 48.6231 23.4851H49.3181C49.4037 23.4851 49.4508 23.5434 49.4508 23.6308V28.1002C49.4508 28.1876 49.4037 28.2458 49.3181 28.2458H48.6231C48.5375 28.2458 48.4904 28.1876 48.4904 28.1002L48.4719 27.4682C48.1394 28.0216 47.5857 28.3623 46.825 28.3623C45.4921 28.3623 44.5774 27.2832 44.5774 25.8648ZM47.0248 27.3997C47.8525 27.3997 48.4333 26.7881 48.4333 25.8735C48.4333 24.9589 47.8525 24.3284 47.0248 24.3284C46.1971 24.3284 45.5778 24.9502 45.5778 25.8633C45.5778 26.7764 46.1871 27.3983 47.0248 27.3983V27.3997Z" fill="white"/>
<path d="M50.3485 28.0997V23.6303C50.3485 23.5429 50.3956 23.4847 50.4812 23.4847H51.2047C51.2903 23.4847 51.3389 23.524 51.3389 23.6405L51.3674 24.2143C51.5387 23.7381 51.844 23.3682 52.4049 23.3682C52.6147 23.3682 52.7574 23.4162 52.833 23.4745C52.9001 23.5225 52.9186 23.572 52.9186 23.6594V24.2813C52.9186 24.3876 52.8516 24.4167 52.7374 24.3876C52.6232 24.3483 52.519 24.3395 52.3949 24.3395C51.6614 24.3395 51.376 24.922 51.376 25.5352V28.1012C51.376 28.1886 51.3289 28.2468 51.2418 28.2468H50.4798C50.3941 28.2468 50.347 28.1886 50.347 28.1012L50.3485 28.0997Z" fill="white"/>
<path d="M53.5094 28.1002V21.589C53.5094 21.5016 53.5565 21.4434 53.6421 21.4434H54.4042C54.4898 21.4434 54.5383 21.5016 54.5383 21.589V25.6798L56.3764 23.5608C56.4235 23.5026 56.472 23.4837 56.5391 23.4837H57.4338C57.548 23.4837 57.5666 23.5608 57.4909 23.6482L55.8441 25.505L57.7492 28.0798C57.8063 28.1671 57.7778 28.2458 57.6636 28.2458H56.8445C56.7688 28.2458 56.7203 28.2269 56.6732 28.1584L55.2262 26.2244L54.5412 26.9919V28.1002C54.5412 28.1875 54.4941 28.2458 54.407 28.2458H53.645C53.5593 28.2458 53.5123 28.1875 53.5123 28.1002H53.5094Z" fill="white"/>
<path d="M57.6722 25.8453C57.6722 24.4458 58.6241 23.3682 60.0426 23.3682C61.4611 23.3682 62.2517 24.4473 62.2517 25.6327C62.2517 26.0507 62.166 26.2546 61.8136 26.2546H58.6712C58.7953 27.0119 59.3476 27.5186 60.2709 27.5186C60.7276 27.5186 61.1 27.4021 61.4711 27.1487C61.5281 27.1094 61.5852 27.1196 61.6238 27.1779L61.8906 27.5478C61.9477 27.625 61.9292 27.6832 61.8521 27.7619C61.4425 28.1696 60.8432 28.3648 60.1853 28.3648C58.6612 28.3648 57.6708 27.2667 57.6708 25.8483L57.6722 25.8453ZM61.3383 25.4958C61.2813 24.7182 60.7761 24.2521 60.044 24.2521C59.3119 24.2521 58.7682 24.7094 58.6626 25.4958H61.3383Z" fill="white"/>
<path d="M63.262 27.0809V24.3212H62.6626C62.577 24.3212 62.5299 24.2629 62.5299 24.1756V23.6309C62.5299 23.5435 62.577 23.4853 62.6626 23.4853H63.262V22.3683C63.262 22.2809 63.3091 22.2227 63.3947 22.2227H64.1653C64.251 22.2227 64.2995 22.2809 64.2995 22.3683V23.4853H65.0515C65.1372 23.4853 65.1942 23.5435 65.1942 23.6309V24.1756C65.1942 24.2629 65.1372 24.3212 65.0515 24.3212H64.2995V26.9542C64.2995 27.2746 64.4522 27.4115 64.719 27.4115C64.7947 27.4115 64.9088 27.4115 65.0144 27.4013C65.1286 27.3824 65.1857 27.4304 65.1857 27.528V28.0523C65.1857 28.246 64.7661 28.3042 64.4807 28.3042C63.7857 28.3042 63.262 27.9634 63.262 27.0795V27.0809Z" fill="white"/>
<path d="M65.805 29.3643V23.6308C65.805 23.5434 65.8521 23.4851 65.9377 23.4851H66.6327C66.7183 23.4851 66.7654 23.5434 66.7654 23.6308L66.7839 24.2716C67.1079 23.7182 67.6602 23.3672 68.4308 23.3672C69.7637 23.3672 70.6784 24.4551 70.6784 25.8648C70.6784 27.2745 69.7651 28.3623 68.4308 28.3623C67.7073 28.3623 67.165 28.0507 66.831 27.5366V29.3643C66.831 29.4517 66.7839 29.5099 66.6969 29.5099H65.9348C65.8492 29.5099 65.8021 29.4517 65.8021 29.3643H65.805ZM68.2324 27.4012C69.0701 27.4012 69.6795 26.7895 69.6795 25.8662C69.6795 24.9429 69.0701 24.3313 68.2324 24.3313C67.3947 24.3313 66.8239 24.9531 66.8239 25.8764C66.8239 26.7997 67.4047 27.4026 68.2324 27.4026V27.4012Z" fill="white"/>
<path d="M71.3378 28.1004V21.5529C71.3378 21.4655 71.3849 21.4072 71.4705 21.4072H72.2325C72.3182 21.4072 72.3667 21.4655 72.3667 21.5529V28.1004C72.3667 28.1878 72.3196 28.2461 72.2325 28.2461H71.4705C71.3849 28.2461 71.3378 28.1878 71.3378 28.1004Z" fill="white"/>
<path d="M73.0232 25.8648C73.0232 24.4551 73.9365 23.3672 75.2708 23.3672C76.0429 23.3672 76.5937 23.7167 76.9177 24.2716L76.9362 23.6308C76.9362 23.5434 76.9833 23.4851 77.0689 23.4851H77.7639C77.8495 23.4851 77.8966 23.5434 77.8966 23.6308V28.1002C77.8966 28.1876 77.8495 28.2458 77.7639 28.2458H77.0689C76.9833 28.2458 76.9362 28.1876 76.9362 28.1002L76.9177 27.4682C76.5852 28.0216 76.0315 28.3623 75.2708 28.3623C73.9379 28.3623 73.0232 27.2832 73.0232 25.8648ZM75.4706 27.3997C76.2983 27.3997 76.8791 26.7881 76.8791 25.8735C76.8791 24.9589 76.2983 24.3284 75.4706 24.3284C74.6429 24.3284 74.0236 24.9502 74.0236 25.8633C74.0236 26.7764 74.6329 27.3983 75.4706 27.3983V27.3997Z" fill="white"/>
<path d="M78.5559 25.8555C78.5559 24.4371 79.5934 23.3682 80.9834 23.3682C81.7454 23.3682 82.3648 23.6886 82.7643 24.1939C82.8214 24.2711 82.8214 24.3395 82.7643 24.3978L82.3362 24.8157C82.2606 24.8929 82.165 24.874 82.1079 24.8055C81.831 24.523 81.5171 24.3395 81.0319 24.3395C80.1557 24.3395 79.5463 24.9803 79.5463 25.8555C79.5463 26.7308 80.1557 27.3905 81.0504 27.3905C81.5271 27.3905 81.841 27.2055 82.1079 26.9245C82.175 26.856 82.2692 26.8371 82.3462 26.9143L82.7743 27.3322C82.8314 27.3905 82.8314 27.4589 82.7743 27.5361C82.3748 28.0415 81.7554 28.3619 81.0033 28.3619C79.6034 28.3619 78.5559 27.2827 78.5559 25.8541V25.8555Z" fill="white"/>
<path d="M83.0426 25.8453C83.0426 24.4458 83.9944 23.3682 85.4129 23.3682C86.8314 23.3682 87.622 24.4473 87.622 25.6327C87.622 26.0507 87.5364 26.2546 87.1839 26.2546H84.0415C84.1657 27.0119 84.7179 27.5186 85.6413 27.5186C86.0979 27.5186 86.4704 27.4021 86.8414 27.1487C86.8985 27.1094 86.9556 27.1196 86.9941 27.1779L87.261 27.5478C87.3181 27.625 87.2995 27.6832 87.2224 27.7619C86.8129 28.1696 86.2135 28.3648 85.5556 28.3648C84.0315 28.3648 83.0411 27.2667 83.0411 25.8483L83.0426 25.8453ZM86.7087 25.4958C86.6516 24.7182 86.1464 24.2521 85.4144 24.2521C84.6823 24.2521 84.1385 24.7094 84.0329 25.4958H86.7087Z" fill="white"/>
</g>
<defs>
<linearGradient id="paint0_linear_604_17082" x1="13.1704" y1="17.2654" x2="19.622" y2="10.9433" gradientUnits="userSpaceOnUse">
<stop stop-color="#EE8354"/>
<stop offset="1" stop-color="#EE4E54"/>
</linearGradient>
<linearGradient id="paint1_linear_604_17082" x1="17.8099" y1="21.7071" x2="27.2215" y2="12.4844" gradientUnits="userSpaceOnUse">
<stop stop-color="#EE8354"/>
<stop offset="1" stop-color="#EE4E54"/>
</linearGradient>
<linearGradient id="paint2_linear_604_17082" x1="6.96838" y1="23.239" x2="13.3151" y2="17.0196" gradientUnits="userSpaceOnUse">
<stop stop-color="#EE8354"/>
<stop offset="1" stop-color="#EE4E54"/>
</linearGradient>
<linearGradient id="paint3_linear_604_17082" x1="8.20134" y1="13.2663" x2="12.0321" y2="9.51105" gradientUnits="userSpaceOnUse">
<stop stop-color="#EE8354"/>
<stop offset="1" stop-color="#EE4E54"/>
</linearGradient>
<linearGradient id="paint4_linear_604_17082" x1="0" y1="17" x2="32.3374" y2="17" gradientUnits="userSpaceOnUse">
<stop stop-color="#EE8354"/>
<stop offset="1" stop-color="#EE4E54"/>
</linearGradient>
<clipPath id="clip0_604_17082">
<rect width="95" height="33" fill="white" transform="translate(0 0.5)"/>
</clipPath>
</defs>
</svg>
