<svg width="138" height="36" viewBox="0 0 138 36" fill="none" xmlns="http://www.w3.org/2000/svg">
<path d="M112.405 31.7461L138 32.5237L112.405 33.2702V31.7461ZM25.5952 31.7772L0 32.4576L25.5952 33.3052V31.7772Z" fill="#A4CD39"/>
<path d="M35.1708 34.2314L33.5301 28.7764H32.7788L31.1343 34.2314L29.4246 28.7764H28.4126L30.7318 35.8799H31.4869L33.1391 30.6971L34.7798 35.8799H35.5464L37.8656 28.7764H36.8843L35.1708 34.2314Z" fill="#A4CD39"/>
<path d="M44.0222 32.5634H47.5221V31.6186H44.0222V29.7212H47.9897V28.7764H43.0869V35.8799H47.9897V34.9312H44.0222V32.5634Z" fill="#A4CD39"/>
<path d="M54.5252 28.7764H53.5898V35.8799H58.025V34.9312H54.5252V28.7764Z" fill="#A4CD39"/>
<path d="M64.3269 28.7764H63.3916V35.8799H67.8268V34.9312H64.3269V28.7764Z" fill="#A4CD39"/>
<path d="M77.8628 34.0408L74.1177 28.7646L74.0947 28.7763H73.1938V35.8799H74.1292V30.3899L78.066 35.8799H78.7982V28.7763H77.8628V34.0408Z" fill="#A4CD39"/>
<path d="M85.5638 32.5634H89.0675V31.6186H85.5638V29.7212H89.5313V28.7764H84.6323V35.8799H89.5313V34.9312H85.5638V32.5634Z" fill="#A4CD39"/>
<path d="M97.386 31.7854C97.1014 31.7232 96.822 31.6387 96.5503 31.5327C96.3729 31.4669 96.2072 31.3724 96.0597 31.2527C95.9579 31.1676 95.8789 31.058 95.8297 30.9339C95.7848 30.8 95.7627 30.6593 95.7645 30.5179C95.7675 30.384 95.7962 30.2519 95.8488 30.1291C95.9055 30.0063 95.9879 29.8975 96.0903 29.8103C96.2038 29.7135 96.3337 29.6384 96.4737 29.5886C96.6388 29.5306 96.8125 29.5017 96.9873 29.5031C97.2921 29.5025 97.5942 29.5619 97.8767 29.6781C98.1901 29.8133 98.4781 30.0028 98.7277 30.2379L98.8235 30.3235L99.364 29.5225L99.2873 29.4564C98.9812 29.1808 98.633 28.9576 98.2562 28.7955C97.8568 28.6437 97.4328 28.5698 97.0065 28.5777C96.711 28.5742 96.4174 28.6256 96.1401 28.7294C95.8855 28.8245 95.6513 28.9684 95.4502 29.1532C95.2521 29.3316 95.0951 29.5519 94.9901 29.7986C94.8807 30.0563 94.8258 30.3345 94.8292 30.6151C94.8219 30.8897 94.8675 31.163 94.9633 31.4199C95.0537 31.6516 95.1953 31.8592 95.3773 32.0265C95.5832 32.2086 95.8178 32.3544 96.0712 32.4581C96.382 32.5861 96.7025 32.6889 97.0295 32.7652C97.301 32.8263 97.5676 32.9082 97.8268 33.0102C97.9969 33.0731 98.1551 33.1652 98.2945 33.2823C98.3931 33.3655 98.4695 33.4725 98.5168 33.5934C98.5601 33.7183 98.5822 33.8498 98.582 33.9822C98.5873 34.1296 98.5593 34.2763 98.5002 34.4111C98.441 34.5459 98.3523 34.6651 98.2408 34.7598C97.9721 34.9747 97.6358 35.0838 97.294 35.067C96.9106 35.0737 96.5306 34.9927 96.1823 34.8298C95.8224 34.6457 95.4958 34.4012 95.2163 34.1066L95.1282 34.0133L94.5493 34.7909L94.6183 34.8609C94.9689 35.2256 95.3854 35.5187 95.845 35.7241C96.2949 35.9165 96.7789 36.0131 97.2672 36.0079C97.5723 36.0107 97.8756 35.9608 98.1642 35.8602C98.4297 35.7694 98.6737 35.6237 98.881 35.4325C99.0801 35.2441 99.2393 35.0166 99.3487 34.7637C99.4629 34.4895 99.5203 34.1944 99.5173 33.8967C99.5299 33.644 99.4885 33.3915 99.3959 33.1566C99.3033 32.9217 99.1616 32.71 98.9807 32.5358C98.5177 32.1571 97.9701 31.8994 97.386 31.7854Z" fill="#A4CD39"/>
<path d="M108.955 32.532C108.489 32.1542 107.938 31.8979 107.352 31.7855C107.068 31.7227 106.789 31.6382 106.517 31.5327C106.34 31.4652 106.175 31.3708 106.026 31.2528C105.925 31.1679 105.847 31.0581 105.8 30.934C105.755 30.8 105.733 30.6594 105.735 30.5179C105.736 30.3838 105.765 30.2514 105.819 30.1291C105.873 30.0057 105.954 29.8966 106.057 29.8103C106.17 29.7135 106.3 29.6384 106.44 29.5887C106.606 29.5307 106.781 29.5018 106.957 29.5031C107.261 29.5021 107.562 29.5615 107.843 29.6781C108.157 29.8116 108.446 30.0012 108.694 30.238L108.79 30.3235L109.334 29.5226L109.257 29.4565C108.95 29.1808 108.6 28.9576 108.222 28.7955C107.823 28.6435 107.399 28.5696 106.973 28.5778C106.677 28.5749 106.384 28.6263 106.106 28.7294C105.853 28.8263 105.619 28.97 105.416 29.1532C105.221 29.3338 105.064 29.5536 104.956 29.7986C104.847 30.0563 104.792 30.3345 104.795 30.6151C104.79 30.8896 104.836 31.1626 104.93 31.42C105.02 31.6527 105.163 31.8605 105.347 32.0265C105.552 32.2103 105.787 32.3563 106.041 32.4581C106.351 32.5867 106.67 32.6894 106.996 32.7653C107.269 32.8264 107.536 32.9083 107.797 33.0102C107.966 33.075 108.124 33.1669 108.265 33.2824C108.362 33.366 108.437 33.4729 108.483 33.5934C108.528 33.7179 108.55 33.8497 108.548 33.9822C108.554 34.1297 108.526 34.2763 108.466 34.4111C108.407 34.5459 108.319 34.6652 108.207 34.7599C107.938 34.9748 107.602 35.0838 107.26 35.067C106.878 35.0737 106.499 34.9926 106.152 34.8298C105.793 34.6457 105.466 34.4012 105.186 34.1067L105.094 34.0133L104.516 34.791L104.588 34.8609C104.938 35.2256 105.353 35.5186 105.811 35.7241C106.261 35.9158 106.745 36.0123 107.233 36.0079C107.54 36.0101 107.844 35.9602 108.134 35.8602C108.399 35.7703 108.642 35.6245 108.847 35.4325C109.049 35.2463 109.208 35.0182 109.315 34.7637C109.429 34.4895 109.487 34.1944 109.484 33.8967C109.497 33.6441 109.457 33.3914 109.365 33.156C109.274 32.9205 109.134 32.7077 108.955 32.532Z" fill="#A4CD39"/>
<path d="M47.1924 12.5157C47.1924 12.3498 47.1924 12.1826 47.1924 12.0141C47.6823 11.4908 48.2721 11.0741 48.9258 10.7894C49.5796 10.5046 50.2836 10.3578 50.9951 10.3578C51.0794 10.3578 51.1599 10.3578 51.2442 10.3578C49.4079 11.8717 48.2354 14.0601 47.9821 16.4466C47.4577 15.2045 47.189 13.8669 47.1924 12.5157ZM48.2581 9.05139C49.5346 8.79089 50.5083 7.51948 51.0871 6.25195C50.6123 6.28505 50.1414 6.36183 49.6803 6.48135C49.292 6.58489 48.9549 6.82989 48.7334 7.16955C48.3534 7.76162 48.0409 8.39556 47.8019 9.05917C47.9524 9.09006 48.1076 9.09006 48.2581 9.05917V9.05139Z" fill="#1F2334E5
"/>
<path d="M58.0634 9.31952C57.2704 8.97852 56.4178 8.80267 55.5564 8.8024C53.9908 8.81377 52.4751 9.36188 51.2554 10.3576C51.1711 10.3576 51.0906 10.3576 51.0063 10.3576C50.2948 10.3576 49.5908 10.5045 48.937 10.7892C48.2833 11.074 47.6935 11.4907 47.2036 12.014C47.2521 11.0037 47.4538 10.007 47.8016 9.05901C47.9521 9.08991 48.1072 9.08991 48.2578 9.05901C49.5343 8.79851 50.5079 7.5271 51.0868 6.25958C51.2669 6.25958 51.4433 6.24013 51.6234 6.24013C54.0499 6.23236 56.3039 7.39101 58.0634 9.31952ZM50.1706 4.65378C50.9028 3.84895 52.9344 2.85748 53.1108 2.32092C53.2871 1.78436 52.8386 -0.24523 51.0024 0.0269375C49.1663 0.299105 49.1433 3.97726 50.1706 4.66934V4.65378Z" fill="#A4CD39"/>
<path d="M48.733 7.16919C48.353 7.76127 48.0405 8.39521 47.8015 9.05881C46.0113 8.75554 45.3941 4.32699 46.2451 1.99023C46.2762 2.95695 46.6798 3.87275 47.3694 4.54087C48.0589 5.209 48.9793 5.57613 49.9328 5.5634C50.4585 5.56022 50.9788 5.45599 51.4661 5.25624C51.3619 5.59687 51.2338 5.9295 51.0828 6.2516C50.608 6.2847 50.1371 6.36148 49.676 6.481C49.2891 6.5854 48.9535 6.83031 48.733 7.16919ZM52.5663 10.5946C52.1455 10.4652 51.7101 10.3908 51.2706 10.373C49.4278 11.8784 48.2457 14.0612 47.9816 16.4462C47.397 15.0458 47.1348 13.5285 47.215 12.0099C46.8524 12.3947 46.5488 12.8324 46.3141 13.3085C46.4322 15.0988 46.9981 16.8291 47.9586 18.3358C48.3067 18.8793 48.7059 19.3871 49.1508 19.8522C48.9862 19.256 48.8872 18.6431 48.8556 18.0248C48.6601 14.9726 50.2548 11.9321 52.551 10.6141L52.5663 10.5946Z" fill="#51BAEA"/>
<path d="M2.17334 8.6123H11.3043V10.0081H3.77567V14.946H10.5338V16.3224H3.77567V21.377H11.4117V22.7728H2.17334V8.6123Z" fill="#1F2334E5
"/>
<path d="M15.0269 8.6123H16.6944L21.2484 16.198L25.8254 8.6123H27.4929V22.7767H25.8905V11.3651L21.2714 18.9313H21.2062L16.6062 11.3651V22.7767H15.0269V8.6123Z" fill="#1F2334E5
"/>
<path d="M31.8169 8.6123H36.3326C39.5181 8.6123 41.5919 10.3114 41.5919 13.1031V13.1458C41.5919 16.1397 39.1961 17.7571 36.1371 17.7766H33.4231V22.7767H31.8169V8.6123ZM36.1831 16.3885C38.5137 16.3885 39.9666 15.1132 39.9666 13.1692V13.1497C39.9666 11.0851 38.5137 9.99258 36.2444 9.99258H33.4231V16.3885H36.1831Z" fill="#1F2334E5
"/>
<path d="M59.4165 8.61215H61.1492L64.6797 20.2765L68.1642 8.57715H69.5327L73.0402 20.2765L76.5707 8.61215H78.1998L73.7302 22.8776H72.3195L68.812 11.4427L65.3045 22.8776H63.8938L59.4165 8.61215Z" fill="#1F2334E5
"/>
<path d="M81.5771 8.6123H90.7082V10.0081H83.1833V14.946H89.9415V16.3224H83.1833V21.377H90.8193V22.7728H81.581L81.5771 8.6123Z" fill="#1F2334E5
"/>
<path d="M94.4263 8.6123H99.5399C101.25 8.6123 102.607 9.09831 103.473 9.92648C103.859 10.3023 104.163 10.756 104.366 11.2582C104.568 11.7604 104.665 12.3001 104.65 12.8426V12.8814C104.65 15.1288 103.174 16.4818 101.1 16.9678L105.121 22.7767H103.205L99.4403 17.2711H96.0401V22.7767H94.4339L94.4263 8.6123ZM99.2601 15.8947C101.698 15.8947 103.047 14.7283 103.047 12.9437V12.9009C103.047 11.0385 101.679 10.0081 99.4326 10.0081H96.0324V15.8947H99.2601Z" fill="#1F2334E5
"/>
<path d="M55.5834 9.73604C54.9002 9.73865 54.2228 9.8637 53.5824 10.1054C54.5721 10.5699 55.4205 11.2958 56.0385 12.2072C56.6565 13.1185 57.0215 14.1817 57.0952 15.2853C57.1689 16.3889 56.9485 17.4922 56.4573 18.4798C55.966 19.4673 55.222 20.3026 54.303 20.8982C53.3841 21.4938 52.3241 21.8277 51.2342 21.865C50.1443 21.9022 49.0645 21.6414 48.1081 21.1099C47.1518 20.5784 46.3539 19.7958 45.7982 18.8441C45.2426 17.8923 44.9495 16.8065 44.9498 15.7004C44.9484 14.3437 45.3921 13.025 46.2109 11.9523C46.2474 11.1824 46.3643 10.4186 46.5598 9.67383C45.3178 10.6231 44.4005 11.9433 43.9369 13.4489C43.4732 14.9544 43.4865 16.5695 43.975 18.067C44.4634 19.5644 45.4023 20.8689 46.6598 21.797C47.9172 22.725 49.4298 23.2299 50.9848 23.2406C52.5398 23.2513 54.059 22.7673 55.3288 21.8567C56.5985 20.9461 57.5548 19.6546 58.0632 18.164C58.5717 16.6734 58.6066 15.0587 58.1632 13.5469C57.7197 12.0351 56.8202 10.7023 55.5911 9.73604H55.5834Z" fill="#1F2334E5
"/>
<path d="M108.284 8.6123H110.864L114.697 15.1288L118.531 8.6123H121.134V22.7767H118.676V12.7609L114.709 19.3163H114.644L110.695 12.7998V22.7767H108.284V8.6123Z" fill="#A4CD39"/>
<path d="M125.104 8.6123H134.515V10.7352H127.558V14.5805H133.726V16.7073H127.558V20.6499H134.623V22.7767H125.104V8.6123Z" fill="#A4CD39"/>
</svg>
