<svg width="245" height="64" viewBox="0 0 245 64" fill="none" xmlns="http://www.w3.org/2000/svg">
<path d="M199.559 54.9121L245 56.2572L199.559 57.5485V54.9121ZM45.4407 54.9659L0 56.1428L45.4407 57.609V54.9659Z" fill="#A4CD39"/>
<path d="M62.441 59.2111L59.5282 49.7754H58.1943L55.2747 59.2111L52.2394 49.7754H50.4428L54.5601 62.0626H55.9008L58.834 53.0977L61.7468 62.0626H63.1079L67.2253 49.7754H65.483L62.441 59.2111Z" fill="#A4CD39"/>
<path d="M78.155 56.3259H84.3685V54.6916H78.155V51.4097H85.1988V49.7754H76.4944V62.0626H85.1988V60.4217H78.155V56.3259Z" fill="#A4CD39"/>
<path d="M96.8022 49.7754H95.1417V62.0626H103.016V60.4217H96.8022V49.7754Z" fill="#A4CD39"/>
<path d="M114.204 49.7754H112.543V62.0626H120.417V60.4217H114.204V49.7754Z" fill="#A4CD39"/>
<path d="M138.234 58.8802L131.585 49.7539L131.545 49.7741H129.945V62.0613H131.606V52.5651L138.595 62.0613H139.895V49.7741H138.234V58.8802Z" fill="#A4CD39"/>
<path d="M151.907 56.3259H158.127V54.6916H151.907V51.4097H158.951V49.7754H150.253V62.0626H158.951V60.4217H151.907V56.3259Z" fill="#A4CD39"/>
<path d="M172.895 54.9791C172.39 54.8715 171.894 54.7254 171.412 54.542C171.097 54.4282 170.802 54.2647 170.54 54.0577C170.36 53.9105 170.219 53.7209 170.132 53.5063C170.052 53.2746 170.013 53.0313 170.016 52.7866C170.022 52.555 170.073 52.3266 170.166 52.1141C170.267 51.9017 170.413 51.7135 170.595 51.5626C170.796 51.3952 171.027 51.2654 171.275 51.1793C171.569 51.079 171.877 51.0289 172.187 51.0313C172.729 51.0302 173.265 51.133 173.766 51.334C174.323 51.568 174.834 51.8957 175.277 52.3024L175.447 52.4504L176.407 51.065L176.271 50.9506C175.727 50.4739 175.109 50.0877 174.44 49.8073C173.731 49.5448 172.978 49.417 172.221 49.4307C171.697 49.4245 171.175 49.5134 170.683 49.693C170.231 49.8576 169.815 50.1064 169.458 50.426C169.107 50.7346 168.828 51.1157 168.642 51.5425C168.447 51.9882 168.35 52.4694 168.356 52.9548C168.343 53.4297 168.424 53.9026 168.594 54.3469C168.754 54.7477 169.006 55.1067 169.329 55.3961C169.695 55.7111 170.111 55.9634 170.561 56.1426C171.113 56.3642 171.682 56.5418 172.262 56.6739C172.744 56.7795 173.217 56.9212 173.678 57.0976C173.98 57.2065 174.261 57.3657 174.508 57.5684C174.683 57.7123 174.819 57.8973 174.903 58.1064C174.98 58.3225 175.019 58.5499 175.018 58.779C175.028 59.034 174.978 59.2877 174.873 59.5208C174.768 59.7539 174.611 59.9603 174.413 60.124C173.936 60.4957 173.339 60.6845 172.732 60.6554C172.051 60.667 171.376 60.5268 170.758 60.2451C170.119 59.9266 169.539 59.5037 169.043 58.9942L168.887 58.8328L167.859 60.1778L167.982 60.2989C168.604 60.9298 169.343 61.4367 170.159 61.7919C170.958 62.1247 171.817 62.2918 172.684 62.2829C173.226 62.2878 173.764 62.2014 174.277 62.0273C174.748 61.8703 175.181 61.6184 175.549 61.2875C175.903 60.9618 176.185 60.5681 176.38 60.1308C176.582 59.6564 176.684 59.1459 176.679 58.631C176.701 58.194 176.628 57.7573 176.463 57.351C176.299 56.9447 176.047 56.5783 175.726 56.2771C174.904 55.622 173.932 55.1763 172.895 54.9791Z" fill="#A4CD39"/>
<path d="M193.434 56.2705C192.607 55.617 191.63 55.1736 190.59 54.9792C190.085 54.8706 189.589 54.7245 189.106 54.542C188.792 54.4252 188.499 54.2619 188.235 54.0578C188.055 53.911 187.917 53.7211 187.833 53.5063C187.754 53.2747 187.715 53.0313 187.718 52.7867C187.72 52.5547 187.771 52.3257 187.867 52.1142C187.963 51.9008 188.108 51.712 188.289 51.5627C188.491 51.3953 188.721 51.2654 188.97 51.1794C189.265 51.079 189.576 51.029 189.889 51.0314C190.428 51.0296 190.962 51.1324 191.461 51.334C192.019 51.5649 192.531 51.8929 192.972 52.3025L193.142 52.4504L194.108 51.065L193.972 50.9507C193.426 50.4738 192.806 50.0877 192.134 49.8074C191.426 49.5444 190.673 49.4166 189.916 49.4307C189.391 49.4258 188.87 49.5147 188.378 49.693C187.927 49.8607 187.512 50.1092 187.153 50.4261C186.806 50.7386 186.527 51.1187 186.336 51.5425C186.142 51.9883 186.044 52.4695 186.05 52.9549C186.041 53.4295 186.122 53.9018 186.288 54.347C186.449 54.7495 186.703 55.109 187.03 55.3962C187.394 55.714 187.811 55.9667 188.262 56.1427C188.811 56.3651 189.378 56.5428 189.957 56.674C190.441 56.7797 190.916 56.9213 191.379 57.0977C191.679 57.2097 191.96 57.3687 192.209 57.5685C192.382 57.7132 192.515 57.8981 192.597 58.1065C192.677 58.3218 192.716 58.5498 192.713 58.779C192.722 59.034 192.673 59.2878 192.568 59.5209C192.463 59.754 192.305 59.9603 192.107 60.1241C191.63 60.4958 191.033 60.6845 190.426 60.6554C189.748 60.667 189.075 60.5268 188.459 60.2452C187.821 59.9267 187.241 59.5037 186.744 58.9943L186.581 58.8328L185.553 60.1779L185.683 60.299C186.303 60.9297 187.04 61.4366 187.854 61.792C188.653 62.1235 189.512 62.2906 190.379 62.283C190.922 62.2867 191.463 62.2003 191.978 62.0274C192.448 61.8718 192.879 61.6197 193.244 61.2876C193.602 60.9655 193.885 60.571 194.074 60.1308C194.277 59.6565 194.379 59.146 194.373 58.6311C194.397 58.1941 194.326 57.7571 194.164 57.3498C194.002 56.9425 193.753 56.5744 193.434 56.2705Z" fill="#A4CD39"/>
<path d="M103.084 16.1208C101.676 15.5309 100.162 15.2268 98.6329 15.2263C95.8534 15.246 93.1623 16.194 90.9971 17.9164C90.8474 17.9164 90.7044 17.9164 90.5547 17.9164C89.2916 17.9164 88.0417 18.1704 86.8811 18.663C85.7205 19.1555 84.6734 19.8763 83.8036 20.7815C83.8897 19.0339 84.2478 17.3099 84.8653 15.6702C85.1325 15.7236 85.4079 15.7236 85.6751 15.6702C87.9414 15.2196 89.67 13.0204 90.6976 10.8279C91.0175 10.8279 91.3306 10.7943 91.6504 10.7943C95.9583 10.7808 99.96 12.785 103.084 16.1208ZM89.0711 8.05032C90.371 6.65816 93.9779 4.94319 94.291 4.01509C94.604 3.08699 93.8078 -0.423654 90.5479 0.0471224C87.2881 0.517899 87.2472 6.88011 89.0711 8.07723V8.05032Z" fill="#A4CD39"/>
<path d="M86.519 12.4016C85.8443 13.4257 85.2895 14.5222 84.8653 15.6701C81.6871 15.1455 80.5914 7.48531 82.1022 3.44336C82.1573 5.11552 82.8739 6.6996 84.0981 7.85528C85.3223 9.01095 86.9563 9.64599 88.6492 9.62397C89.5824 9.61846 90.5061 9.43818 91.3714 9.09267C91.1863 9.68186 90.9589 10.2572 90.6908 10.8144C89.8478 10.8716 89.0119 11.0044 88.1932 11.2112C87.5063 11.3918 86.9106 11.8154 86.519 12.4016ZM93.3246 18.3266C92.5774 18.1028 91.8044 17.974 91.0243 17.9433C87.7525 20.5472 85.6539 24.3228 85.1851 28.4483C84.1471 26.0259 83.6816 23.4015 83.824 20.7747C83.1803 21.4402 82.6413 22.1974 82.2247 23.0209C82.4342 26.1177 83.4391 29.1105 85.1443 31.7168C85.7621 32.6568 86.471 33.5353 87.2608 34.3397C86.9686 33.3085 86.7928 32.2483 86.7368 31.1788C86.3897 25.8994 89.2208 20.6401 93.2973 18.3602L93.3246 18.3266Z" fill="#51BAEA"/>
<path d="M3.85876 14.8965H20.0696V17.3109H6.70349V25.8521H18.7017V28.2329H6.70349V36.9759H20.2602V39.3903H3.85876V14.8965Z" fill="white"/>
<path d="M26.6778 14.8965H29.6382L37.7232 28.0177L45.849 14.8965H48.8095V39.397H45.9647V19.658L37.764 32.7456H37.6484L29.4817 19.658V39.397H26.6778V14.8965Z" fill="white"/>
<path d="M56.4861 14.8965H64.5031C70.1585 14.8965 73.8403 17.8355 73.8403 22.6643V22.7383C73.8403 27.9168 69.5868 30.7146 64.156 30.7482H59.3376V39.397H56.4861V14.8965ZM64.2376 28.3472C68.3754 28.3472 70.9547 26.1413 70.9547 22.7786V22.745C70.9547 19.1738 68.3754 17.284 64.3465 17.284H59.3376V28.3472H64.2376Z" fill="white"/>
<path d="M105.486 14.8965H108.562L114.83 35.0726L121.016 14.8359H123.446L129.673 35.0726L135.941 14.8965H138.833L130.898 39.5719H128.394L122.167 19.7925L115.939 39.5719H113.435L105.486 14.8965Z" fill="white"/>
<path d="M144.829 14.8965H161.04V17.3109H147.681V25.8521H159.679V28.2329H147.681V36.9759H161.237V39.3903H144.836L144.829 14.8965Z" fill="white"/>
<path d="M167.641 14.8965H176.72C179.755 14.8965 182.164 15.7371 183.702 17.1697C184.388 17.8198 184.927 18.6044 185.287 19.4732C185.647 20.3419 185.819 21.2754 185.792 22.2137V22.2809C185.792 26.1682 183.172 28.5086 179.49 29.3493L186.629 39.397H183.226L176.543 29.8739H170.506V39.397H167.655L167.641 14.8965ZM176.223 27.4931C180.551 27.4931 182.947 25.4755 182.947 22.3886V22.3146C182.947 19.0931 180.517 17.3109 176.529 17.3109H170.493V27.4931H176.223Z" fill="white"/>
<path d="M98.6805 16.84C97.4675 16.8446 96.2649 17.0608 95.128 17.4789C96.8852 18.2824 98.3912 19.5381 99.4885 21.1144C100.586 22.6908 101.234 24.5298 101.364 26.4387C101.495 28.3476 101.104 30.2561 100.232 31.9643C99.3598 33.6725 98.0388 35.1173 96.4073 36.1475C94.7759 37.1777 92.8941 37.7553 90.9591 37.8198C89.0241 37.8842 87.1072 37.4331 85.4092 36.5138C83.7113 35.5945 82.2948 34.2407 81.3083 32.5945C80.3218 30.9482 79.8015 29.07 79.8019 27.1568C79.7995 24.81 80.5872 22.5291 82.041 20.6735C82.1056 19.3418 82.3132 18.0207 82.6603 16.7324C80.4554 18.3744 78.8269 20.658 78.0037 23.2622C77.1806 25.8664 77.2042 28.6601 78.0713 31.2503C78.9385 33.8405 80.6054 36.0969 82.8378 37.7022C85.0702 39.3074 87.7556 40.1807 90.5163 40.1993C93.2771 40.2178 95.9742 39.3806 98.2284 37.8055C100.483 36.2303 102.18 33.9965 103.083 31.4182C103.986 28.8398 104.048 26.0467 103.261 23.4317C102.473 20.8167 100.876 18.5114 98.6942 16.84H98.6805Z" fill="white"/>
<path d="M192.243 14.8965H196.823L203.629 26.1682L210.435 14.8965H215.056V39.397H210.693V22.0725L203.649 33.4115H203.534L196.524 22.1397V39.397H192.243V14.8965Z" fill="#A4CD39"/>
<path d="M222.106 14.8965H238.814V18.5685H226.462V25.2199H237.412V28.8987H226.462V35.7183H239.004V39.397H222.106V14.8965Z" fill="#A4CD39"/>
</svg>
