<svg width="138" height="38" viewBox="0 0 138 38" fill="none" xmlns="http://www.w3.org/2000/svg">
<path d="M112.405 32.2461L138 33.0237L112.405 33.7702V32.2461ZM25.5952 32.2772L0 32.9576L25.5952 33.8052V32.2772Z" fill="#A4CD39"/>
<path d="M35.1708 34.7304L33.5301 29.2754H32.7788L31.1343 34.7304L29.4246 29.2754H28.4126L30.7318 36.379H31.4869L33.1391 31.1961L34.7798 36.379H35.5464L37.8656 29.2754H36.8843L35.1708 34.7304Z" fill="#A4CD39"/>
<path d="M44.0222 33.0624H47.5221V32.1176H44.0222V30.2202H47.9897V29.2754H43.0869V36.379H47.9897V35.4303H44.0222V33.0624Z" fill="#A4CD39"/>
<path d="M54.5252 29.2754H53.5898V36.379H58.025V35.4303H54.5252V29.2754Z" fill="#A4CD39"/>
<path d="M64.3269 29.2754H63.3916V36.379H67.8268V35.4303H64.3269V29.2754Z" fill="#A4CD39"/>
<path d="M77.8628 34.5398L74.1177 29.2637L74.0947 29.2753H73.1938V36.3789H74.1292V30.8889L78.066 36.3789H78.7982V29.2753H77.8628V34.5398Z" fill="#A4CD39"/>
<path d="M85.5638 33.0624H89.0675V32.1176H85.5638V30.2202H89.5313V29.2754H84.6323V36.379H89.5313V35.4303H85.5638V33.0624Z" fill="#A4CD39"/>
<path d="M97.386 32.2844C97.1014 32.2222 96.822 32.1377 96.5503 32.0317C96.3729 31.966 96.2072 31.8714 96.0597 31.7518C95.9579 31.6666 95.8789 31.557 95.8297 31.4329C95.7848 31.299 95.7627 31.1583 95.7645 31.0169C95.7675 30.883 95.7962 30.7509 95.8488 30.6281C95.9055 30.5053 95.9879 30.3965 96.0903 30.3093C96.2038 30.2125 96.3337 30.1374 96.4737 30.0877C96.6388 30.0297 96.8125 30.0007 96.9873 30.0021C97.2921 30.0015 97.5942 30.0609 97.8767 30.1771C98.1901 30.3124 98.4781 30.5018 98.7277 30.737L98.8235 30.8225L99.364 30.0216L99.2873 29.9555C98.9812 29.6799 98.633 29.4566 98.2562 29.2945C97.8568 29.1427 97.4328 29.0688 97.0065 29.0767C96.711 29.0732 96.4174 29.1246 96.1401 29.2284C95.8855 29.3236 95.6513 29.4674 95.4502 29.6522C95.2521 29.8306 95.0951 30.0509 94.9901 30.2976C94.8807 30.5553 94.8258 30.8335 94.8292 31.1141C94.8219 31.3887 94.8675 31.6621 94.9633 31.919C95.0537 32.1507 95.1953 32.3582 95.3773 32.5255C95.5832 32.7076 95.8178 32.8535 96.0712 32.9571C96.382 33.0852 96.7025 33.1879 97.0295 33.2642C97.301 33.3253 97.5676 33.4072 97.8268 33.5092C97.9969 33.5721 98.1551 33.6642 98.2945 33.7814C98.3931 33.8646 98.4695 33.9715 98.5168 34.0924C98.5601 34.2173 98.5822 34.3488 98.582 34.4812C98.5873 34.6286 98.5593 34.7753 98.5002 34.9101C98.441 35.0449 98.3523 35.1642 98.2408 35.2588C97.9721 35.4737 97.6358 35.5828 97.294 35.566C96.9106 35.5728 96.5306 35.4917 96.1823 35.3288C95.8224 35.1447 95.4958 34.9002 95.2163 34.6056L95.1282 34.5123L94.5493 35.2899L94.6183 35.3599C94.9689 35.7247 95.3854 36.0177 95.845 36.2231C96.2949 36.4155 96.7789 36.5121 97.2672 36.5069C97.5723 36.5098 97.8756 36.4598 98.1642 36.3592C98.4297 36.2684 98.6737 36.1227 98.881 35.9315C99.0801 35.7432 99.2393 35.5156 99.3487 35.2627C99.4629 34.9885 99.5203 34.6934 99.5173 34.3957C99.5299 34.143 99.4885 33.8906 99.3959 33.6557C99.3033 33.4208 99.1616 33.209 98.9807 33.0348C98.5177 32.6561 97.9701 32.3984 97.386 32.2844Z" fill="#A4CD39"/>
<path d="M108.955 33.031C108.489 32.6532 107.938 32.3969 107.352 32.2845C107.068 32.2217 106.789 32.1372 106.517 32.0318C106.34 31.9642 106.175 31.8698 106.026 31.7518C105.925 31.6669 105.847 31.5571 105.8 31.433C105.755 31.2991 105.733 31.1584 105.735 31.017C105.736 30.8828 105.765 30.7504 105.819 30.6281C105.873 30.5048 105.954 30.3957 106.057 30.3093C106.17 30.2125 106.3 30.1375 106.44 30.0877C106.606 30.0297 106.781 30.0008 106.957 30.0022C107.261 30.0011 107.562 30.0606 107.843 30.1771C108.157 30.3106 108.446 30.5002 108.694 30.737L108.79 30.8225L109.334 30.0216L109.257 29.9555C108.95 29.6798 108.6 29.4566 108.222 29.2945C107.823 29.1425 107.399 29.0686 106.973 29.0768C106.677 29.0739 106.384 29.1253 106.106 29.2284C105.853 29.3254 105.619 29.469 105.416 29.6522C105.221 29.8329 105.064 30.0526 104.956 30.2977C104.847 30.5554 104.792 30.8336 104.795 31.1142C104.79 31.3886 104.836 31.6616 104.93 31.919C105.02 32.1517 105.163 32.3595 105.347 32.5255C105.552 32.7093 105.787 32.8554 106.041 32.9571C106.351 33.0857 106.67 33.1885 106.996 33.2643C107.269 33.3254 107.536 33.4073 107.797 33.5092C107.966 33.574 108.124 33.6659 108.265 33.7814C108.362 33.865 108.437 33.972 108.483 34.0925C108.528 34.217 108.55 34.3487 108.548 34.4813C108.554 34.6287 108.526 34.7754 108.466 34.9101C108.407 35.0449 108.319 35.1642 108.207 35.2589C107.938 35.4738 107.602 35.5829 107.26 35.566C106.878 35.5728 106.499 35.4917 106.152 35.3289C105.793 35.1447 105.466 34.9002 105.186 34.6057L105.094 34.5124L104.516 35.29L104.588 35.36C104.938 35.7246 105.353 36.0176 105.811 36.2231C106.261 36.4148 106.745 36.5114 107.233 36.507C107.54 36.5091 107.844 36.4592 108.134 36.3592C108.399 36.2693 108.642 36.1235 108.847 35.9315C109.049 35.7453 109.208 35.5172 109.315 35.2628C109.429 34.9885 109.487 34.6934 109.484 34.3957C109.497 34.1431 109.457 33.8905 109.365 33.655C109.274 33.4195 109.134 33.2067 108.955 33.031Z" fill="#A4CD39"/>
<path d="M58.0634 9.81952C57.2704 9.47852 56.4178 9.30267 55.5564 9.3024C53.9908 9.31377 52.4751 9.86188 51.2554 10.8576C51.1711 10.8576 51.0906 10.8576 51.0063 10.8576C50.2948 10.8576 49.5908 11.0045 48.937 11.2892C48.2833 11.574 47.6935 11.9907 47.2036 12.514C47.2521 11.5037 47.4538 10.507 47.8016 9.55901C47.9521 9.58991 48.1072 9.58991 48.2578 9.55901C49.5343 9.29851 50.5079 8.0271 51.0868 6.75958C51.2669 6.75958 51.4433 6.74013 51.6234 6.74013C54.0499 6.73236 56.3039 7.89101 58.0634 9.81952ZM50.1706 5.15378C50.9028 4.34895 52.9344 3.35748 53.1108 2.82092C53.2871 2.28436 52.8386 0.25477 51.0024 0.526937C49.1663 0.799105 49.1433 4.47726 50.1706 5.16934V5.15378Z" fill="#A4CD39"/>
<path d="M48.733 7.66919C48.353 8.26127 48.0405 8.89521 47.8015 9.55881C46.0113 9.25554 45.3941 4.82699 46.2451 2.49023C46.2762 3.45695 46.6798 4.37275 47.3694 5.04087C48.0589 5.709 48.9793 6.07613 49.9328 6.0634C50.4585 6.06022 50.9788 5.95599 51.4661 5.75624C51.3619 6.09687 51.2338 6.4295 51.0828 6.7516C50.608 6.7847 50.1371 6.86148 49.676 6.981C49.2891 7.0854 48.9535 7.33031 48.733 7.66919ZM52.5663 11.0946C52.1455 10.9652 51.7101 10.8908 51.2706 10.873C49.4278 12.3784 48.2457 14.5612 47.9816 16.9462C47.397 15.5458 47.1348 14.0285 47.215 12.5099C46.8524 12.8947 46.5488 13.3324 46.3141 13.8085C46.4322 15.5988 46.9981 17.3291 47.9586 18.8358C48.3067 19.3793 48.7059 19.8871 49.1508 20.3522C48.9862 19.756 48.8872 19.1431 48.8556 18.5248C48.6601 15.4726 50.2548 12.4321 52.551 11.1141L52.5663 11.0946Z" fill="#51BAEA"/>
<path d="M2.17334 9.11133H11.3043V10.5072H3.77567V15.4451H10.5338V16.8214H3.77567V21.876H11.4117V23.2718H2.17334V9.11133Z" fill="white"/>
<path d="M15.0269 9.11133H16.6944L21.2484 16.697L25.8254 9.11133H27.4929V23.2757H25.8905V11.8641L21.2714 19.4304H21.2062L16.6062 11.8641V23.2757H15.0269V9.11133Z" fill="white"/>
<path d="M31.8169 9.11133H36.3326C39.5181 9.11133 41.5919 10.8104 41.5919 13.6021V13.6449C41.5919 16.6387 39.1961 18.2562 36.1371 18.2756H33.4231V23.2757H31.8169V9.11133ZM36.1831 16.8875C38.5137 16.8875 39.9666 15.6122 39.9666 13.6682V13.6488C39.9666 11.5842 38.5137 10.4916 36.2444 10.4916H33.4231V16.8875H36.1831Z" fill="white"/>
<path d="M59.4165 9.11312H61.1492L64.6797 20.7774L68.1642 9.07812H69.5327L73.0402 20.7774L76.5707 9.11312H78.1998L73.7302 23.3786H72.3195L68.812 11.9437L65.3045 23.3786H63.8938L59.4165 9.11312Z" fill="white"/>
<path d="M81.5771 9.11133H90.7082V10.5072H83.1833V15.4451H89.9415V16.8214H83.1833V21.876H90.8193V23.2718H81.581L81.5771 9.11133Z" fill="white"/>
<path d="M94.4268 9.11133H99.5404C101.25 9.11133 102.607 9.59734 103.473 10.4255C103.859 10.8014 104.163 11.255 104.366 11.7572C104.569 12.2594 104.666 12.7991 104.65 13.3416V13.3805C104.65 15.6278 103.174 16.9809 101.101 17.4669L105.122 23.2757H103.205L99.4408 17.7701H96.0406V23.2757H94.4344L94.4268 9.11133ZM99.2606 16.3938C101.699 16.3938 103.048 15.2273 103.048 13.4427V13.3999C103.048 11.5375 101.679 10.5072 99.4331 10.5072H96.0329V16.3938H99.2606Z" fill="white"/>
<path d="M55.5834 10.236C54.9002 10.2387 54.2228 10.3637 53.5824 10.6054C54.5721 11.0699 55.4205 11.7958 56.0385 12.7072C56.6565 13.6185 57.0215 14.6817 57.0952 15.7853C57.1689 16.8889 56.9485 17.9922 56.4573 18.9798C55.966 19.9673 55.222 20.8026 54.303 21.3982C53.3841 21.9938 52.3241 22.3277 51.2342 22.365C50.1443 22.4022 49.0645 22.1414 48.1081 21.6099C47.1518 21.0784 46.3539 20.2958 45.7982 19.3441C45.2426 18.3923 44.9495 17.3065 44.9498 16.2004C44.9484 14.8437 45.3921 13.525 46.2109 12.4523C46.2474 11.6824 46.3643 10.9186 46.5598 10.1738C45.3178 11.1231 44.4005 12.4433 43.9369 13.9489C43.4732 15.4544 43.4865 17.0695 43.975 18.567C44.4634 20.0644 45.4023 21.3689 46.6598 22.297C47.9172 23.225 49.4298 23.7299 50.9848 23.7406C52.5398 23.7513 54.059 23.2673 55.3288 22.3567C56.5985 21.4461 57.5548 20.1546 58.0632 18.664C58.5717 17.1734 58.6066 15.5587 58.1632 14.0469C57.7197 12.5351 56.8202 11.2023 55.5911 10.236H55.5834Z" fill="white"/>
<path d="M108.284 9.11133H110.864L114.697 15.6278L118.531 9.11133H121.134V23.2757H118.676V13.2599L114.709 19.8153H114.644L110.695 13.2988V23.2757H108.284V9.11133Z" fill="#A4CD39"/>
<path d="M125.104 9.11133H134.515V11.2342H127.558V15.0796H133.726V17.2064H127.558V21.1489H134.623V23.2757H125.104V9.11133Z" fill="#A4CD39"/>
</svg>
