<svg width="57" height="56" viewBox="0 0 57 56" fill="none" xmlns="http://www.w3.org/2000/svg">
<rect x="0.333008" width="56" height="56" rx="12" fill="#E6EFF5"/>
<g clip-path="url(#clip0_54_61277)">
<path d="M41.8418 27.9869L38.8453 24.3702L39.2628 19.5868L34.8295 18.5239L32.5084 14.3887L28.333 16.2813L24.1576 14.3887L21.8365 18.5239L17.4032 19.5739L17.8207 24.3702L14.8242 27.9869L17.8207 31.6035L17.4032 36.3998L21.8365 37.4628L24.1576 41.6109L28.333 39.7053L32.5084 41.598L34.8295 37.4628L39.2628 36.3998L38.8453 31.6164L41.8418 27.9869ZM36.9909 29.9053L36.3032 30.748L36.4014 31.8498L36.6224 34.3775L34.2892 34.935L33.2576 35.1813L32.7172 36.1405L31.5014 38.3183L29.3155 37.3202L28.333 36.8794L27.3628 37.3202L25.1768 38.3183L23.9611 36.1535L23.4207 35.1942L22.3892 34.948L20.0558 34.3905L20.2768 31.8498L20.3751 30.748L19.6874 29.9053L18.1032 27.9998L19.6874 26.0813L20.3751 25.2387L20.2646 24.1239L20.0435 21.609L22.3768 21.0516L23.4084 20.8053L23.9488 19.8461L25.1645 17.6683L27.3505 18.6664L28.333 19.1072L29.3032 18.6664L31.4892 17.6683L32.7049 19.8461L33.2453 20.8053L34.2768 21.0516L36.6102 21.609L36.3892 24.1369L36.2909 25.2387L36.9786 26.0813L38.5628 27.9869L36.9909 29.9053Z" fill="#51BAEA"/>
<path d="M25.987 30.2687L23.1379 27.2484L21.3203 29.1798L25.987 34.1187L35.001 24.578L33.1835 22.6465L25.987 30.2687Z" fill="#51BAEA"/>
</g>
<defs>
<clipPath id="clip0_54_61277">
<rect width="28" height="28" fill="white" transform="translate(14.333 14)"/>
</clipPath>
</defs>
</svg>
