<svg xmlns="http://www.w3.org/2000/svg" width="327" height="327" viewBox="0 267 327 267" fill="none">
<g clip-path="url(#clip0_514_44305)">
<path d="M616.236 19.8708C671.677 115.947 737.851 201.13 811.576 275.338C683.177 621.789 84.8634 584.041 -171.987 329.16C90.8714 383.239 293.431 567.43 395.242 160.965C422.085 53.7985 509.271 -492.557 507.83 -595.449C543.889 -564.722 534.606 -529.363 570.088 -485.682C550.605 -388.726 582.594 -288.925 575.03 -192.687C569.001 -113.23 584.014 -36.8232 616.236 19.8708Z" fill="#1F2334E5
"/>
<path d="M523.731 -122.634C596.524 -38.936 677.768 32.0184 764.326 90.7554C704.559 455.368 110.071 532.752 -190.786 331.702C77.5627 334.507 331.779 486.718 353.969 68.2839C359.819 -42.0376 320.733 -605.144 299.639 -705.861C340.909 -682.599 338.56 -646.117 381.742 -610.028C381.162 -511.136 431.649 -419.295 442.631 -323.387C451.911 -244.244 481.26 -172.119 523.731 -122.634Z" fill="#51BAEA"/>
</g>
<defs>
<clipPath id="clip0_514_44305">
<rect width="327" height="824" fill="white"/>
</clipPath>
</defs>
</svg>
