<svg width="1440" height="249" viewBox="0 0 1440 249" fill="none" xmlns="http://www.w3.org/2000/svg">
<g clip-path="url(#clip0_47_28876)">
<rect width="1440" height="249" fill="white"/>
<rect width="1440" height="189" fill="white"/>
<path d="M1217.55 744.881C1443.38 944.383 1634.41 1166.57 1792.13 1402.93C2783.83 1248.27 3006.57 -364.966 2466.78 -1186.46C2468.74 -457.453 1642.28 144.357 505.177 195.812C205.375 209.378 -88.8596 183.283 -362.004 123.859C-299.682 236.456 -217.552 355.193 -120.432 473.252C148.212 473.763 413.643 488.495 673.937 520.349C888.726 547.225 1084.03 628.469 1217.55 744.881Z" fill="#51BAEA"/>
<path d="M1143.56 853.181C1342.85 1079.2 1504.78 1323.4 1631.92 1577.53C2635.15 1547.29 3056.62 -25.7709 2623.09 -907.968C2534.45 -184.369 1639.61 310.086 504.928 219.85C205.764 196.06 -82.9474 133.606 -346.591 40.7039C-298.743 160.171 -232.004 288.194 -150.306 417.405C116.193 451.293 377.737 498.892 632.056 562.842C841.84 616.199 1025.53 721.08 1143.56 853.181Z" fill="#1F2334E5
"/>
</g>
<defs>
<clipPath id="clip0_47_28876">
<rect width="1440" height="249" fill="white"/>
</clipPath>
</defs>
</svg>
