<svg width="76" height="372" viewBox="0 0 76 372" fill="none" xmlns="http://www.w3.org/2000/svg">
<path d="M556.15 623.29C470.888 694.243 398.181 773.923 337.573 859.181C-25.6512 791.489 -90.0722 195.457 117.482 -100.951C108.834 167.273 -38.2782 398.173 379.574 429.47C489.742 437.721 1042.97 430.847 1144.12 411.951C1119.96 452.705 1083.54 449.562 1046.52 491.948C947.67 489.215 854.75 537.69 758.62 546.581C679.3 554.135 606.55 581.906 556.15 623.29Z" fill="#1F2334E5
"/>
<path d="M680.88 507.924C610.76 593.875 554.63 685.99 511.449 781.266C141.983 784.295 -35.245 211.587 111.786 -119.047C154.598 145.88 47.775 422.254 463.898 373.054C573.61 360.083 1121.9 225.925 1217.57 188.031C1201.65 232.653 1165.3 236.534 1137.07 285.218C1039.52 301.443 957.59 366.795 864.94 393.906C788.52 416.493 722.43 457.665 680.88 507.924Z" fill="#51BAEA"/>
</svg>
