<svg width="1440" height="308" viewBox="0 0 1440 308" fill="none" xmlns="http://www.w3.org/2000/svg">
<rect width="1440" height="308" fill="#1F2334E5
"/>
<path d="M122.587 809.503C-115.296 994.46 -319.873 1204.24 -492.103 1430.26C-1472.16 1213.75 -1593.36 -410.277 -1003.15 -1196.33C-1050.8 -468.878 -263.673 183.542 867.973 306.156C1166.33 338.483 1461.63 330.878 1737.96 288.689C1668.7 397.158 1406.64 293.135 1302.31 404.876C1034.16 388.551 940.984 603.999 679.205 619.479C463.155 632.842 263.145 701.688 122.587 809.503Z" fill="#51BAEA"/>
<path d="M106.834 878.369C-109.405 1088.22 -289.823 1319.11 -436.315 1562.6C-1434.16 1454.53 -1732.17 -146.52 -1231.43 -992.378C-1199.26 -264.081 -345.539 298.384 792.728 296.555C1092.84 296.073 1385.53 256.234 1655.59 184.09C1598.61 299.48 1522.13 421.931 1430.64 544.407C1162.31 557.493 897.862 584.633 639.344 628.637C426.049 665.537 234.763 755.834 106.834 878.369Z" fill="white"/>
</svg>
