<svg width="1440" height="308" viewBox="0 0 1440 308" fill="none" xmlns="http://www.w3.org/2000/svg">
<rect width="1440" height="308" fill="#1F2334E5
"/>
<path d="M1144.37 841.91C1354.04 1058.33 1527.26 1294.66 1666.18 1542.55C2666.88 1465.27 3014.08 -125.835 2539.63 -986.719C2485.04 -259.758 1614.39 276.138 476.722 239.242C176.772 229.514 -114.552 180.676 -382.265 100.246C-328.864 217.337 -54.8277 150.996 32.843 276.232C300.639 297.578 362.764 523.943 619.803 575.891C831.86 619.345 1020.27 715.493 1144.37 841.91Z" fill="#51BAEA"/>
<path d="M1504.09 878.173C1736.26 1088.05 1929.85 1318.96 2086.91 1562.46C3160.69 1454.52 3484.88 -146.488 2948.04 -992.404C2911.81 -264.113 1992.07 298.246 767.467 296.278C444.596 295.76 129.792 255.885 -160.595 183.708C-99.5479 299.105 -17.5378 421.565 80.6161 544.052C369.267 557.17 653.716 584.342 931.746 628.377C1161.14 665.304 1366.73 755.624 1504.09 878.173Z" fill="white"/>
</svg>
