<svg width="1440" height="308" viewBox="0 0 1440 308" fill="none" xmlns="http://www.w3.org/2000/svg">
<g clip-path="url(#clip0_250_53290)">
<rect width="1440" height="308" fill="white"/>
<rect width="1440" height="308" fill="#1F2334E5
"/>
<path d="M1193.57 843.022C1412.22 1050.36 1595.3 1279.14 1744.61 1520.91C2741.14 1401.29 3020.58 -203.097 2510.08 -1043.1C2486.35 -314.478 1639.19 257.837 500.983 269.192C200.889 272.185 -92.2432 235.738 -363.124 166.727C-304.809 281.45 -33.83 203.554 59.0697 324.962C327.529 334.939 399.193 558.467 658.203 599.474C871.911 633.902 1064.23 721.977 1193.57 843.022Z" fill="#51BAEA"/>
<path d="M1504.09 881.173C1736.26 1091.05 1929.85 1321.96 2086.91 1565.46C3160.69 1457.52 3484.88 -143.488 2948.04 -989.404C2911.81 -261.113 1992.07 301.246 767.467 299.278C444.596 298.76 129.792 258.885 -160.595 186.708C-99.5479 302.105 -17.5378 424.565 80.6161 547.052C369.267 560.17 653.716 587.342 931.746 631.377C1161.14 668.304 1366.73 758.624 1504.09 881.173Z" fill="white"/>
</g>
<defs>
<clipPath id="clip0_250_53290">
<rect width="1440" height="308" fill="white"/>
</clipPath>
</defs>
</svg>
