<svg width="375" height="308" viewBox="0 0 375 308" fill="none" xmlns="http://www.w3.org/2000/svg">
<rect width="375" height="308" fill="#1F2334E5
"/>
<mask id="mask0_1_22318" style="mask-type:alpha" maskUnits="userSpaceOnUse" x="-1013" y="-70" width="2401" height="509">
<path d="M-1012.5 -70H1387.5V439H-1012.5V-70Z" fill="#EAF3F9"/>
</mask>
<g mask="url(#mask0_1_22318)">
<path d="M-156.922 301.904C-233.731 333.229 -303.559 373.611 -366.022 420.701C-609.672 290.407 -520.978 -149.048 -306.069 -313.477C-372.815 -124.215 -212.729 107.262 78.0842 223.948C154.758 254.713 233.589 274.665 309.967 284.041C283.542 307.638 258.287 297.171 222.323 319.026C152.466 294.75 75.2776 308.321 4.74316 292.949C-53.5137 280.418 -111.647 283.785 -156.922 301.904Z" fill="#51BAEA"/>
<path d="M215.281 442.837C265.43 508.912 304.959 579.227 334.733 651.564C610.775 663.517 758.247 240.15 657.035 -10.8054C618.091 186.066 362.435 303.749 52.7345 256.066C-28.9191 243.494 -106.923 220.518 -177.429 189.69C-166.705 223.455 -150.966 259.95 -131.145 297.074C-58.6636 311.758 12.1809 330.107 80.7118 352.799C137.23 371.683 185.544 404.187 215.281 442.837Z" fill="white"/>
</g>
</svg>
