<svg width="375" height="248" viewBox="0 0 375 248" fill="none" xmlns="http://www.w3.org/2000/svg">
<rect width="375" height="308" fill="#1F2334E5
"/>
<mask id="mask0_1_22106" style="mask-type:alpha" maskUnits="userSpaceOnUse" x="-1013" y="-70" width="2401" height="509">
<path d="M-1012.5 -70H1387.5V439H-1012.5V-70Z" fill="#EAF3F9"/>
</mask>
<g mask="url(#mask0_1_22106)">
<path d="M475.022 301.904C551.831 333.229 621.66 373.611 684.122 420.701C927.773 290.407 839.079 -149.048 624.17 -313.477C690.915 -124.215 530.83 107.262 240.016 223.948C163.342 254.713 84.5115 274.665 8.13309 284.041C34.5582 307.638 59.8134 297.171 95.7777 319.026C165.634 294.75 242.823 308.321 313.357 292.949C371.614 280.418 429.747 283.785 475.022 301.904Z" fill="#51BAEA"/>
<path d="M287.87 397.556C347.398 455.326 397.064 518.886 437.392 585.915C712.086 556.164 794.124 115.418 656.276 -117.435C647.421 83.0553 412.402 237.894 99.0528 237.391C16.4371 237.258 -64.1366 226.291 -138.481 206.43C-122.795 238.196 -101.74 271.905 -76.5551 305.621C-2.6886 309.223 70.1111 316.695 141.278 328.808C199.995 338.966 252.653 363.824 287.87 397.556Z" fill="white"/>
</g>
</svg>
