<svg width="1440" height="308" viewBox="0 0 1440 308" fill="none" xmlns="http://www.w3.org/2000/svg">
<g clip-path="url(#clip0_250_53293)">
<rect width="1440" height="308" fill="white"/>
<rect width="1440" height="308" fill="#1F2334E5
"/>
<path d="M168.903 805.328C-56.5734 1005.22 -247.213 1227.75 -404.528 1464.38C-1396.49 1311.46 -1622.05 -301.393 -1083.7 -1123.83C-1084.39 -394.819 -256.874 205.547 880.319 255.015C1180.14 268.058 1474.33 241.449 1747.37 181.548C1685.25 294.253 1417.03 207.326 1320.12 325.554C1051.47 326.535 972.364 547.538 712.126 579.847C497.385 607.098 302.224 688.683 168.903 805.328Z" fill="#51BAEA"/>
<path d="M106.834 878.369C-109.405 1088.22 -289.823 1319.11 -436.315 1562.6C-1434.16 1454.53 -1732.17 -146.52 -1231.43 -992.378C-1199.26 -264.081 -345.539 298.384 792.728 296.555C1092.84 296.073 1385.53 256.234 1655.59 184.09C1598.61 299.48 1522.13 421.931 1430.64 544.407C1162.31 557.493 897.861 584.633 639.344 628.637C426.049 665.537 234.763 755.834 106.834 878.369Z" fill="white"/>
</g>
<defs>
<clipPath id="clip0_250_53293">
<rect width="1440" height="308" fill="white"/>
</clipPath>
</defs>
</svg>
