<svg width="375" height="308" viewBox="0 0 375 308" fill="none" xmlns="http://www.w3.org/2000/svg">
<rect width="375" height="308" fill="#1F2334E5
"/>
<mask id="mask0_1_22248" style="mask-type:alpha" maskUnits="userSpaceOnUse" x="-1013" y="-70" width="2401" height="509">
<path d="M-1012.5 -70H1387.5V439H-1012.5V-70Z" fill="#EAF3F9"/>
</mask>
<g mask="url(#mask0_1_22248)">
<path d="M287.303 343.708C350.212 397.775 403.628 458.219 447.931 522.689C720.326 476.397 775.586 31.4997 623.922 -192.6C627.196 8.059 401.961 176.814 89.1538 195.242C6.68105 200.101 -74.4081 194.022 -149.817 178.689C-132.24 209.449 -104.969 207.533 -77.7927 239.666C-3.84353 238.799 65.0561 276.15 136.824 283.942C196.048 290.534 250.112 312.165 287.303 343.708Z" fill="#51BAEA"/>
<path d="M215.281 442.837C265.43 508.912 304.959 579.227 334.733 651.564C610.775 663.517 758.247 240.15 657.035 -10.8054C618.091 186.066 362.435 303.749 52.7345 256.066C-28.9191 243.494 -106.923 220.518 -177.429 189.69C-166.705 223.455 -150.966 259.95 -131.145 297.074C-58.6636 311.758 12.1809 330.107 80.7118 352.799C137.23 371.683 185.544 404.187 215.281 442.837Z" fill="white"/>
</g>
</svg>
