<svg width="375" height="308" viewBox="0 0 375 308" fill="none" xmlns="http://www.w3.org/2000/svg">
<rect width="375" height="308" fill="#1F2334E5
"/>
<mask id="mask0_1_22389" style="mask-type:alpha" maskUnits="userSpaceOnUse" x="-1013" y="-70" width="2401" height="509">
<path d="M-1012.5 -70H1387.5V439H-1012.5V-70Z" fill="#EAF3F9"/>
</mask>
<g mask="url(#mask0_1_22389)">
<path d="M3.40247 358.047C-65.4759 404.271 -125.684 457.952 -177.322 516.711C-442.303 438.435 -444.4 -9.87624 -267.224 -214.403C-294.277 -15.5495 -90.6497 178.731 217.763 234.135C299.077 248.742 380.315 252.324 457.01 246.045C435.909 274.502 409.058 269.365 378.262 298.047C304.937 288.415 232.094 317.329 159.908 316.553C100.32 316.074 44.0722 331.139 3.40247 358.047Z" fill="#51BAEA"/>
<path d="M215.281 442.837C265.43 508.912 304.959 579.227 334.733 651.564C610.775 663.517 758.247 240.15 657.035 -10.8054C618.091 186.066 362.435 303.749 52.7345 256.066C-28.9191 243.494 -106.923 220.518 -177.429 189.69C-166.705 223.455 -150.966 259.95 -131.145 297.074C-58.6636 311.758 12.1809 330.107 80.7118 352.799C137.23 371.683 185.544 404.187 215.281 442.837Z" fill="white"/>
</g>
</svg>
