<svg width="375" height="308" viewBox="0 0 375 308" fill="none" xmlns="http://www.w3.org/2000/svg">
<g clip-path="url(#clip0_250_53286)">
<rect width="375" height="308" fill="white"/>
<rect width="375" height="308" fill="#1F2334E5
"/>
<mask id="mask0_250_53286" style="mask-type:alpha" maskUnits="userSpaceOnUse" x="-1013" y="-70" width="2401" height="509">
<path d="M-1012.5 -70H1387.5V439H-1012.5V-70Z" fill="#EAF3F9"/>
</mask>
<g mask="url(#mask0_250_53286)">
<path d="M422.13 341.51C491.973 386.263 553.306 438.654 606.178 496.306C869.439 412.429 862.031 -35.8259 680.558 -236.551C711.821 -38.3149 512.359 160.239 205.19 222.17C124.204 238.498 43.0603 243.802 -33.7507 239.15C-12.0505 267.154 14.6857 261.448 46.0828 289.471C119.186 278.286 192.627 305.649 264.78 303.343C324.344 301.6 380.899 315.469 422.13 341.51Z" fill="#51BAEA"/>
<path d="M215.281 442.837C265.43 508.912 304.959 579.227 334.733 651.564C610.775 663.517 758.247 240.15 657.035 -10.8054C618.091 186.066 362.435 303.749 52.7345 256.066C-28.9191 243.494 -106.923 220.518 -177.429 189.69C-166.705 223.455 -150.966 259.95 -131.145 297.074C-58.6636 311.758 12.1809 330.107 80.7118 352.799C137.23 371.683 185.544 404.187 215.281 442.837Z" fill="white"/>
</g>
</g>
<defs>
<clipPath id="clip0_250_53286">
<rect width="375" height="308" fill="white"/>
</clipPath>
</defs>
</svg>
