<svg width="1440" height="308" viewBox="0 0 1440 308" fill="none" xmlns="http://www.w3.org/2000/svg">
<rect width="1440" height="308" fill="#1F2334E5
"/>
<mask id="mask0_1_26991" style="mask-type:alpha" maskUnits="userSpaceOnUse" x="-480" y="8" width="2400" height="509">
<path d="M-480 8H1920V517H-480V8Z" fill="#EAF3F9"/>
</mask>
<g mask="url(#mask0_1_26991)">
<path d="M1889.63 548.91C2168.65 662.699 2422.31 809.388 2649.21 980.448C3534.29 507.146 3212.1 -1089.21 2431.42 -1686.51C2673.88 -999.004 2092.36 -158.144 1035.96 265.727C757.432 377.482 471.073 449.961 193.622 484.018C289.613 569.736 381.355 531.716 511.998 611.105C765.757 522.922 1046.15 572.22 1302.37 516.379C1514 470.859 1725.17 483.091 1889.63 548.91Z" fill="#51BAEA"/>
<path d="M1209.79 879.369C1426.03 1089.22 1606.45 1320.11 1752.94 1563.6C2750.79 1455.53 3048.8 -145.52 2548.05 -991.378C2515.89 -263.081 1662.16 299.384 523.895 297.555C223.787 297.073 -68.9038 257.234 -338.967 185.09C-281.985 300.48 -205.502 422.931 -114.015 545.407C154.311 558.493 418.762 585.633 677.279 629.637C890.574 666.537 1081.86 756.834 1209.79 879.369Z" fill="white"/>
</g>
</svg>
