<svg width="56" height="56" viewBox="0 0 56 56" fill="none" xmlns="http://www.w3.org/2000/svg">
<rect width="56" height="56" rx="12" fill="#E6EFF5"/>
<g clip-path="url(#clip0_54_61268)">
<path d="M40.2085 34.1312C39.7605 33.6272 39.2285 33.2352 38.6125 33.0112C38.2765 32.8712 38.0805 32.5912 38.0805 32.2552V23.8552C38.0805 23.5192 38.2765 23.2112 38.6125 23.0992C39.2845 22.8192 39.8725 22.3992 40.3485 21.8112C41.6645 20.2152 41.6085 17.8072 40.2645 16.2672C39.4805 15.3432 38.3605 14.8112 37.1565 14.7832C35.9525 14.7272 34.7765 15.2032 33.9365 16.0432C33.5165 16.4632 33.2085 16.9392 32.9845 17.4992C32.8445 17.8072 32.5645 18.0032 32.2005 18.0032H23.8005C23.4645 18.0032 23.1565 17.8072 23.0445 17.4712C22.7645 16.7992 22.3445 16.2112 21.7565 15.7352C20.1885 14.4472 17.8925 14.4472 16.3245 15.7072C15.3165 16.5192 14.7285 17.7232 14.7005 18.9832C14.6725 20.2712 15.2045 21.4752 16.1565 22.3152C17.7805 23.7432 20.2445 23.7432 21.8685 22.2872C22.3725 21.8392 22.7645 21.3072 22.9885 20.6912C23.1285 20.3552 23.4085 20.1592 23.7445 20.1592H32.1445C32.4805 20.1592 32.7885 20.3832 32.9285 20.7192L32.9565 20.7472C33.0965 21.0832 33.0125 21.4472 32.7885 21.6712L21.6165 32.8432C21.3645 33.0952 21.0005 33.1512 20.6925 33.0112C18.9285 32.2552 16.8565 32.7872 15.6525 34.2712C14.3365 35.8672 14.3925 38.2472 15.7365 39.8152C16.5205 40.7392 17.6405 41.2712 18.8445 41.2992C20.0485 41.3552 21.2245 40.8792 22.0645 40.0392C23.3245 38.7792 23.6885 36.9312 22.9885 35.2792C22.8485 34.9712 22.9325 34.6072 23.1845 34.3832L34.3565 23.2112C34.6085 22.9592 34.9725 22.9032 35.3085 23.0432H35.3365C35.6725 23.1832 35.8965 23.4912 35.8965 23.8272V32.2272C35.8965 32.5632 35.7005 32.8712 35.3645 32.9832C34.7485 33.2352 34.2165 33.6272 33.7685 34.1032C32.3125 35.7272 32.3125 38.1912 33.7405 39.8152C34.5525 40.7392 35.7565 41.2712 36.9885 41.2712C38.2205 41.2712 39.4245 40.7392 40.2365 39.8152C41.6645 38.1912 41.6645 35.7552 40.2085 34.1312ZM20.5245 20.5512C19.6845 21.3912 18.3405 21.3912 17.5005 20.5512C16.6605 19.7112 16.6605 18.3672 17.5005 17.5272C17.9205 17.1072 18.4525 16.9112 19.0125 16.9112C19.5725 16.9112 20.1045 17.1072 20.5245 17.5272C21.3645 18.3672 21.3645 19.7112 20.5245 20.5512ZM20.5245 38.4992C19.6845 39.3392 18.3405 39.3392 17.5005 38.4992C16.6605 37.6592 16.6605 36.3152 17.5005 35.4752C17.8925 35.0832 18.4245 34.8592 19.0125 34.8592C19.6005 34.8592 20.1325 35.0832 20.5245 35.4752C21.3645 36.3152 21.3645 37.6592 20.5245 38.4992ZM35.4485 20.5512C34.6085 19.7112 34.6085 18.3672 35.4485 17.5272C36.2885 16.6872 37.6325 16.6872 38.4725 17.5272C39.3125 18.3672 39.3125 19.7112 38.4725 20.5512C38.0805 20.9432 37.5485 21.1672 36.9605 21.1672C36.4005 21.1672 35.8685 20.9432 35.4485 20.5512ZM38.4725 38.4992C37.6325 39.3392 36.2885 39.3392 35.4485 38.4992C34.6085 37.6592 34.6085 36.3152 35.4485 35.4752C35.8685 35.0552 36.4005 34.8592 36.9605 34.8592C37.5205 34.8592 38.0525 35.0552 38.4725 35.4752C39.3125 36.3152 39.3125 37.6592 38.4725 38.4992Z" fill="#51BAEA"/>
</g>
<defs>
<clipPath id="clip0_54_61268">
<rect width="28" height="28" fill="white" transform="translate(14 14)"/>
</clipPath>
</defs>
</svg>
