<svg width="1440" height="388" viewBox="0 0 1440 388" fill="none" xmlns="http://www.w3.org/2000/svg">
<rect width="1440" height="308" transform="translate(0 80)" fill="#51BAEA"/>
<path d="M168.903 885.328C-56.5734 1085.22 -247.213 1307.75 -404.528 1544.38C-1396.49 1391.46 -1622.05 -221.393 -1083.7 -1043.83C-1084.39 -314.819 -256.874 285.547 880.319 335.015C1180.14 348.058 1474.33 321.449 1747.37 261.548C1685.25 374.253 1417.03 287.326 1320.12 405.554C1051.47 406.535 972.364 627.538 712.126 659.847C497.385 687.098 302.224 768.683 168.903 885.328Z" fill="#1F2334E5
"/>
<path d="M106.834 958.369C-109.405 1168.22 -289.823 1399.11 -436.315 1642.6C-1434.16 1534.53 -1732.17 -66.5198 -1231.43 -912.378C-1199.26 -184.081 -345.539 378.384 792.728 376.555C1092.84 376.073 1385.53 336.234 1655.59 264.09C1598.61 379.48 1522.13 501.931 1430.64 624.407C1162.31 637.493 897.862 664.633 639.344 708.637C426.049 745.537 234.763 835.834 106.834 958.369Z" fill="white"/>
</svg>
