<svg width="1440" height="388" viewBox="0 0 1440 388" fill="none" xmlns="http://www.w3.org/2000/svg">
<rect width="1440" height="308" transform="translate(0 80)" fill="#51BAEA"/>
<path d="M1144.37 921.91C1354.04 1138.33 1527.26 1374.66 1666.18 1622.55C2666.88 1545.27 3014.08 -45.835 2539.63 -906.719C2485.04 -179.758 1614.39 356.138 476.722 319.242C176.772 309.514 -114.553 260.676 -382.265 180.246C-328.864 297.337 -54.8277 230.996 32.843 356.232C300.638 377.578 362.764 603.943 619.803 655.891C831.86 699.345 1020.27 795.493 1144.37 921.91Z" fill="#1F2334E5
"/>
<path d="M1504.09 958.173C1736.26 1168.05 1929.85 1398.96 2086.91 1642.46C3160.69 1534.52 3484.88 -66.4875 2948.04 -912.404C2911.81 -184.113 1992.07 378.246 767.467 376.278C444.595 375.76 129.792 335.885 -160.595 263.708C-99.548 379.105 -17.5377 501.565 80.6161 624.052C369.266 637.17 653.716 664.342 931.745 708.377C1161.14 745.304 1366.73 835.624 1504.09 958.173Z" fill="white"/>
</svg>
