<svg width="1440" height="388" viewBox="0 0 1440 388" fill="none" xmlns="http://www.w3.org/2000/svg">
<rect width="1440" height="308" transform="translate(0 80)" fill="#51BAEA"/>
<path d="M122.587 889.503C-115.296 1074.46 -319.873 1284.24 -492.103 1510.26C-1472.16 1293.75 -1593.36 -330.277 -1003.15 -1116.33C-1050.8 -388.878 -263.673 263.542 867.973 386.156C1166.33 418.483 1461.63 410.878 1737.96 368.689C1668.7 477.158 1406.64 373.135 1302.31 484.876C1034.16 468.551 940.984 683.999 679.205 699.479C463.155 712.842 263.145 781.688 122.587 889.503Z" fill="#1F2334E5
"/>
<path d="M106.834 958.369C-109.405 1168.22 -289.823 1399.11 -436.315 1642.6C-1434.16 1534.53 -1732.17 -66.5198 -1231.43 -912.378C-1199.26 -184.081 -345.539 378.384 792.728 376.555C1092.84 376.073 1385.53 336.234 1655.59 264.09C1598.61 379.48 1522.13 501.931 1430.64 624.407C1162.31 637.493 897.862 664.633 639.344 708.637C426.049 745.537 234.763 835.834 106.834 958.369Z" fill="white"/>
</svg>
