<svg width="1440" height="388" viewBox="0 0 1440 388" fill="none" xmlns="http://www.w3.org/2000/svg">
<rect width="1440" height="308" transform="translate(0 80)" fill="#51BAEA"/>
<path d="M1193.57 923.022C1412.22 1130.36 1595.3 1359.14 1744.61 1600.91C2741.14 1481.29 3020.58 -123.097 2510.08 -963.099C2486.35 -234.478 1639.19 337.837 500.983 349.192C200.889 352.185 -92.2432 315.738 -363.124 246.727C-304.809 361.45 -33.83 283.554 59.0697 404.962C327.529 414.939 399.193 638.467 658.203 679.474C871.911 713.902 1064.23 801.977 1193.57 923.022Z" fill="#1F2334E5
"/>
<path d="M1504.09 974.173C1736.26 1184.05 1929.85 1414.96 2086.91 1658.46C3160.69 1550.52 3484.88 -50.4875 2948.04 -896.404C2911.81 -168.113 1992.07 394.246 767.467 392.278C444.596 391.76 129.792 351.885 -160.595 279.708C-99.5479 395.105 -17.5378 517.565 80.6161 640.052C369.267 653.17 653.716 680.342 931.746 724.377C1161.14 761.304 1366.73 851.624 1504.09 974.173Z" fill="white"/>
</svg>
