<svg width="1440" height="904" viewBox="0 0 1440 904" fill="none" xmlns="http://www.w3.org/2000/svg">
<g clip-path="url(#clip0_334_44790)">
<rect width="1440" height="904" fill="white"/>
<path d="M-110.088 892.48C31.8215 1158.3 133.201 1433.22 198.427 1709.79C1181.68 1911.29 1953.92 477.484 1735.1 -480.815C1482.28 202.951 497.658 478.152 -585.788 129.154C-871.443 37.1396 -1138.03 -90.0932 -1373.21 -241.187C-1354.14 -113.914 -1072.43 -102.164 -1022.67 42.3834C-771.13 136.705 -773.795 371.425 -541.025 492.198C-349.156 592.411 -194.536 736.759 -110.088 892.48Z" fill="#51BAEA"/>
<path d="M-206.849 892.74C-107.486 1177.21 -49.5703 1464.45 -27.6315 1747.76C912.959 2098 1896.42 799.941 1827.5 -180.606C1472.58 456.173 457.362 576.754 -559.562 65.3635C-827.678 -69.4663 -1071.54 -236.164 -1280.7 -421.613C-1281.42 -292.922 -1004.87 -238.01 -977.917 -87.531C-743.862 44.3348 -782.575 275.856 -571.136 430.974C-396.951 559.488 -266.357 725.888 -206.849 892.74Z" fill="#1F2334E5
"/>
<path d="M1621.58 804.565C1033.53 529.469 337.435 680.037 -196.046 940.372C10.2068 1064.73 222.259 1173.85 440.324 1264.03C623.779 1340.05 820.72 1352.27 989.148 1300.7C1278.21 1212.77 1553.77 1086.75 1812.04 931.537C1758.08 881.013 1696.25 838.544 1621.58 804.565Z" fill="white"/>
</g>
<defs>
<clipPath id="clip0_334_44790">
<rect width="1440" height="904" fill="white"/>
</clipPath>
</defs>
</svg>
