<?xml version="1.0" encoding="UTF-8"?>
<svg xmlns="http://www.w3.org/2000/svg" width="96" height="33" viewBox="0 0 96 33" fill="none">
  <g clip-path="url(#clip0_289_33050)">
    <path d="M16.8329 8.13965H16.8315C15.4554 8.13965 14.3398 9.27806 14.3398 10.6824V16.3955C14.3398 17.7998 15.4554 18.9382 16.8315 18.9382H16.8329C18.209 18.9382 19.3246 17.7998 19.3246 16.3955V10.6824C19.3246 9.27806 18.209 8.13965 16.8329 8.13965Z" fill="url(#paint0_linear_289_33050)"></path>
    <path d="M22.9223 8.13965H22.9209C21.5448 8.13965 20.4292 9.27806 20.4292 10.6824V22.3168C20.4292 23.7211 21.5448 24.8596 22.9209 24.8596H22.9223C24.2984 24.8596 25.414 23.7211 25.414 22.3168V10.6824C25.414 9.27806 24.2984 8.13965 22.9223 8.13965Z" fill="url(#paint1_linear_289_33050)"></path>
    <path d="M10.5795 14.2705H10.5781C9.20198 14.2705 8.08643 15.4089 8.08643 16.8132V22.3181C8.08643 23.7224 9.20198 24.8608 10.5781 24.8608H10.5795C11.9556 24.8608 13.0712 23.7224 13.0712 22.3181V16.8132C13.0712 15.4089 11.9556 14.2705 10.5795 14.2705Z" fill="url(#paint2_linear_289_33050)"></path>
    <path d="M10.5796 13.56C12.0463 13.56 13.2354 12.3466 13.2354 10.8498C13.2354 9.35304 12.0463 8.13965 10.5796 8.13965C9.11286 8.13965 7.92383 9.35304 7.92383 10.8498C7.92383 12.3466 9.11286 13.56 10.5796 13.56Z" fill="url(#paint3_linear_289_33050)"></path>
    <path d="M16.6687 33C7.75379 33 0.5 25.5976 0.5 16.5C0.5 7.40243 7.75379 0 16.6687 0C25.5836 0 32.8374 7.40243 32.8374 16.5C32.8374 25.5976 25.5836 33 16.6687 33ZM16.6687 0.93932C8.26183 0.93932 1.42046 7.92087 1.42046 16.5C1.42046 25.0791 8.2604 32.0592 16.6673 32.0592C25.0741 32.0592 31.9155 25.0791 31.9155 16.5C31.9155 7.92087 25.0756 0.93932 16.6687 0.93932Z" fill="url(#paint4_linear_289_33050)"></path>
    <path d="M37.4297 17.5382V5.36195C37.4297 5.17554 37.531 5.05176 37.7122 5.05176H39.3905C39.5717 5.05176 39.693 5.17554 39.693 5.36195V17.5382C39.693 17.7246 39.5717 17.8484 39.3905 17.8484H37.7122C37.5296 17.8484 37.4297 17.7246 37.4297 17.5382Z" fill="#1F2334"></path>
    <path d="M41.4897 17.5383V8.04459C41.4897 7.85818 41.5911 7.73585 41.7723 7.73585H43.3093C43.4919 7.73585 43.5918 7.81886 43.5918 8.06644L43.6532 9.16013C44.1584 8.21061 45.0489 7.48828 46.4445 7.48828C47.7589 7.48828 48.7707 8.1276 49.2958 9.36692C49.8424 8.31401 50.7928 7.48828 52.3897 7.48828C54.4732 7.48828 55.7476 8.91255 55.7476 11.5747V17.5397C55.7476 17.7261 55.6463 17.8499 55.465 17.8499H53.8467C53.6641 17.8499 53.5642 17.7261 53.5642 17.5397V11.9883C53.5642 10.4198 52.9777 9.55333 51.7233 9.55333C50.4689 9.55333 49.7011 10.4402 49.7011 11.9883V17.5397C49.7011 17.7261 49.5998 17.8499 49.4185 17.8499H47.8202C47.6176 17.8499 47.5177 17.7261 47.5177 17.5397V11.9883C47.5177 10.4198 46.8698 9.55333 45.6368 9.55333C44.4038 9.55333 43.6746 10.4402 43.6746 11.9883V17.5397C43.6746 17.7261 43.5733 17.8499 43.392 17.8499H41.7737C41.5911 17.8499 41.4912 17.7261 41.4912 17.5397L41.4897 17.5383Z" fill="#1F2334"></path>
    <path d="M57.3232 19.9213V8.04507C57.3232 7.85866 57.4245 7.73633 57.6058 7.73633H59.0814C59.264 7.73633 59.3639 7.86012 59.3639 8.04507L59.4039 9.40672C60.0917 8.23002 61.2648 7.4873 62.903 7.4873C65.7343 7.4873 67.6766 9.79847 67.6766 12.7912C67.6766 15.7839 65.7343 18.0951 62.903 18.0951C61.3661 18.0951 60.213 17.4339 59.5052 16.3402V19.9198C59.5052 20.1062 59.4039 20.23 59.2226 20.23H57.6043C57.4217 20.23 57.3218 20.1062 57.3218 19.9198L57.3232 19.9213ZM62.4806 16.0519C64.2602 16.0519 65.5545 14.7514 65.5545 12.7912C65.5545 10.831 64.2602 9.53051 62.4806 9.53051C60.7011 9.53051 59.4881 10.8514 59.4881 12.8116C59.4881 14.7718 60.7211 16.0519 62.4806 16.0519Z" fill="#1F2334"></path>
    <path d="M68.5454 12.7922C68.5454 9.79945 70.4876 7.48828 73.319 7.48828C74.9572 7.48828 76.1303 8.231 76.8181 9.4077L76.8581 8.04605C76.8581 7.85964 76.9594 7.73731 77.1406 7.73731H78.6177C78.7989 7.73731 78.9002 7.8611 78.9002 8.04605V17.5397C78.9002 17.7261 78.7989 17.8499 78.6177 17.8499H77.1406C76.958 17.8499 76.8581 17.7261 76.8581 17.5397L76.8181 16.1985C76.1103 17.3752 74.9373 18.0975 73.319 18.0975C70.4876 18.0975 68.5454 15.8067 68.5454 12.7936V12.7922ZM73.7428 16.0528C75.5024 16.0528 76.7354 14.7524 76.7354 12.8126C76.7354 10.8727 75.5024 9.53149 73.7428 9.53149C71.9832 9.53149 70.6689 10.8524 70.6689 12.7922C70.6689 14.732 71.9632 16.0528 73.7428 16.0528Z" fill="#1F2334"></path>
    <path d="M79.9893 12.7708C79.9893 9.75769 82.1941 7.4873 85.1467 7.4873C86.765 7.4873 88.0793 8.16886 88.9284 9.24216C89.0497 9.40672 89.0497 9.55235 88.9284 9.67614L88.018 10.563C87.8567 10.7276 87.654 10.6868 87.5327 10.5426C86.9462 9.9441 86.2798 9.55235 85.248 9.55235C83.3871 9.55235 82.0928 10.914 82.0928 12.7723C82.0928 14.6305 83.3871 16.0329 85.288 16.0329C86.2998 16.0329 86.9662 15.6412 87.5327 15.0426C87.674 14.8985 87.8767 14.8562 88.0379 15.0223L88.9484 15.9091C89.0697 16.0329 89.0697 16.1771 88.9484 16.3431C88.0993 17.4164 86.785 18.098 85.1866 18.098C82.2141 18.098 79.9893 15.8072 79.9893 12.7737V12.7708Z" fill="#1F2334"></path>
    <path d="M91.3943 15.3712V9.50953H90.12C89.9373 9.50953 89.8374 9.38574 89.8374 9.20079V8.04448C89.8374 7.85807 89.9387 7.73574 90.12 7.73574H91.3943V5.36195C91.3943 5.17554 91.4957 5.05176 91.6769 5.05176H93.3152C93.4964 5.05176 93.5977 5.17554 93.5977 5.36195V7.73574H95.196C95.3773 7.73574 95.4986 7.85953 95.4986 8.04448V9.20079C95.4986 9.38719 95.3773 9.50953 95.196 9.50953H93.5977V15.1032C93.5977 15.7833 93.9217 16.0731 94.4882 16.0731C94.6495 16.0731 94.8921 16.0731 95.1147 16.0527C95.3573 16.012 95.4786 16.1153 95.4786 16.3221V17.4362C95.4786 17.8498 94.5881 17.9736 93.9816 17.9736C92.506 17.9736 91.3929 17.2513 91.3929 15.3726L91.3943 15.3712Z" fill="#1F2334"></path>
    <path d="M37.4297 27.6002V21.089C37.4297 21.0016 37.4768 20.9434 37.5624 20.9434H38.5243C38.5999 20.9434 38.657 20.9725 38.6855 21.0409L40.8761 26.5123L43.0752 21.0409C43.1037 20.9725 43.1508 20.9434 43.2279 20.9434H44.1897C44.2753 20.9434 44.3324 21.0016 44.3324 21.089V27.6002C44.3324 27.6875 44.2753 27.7458 44.1897 27.7458H43.3991C43.3135 27.7458 43.2664 27.6875 43.2664 27.6002V22.9167L41.4098 27.6293C41.3812 27.7065 41.3242 27.7458 41.2471 27.7458H40.5136C40.438 27.7458 40.3709 27.7065 40.3423 27.6293L38.4957 22.9167V27.6002C38.4957 27.6875 38.4386 27.7458 38.353 27.7458H37.5624C37.4768 27.7458 37.4297 27.6875 37.4297 27.6002Z" fill="#1F2334"></path>
    <path d="M45.0771 25.3648C45.0771 23.9551 45.9905 22.8672 47.3248 22.8672C48.0968 22.8672 48.6477 23.2167 48.9716 23.7716L48.9902 23.1308C48.9902 23.0434 49.0373 22.9851 49.1229 22.9851H49.8179C49.9035 22.9851 49.9506 23.0434 49.9506 23.1308V27.6002C49.9506 27.6876 49.9035 27.7458 49.8179 27.7458H49.1229C49.0373 27.7458 48.9902 27.6876 48.9902 27.6002L48.9716 26.9682C48.6391 27.5216 48.0854 27.8623 47.3248 27.8623C45.9919 27.8623 45.0771 26.7832 45.0771 25.3648ZM47.5246 26.8997C48.3523 26.8997 48.9331 26.2881 48.9331 25.3735C48.9331 24.4589 48.3523 23.8284 47.5246 23.8284C46.6969 23.8284 46.0775 24.4502 46.0775 25.3633C46.0775 26.2764 46.6869 26.8983 47.5246 26.8983V26.8997Z" fill="#1F2334"></path>
    <path d="M50.8486 27.5997V23.1303C50.8486 23.0429 50.8957 22.9847 50.9813 22.9847H51.7048C51.7905 22.9847 51.839 23.024 51.839 23.1405L51.8675 23.7143C52.0388 23.2381 52.3442 22.8682 52.905 22.8682C53.1148 22.8682 53.2575 22.9162 53.3331 22.9745C53.4002 23.0225 53.4187 23.072 53.4187 23.1594V23.7813C53.4187 23.8876 53.3517 23.9167 53.2375 23.8876C53.1233 23.8483 53.0192 23.8395 52.895 23.8395C52.1615 23.8395 51.8761 24.422 51.8761 25.0352V27.6012C51.8761 27.6886 51.829 27.7468 51.7419 27.7468H50.9799C50.8943 27.7468 50.8472 27.6886 50.8472 27.6012L50.8486 27.5997Z" fill="#1F2334"></path>
    <path d="M54.0093 27.6002V21.089C54.0093 21.0016 54.0564 20.9434 54.142 20.9434H54.9041C54.9897 20.9434 55.0382 21.0016 55.0382 21.089V25.1798L56.8763 23.0608C56.9234 23.0026 56.9719 22.9837 57.0389 22.9837H57.9337C58.0479 22.9837 58.0664 23.0608 57.9908 23.1482L56.344 25.005L58.2491 27.5798C58.3062 27.6671 58.2776 27.7458 58.1635 27.7458H57.3443C57.2687 27.7458 57.2202 27.7269 57.1731 27.6584L55.726 25.7244L55.0411 26.4919V27.6002C55.0411 27.6875 54.994 27.7458 54.9069 27.7458H54.1449C54.0592 27.7458 54.0121 27.6875 54.0121 27.6002H54.0093Z" fill="#1F2334"></path>
    <path d="M58.1723 25.3453C58.1723 23.9458 59.1242 22.8682 60.5427 22.8682C61.9612 22.8682 62.7518 23.9473 62.7518 25.1327C62.7518 25.5507 62.6662 25.7546 62.3137 25.7546H59.1713C59.2954 26.5119 59.8477 27.0186 60.771 27.0186C61.2277 27.0186 61.6001 26.9021 61.9712 26.6487C62.0283 26.6094 62.0854 26.6196 62.1239 26.6779L62.3907 27.0478C62.4478 27.125 62.4293 27.1832 62.3522 27.2619C61.9426 27.6696 61.3433 27.8648 60.6854 27.8648C59.1613 27.8648 58.1709 26.7667 58.1709 25.3483L58.1723 25.3453ZM61.8385 24.9958C61.7814 24.2182 61.2762 23.7521 60.5441 23.7521C59.812 23.7521 59.2683 24.2094 59.1627 24.9958H61.8385Z" fill="#1F2334"></path>
    <path d="M63.7619 26.5809V23.8212H63.1625C63.0769 23.8212 63.0298 23.7629 63.0298 23.6756V23.1309C63.0298 23.0435 63.0769 22.9853 63.1625 22.9853H63.7619V21.8683C63.7619 21.7809 63.809 21.7227 63.8946 21.7227H64.6652C64.7508 21.7227 64.7994 21.7809 64.7994 21.8683V22.9853H65.5514C65.637 22.9853 65.6941 23.0435 65.6941 23.1309V23.6756C65.6941 23.7629 65.637 23.8212 65.5514 23.8212H64.7994V26.4542C64.7994 26.7746 64.952 26.9115 65.2189 26.9115C65.2945 26.9115 65.4087 26.9115 65.5143 26.9013C65.6285 26.8824 65.6856 26.9304 65.6856 27.028V27.5523C65.6856 27.746 65.266 27.8042 64.9806 27.8042C64.2856 27.8042 63.7619 27.4634 63.7619 26.5795V26.5809Z" fill="#1F2334"></path>
    <path d="M66.3051 28.8643V23.1308C66.3051 23.0434 66.3522 22.9851 66.4378 22.9851H67.1328C67.2184 22.9851 67.2655 23.0434 67.2655 23.1308L67.2841 23.7716C67.608 23.2182 68.1603 22.8672 68.9309 22.8672C70.2638 22.8672 71.1785 23.9551 71.1785 25.3648C71.1785 26.7745 70.2652 27.8623 68.9309 27.8623C68.2074 27.8623 67.6651 27.5507 67.3312 27.0366V28.8643C67.3312 28.9517 67.2841 29.0099 67.197 29.0099H66.435C66.3493 29.0099 66.3022 28.9517 66.3022 28.8643H66.3051ZM68.7325 26.9012C69.5702 26.9012 70.1796 26.2895 70.1796 25.3662C70.1796 24.4429 69.5702 23.8313 68.7325 23.8313C67.8949 23.8313 67.324 24.4531 67.324 25.3764C67.324 26.2997 67.9048 26.9026 68.7325 26.9026V26.9012Z" fill="#1F2334"></path>
    <path d="M71.8379 27.6004V21.0529C71.8379 20.9655 71.885 20.9072 71.9706 20.9072H72.7327C72.8183 20.9072 72.8668 20.9655 72.8668 21.0529V27.6004C72.8668 27.6878 72.8197 27.7461 72.7327 27.7461H71.9706C71.885 27.7461 71.8379 27.6878 71.8379 27.6004Z" fill="#1F2334"></path>
    <path d="M73.5229 25.3648C73.5229 23.9551 74.4363 22.8672 75.7706 22.8672C76.5426 22.8672 77.0935 23.2167 77.4174 23.7716L77.436 23.1308C77.436 23.0434 77.4831 22.9851 77.5687 22.9851H78.2637C78.3493 22.9851 78.3964 23.0434 78.3964 23.1308V27.6002C78.3964 27.6876 78.3493 27.7458 78.2637 27.7458H77.5687C77.4831 27.7458 77.436 27.6876 77.436 27.6002L77.4174 26.9682C77.0849 27.5216 76.5312 27.8623 75.7706 27.8623C74.4377 27.8623 73.5229 26.7832 73.5229 25.3648ZM75.9704 26.8997C76.7981 26.8997 77.3789 26.2881 77.3789 25.3735C77.3789 24.4589 76.7981 23.8284 75.9704 23.8284C75.1427 23.8284 74.5233 24.4502 74.5233 25.3633C74.5233 26.2764 75.1327 26.8983 75.9704 26.8983V26.8997Z" fill="#1F2334"></path>
    <path d="M79.0557 25.3555C79.0557 23.9371 80.0931 22.8682 81.4831 22.8682C82.2452 22.8682 82.8645 23.1886 83.2641 23.6939C83.3212 23.7711 83.3212 23.8395 83.2641 23.8978L82.836 24.3157C82.7603 24.3929 82.6647 24.374 82.6076 24.3055C82.3308 24.023 82.0168 23.8395 81.5316 23.8395C80.6554 23.8395 80.0461 24.4803 80.0461 25.3555C80.0461 26.2308 80.6554 26.8905 81.5502 26.8905C82.0268 26.8905 82.3408 26.7055 82.6076 26.4245C82.6747 26.356 82.7689 26.3371 82.846 26.4143L83.2741 26.8322C83.3312 26.8905 83.3312 26.9589 83.2741 27.0361C82.8745 27.5415 82.2552 27.8619 81.5031 27.8619C80.1031 27.8619 79.0557 26.7827 79.0557 25.3541V25.3555Z" fill="#1F2334"></path>
    <path d="M83.5424 25.3453C83.5424 23.9458 84.4943 22.8682 85.9128 22.8682C87.3313 22.8682 88.1219 23.9473 88.1219 25.1327C88.1219 25.5507 88.0363 25.7546 87.6838 25.7546H84.5414C84.6655 26.5119 85.2178 27.0186 86.1411 27.0186C86.5978 27.0186 86.9703 26.9021 87.3413 26.6487C87.3984 26.6094 87.4555 26.6196 87.494 26.6779L87.7609 27.0478C87.8179 27.125 87.7994 27.1832 87.7223 27.2619C87.3128 27.6696 86.7134 27.8648 86.0555 27.8648C84.5314 27.8648 83.541 26.7667 83.541 25.3483L83.5424 25.3453ZM87.2086 24.9958C87.1515 24.2182 86.6463 23.7521 85.9142 23.7521C85.1821 23.7521 84.6384 24.2094 84.5328 24.9958H87.2086Z" fill="#1F2334"></path>
  </g>
  <defs>
    <linearGradient id="paint0_linear_289_33050" x1="13.6705" y1="16.7654" x2="20.1221" y2="10.4433" gradientUnits="userSpaceOnUse">
      <stop stop-color="#EE8354"></stop>
      <stop offset="1" stop-color="#EE4E54"></stop>
    </linearGradient>
    <linearGradient id="paint1_linear_289_33050" x1="18.31" y1="21.2071" x2="27.7217" y2="11.9844" gradientUnits="userSpaceOnUse">
      <stop stop-color="#EE8354"></stop>
      <stop offset="1" stop-color="#EE4E54"></stop>
    </linearGradient>
    <linearGradient id="paint2_linear_289_33050" x1="7.4685" y1="22.739" x2="13.8153" y2="16.5196" gradientUnits="userSpaceOnUse">
      <stop stop-color="#EE8354"></stop>
      <stop offset="1" stop-color="#EE4E54"></stop>
    </linearGradient>
    <linearGradient id="paint3_linear_289_33050" x1="8.70158" y1="12.7663" x2="12.5324" y2="9.01105" gradientUnits="userSpaceOnUse">
      <stop stop-color="#EE8354"></stop>
      <stop offset="1" stop-color="#EE4E54"></stop>
    </linearGradient>
    <linearGradient id="paint4_linear_289_33050" x1="0.5" y1="16.5" x2="32.8374" y2="16.5" gradientUnits="userSpaceOnUse">
      <stop stop-color="#EE8354"></stop>
      <stop offset="1" stop-color="#EE4E54"></stop>
    </linearGradient>
    <clipPath id="clip0_289_33050">
      <rect width="95" height="33" fill="white" transform="translate(0.5)"></rect>
    </clipPath>
  </defs>
</svg>
